<?xml version="1.0" encoding="utf-8"?>
<!-- Generator: Adobe Illustrator 16.0.0, SVG Export Plug-In . SVG Version: 6.00 Build 0)  -->
<!DOCTYPE svg PUBLIC "-//W3C//DTD SVG 1.1//EN" "http://www.w3.org/Graphics/SVG/1.1/DTD/svg11.dtd">
<svg version="1.1" id="Layer_1" xmlns="http://www.w3.org/2000/svg" xmlns:xlink="http://www.w3.org/1999/xlink" x="0px" y="0px"
	 width="1300px" height="102px" viewBox="0 2.25 1300 102" enable-background="new 0 2.25 1300 102" xml:space="preserve">
<g>
	<polygon fill="#616161" points="425.423,100.75 0.021,100.125 29.167,66.143 0.371,31.854 425.773,32.479 	"/>
	<g>
		<g>
			<polyline fill="none" stroke="#FFFFFF" stroke-width="1.4506" stroke-miterlimit="10" points="11.923,93.779 10.954,94.857 
				12.403,94.859 			"/>
			
				<line fill="none" stroke="#FFFFFF" stroke-width="1.4506" stroke-miterlimit="10" stroke-dasharray="2.8922,2.8922" x1="15.291" y1="94.863" x2="412.418" y2="95.365"/>
			<polyline fill="none" stroke="#FFFFFF" stroke-width="1.4506" stroke-miterlimit="10" points="413.862,95.367 415.311,95.369 
				415.317,93.918 			"/>
			
				<line fill="none" stroke="#FFFFFF" stroke-width="1.4506" stroke-miterlimit="10" stroke-dasharray="2.8756,2.8756" x1="415.333" y1="91.039" x2="415.59" y2="40.647"/>
			<polyline fill="none" stroke="#FFFFFF" stroke-width="1.4506" stroke-miterlimit="10" points="415.598,39.207 415.604,37.754 
				414.156,37.752 			"/>
			
				<line fill="none" stroke="#FFFFFF" stroke-width="1.4506" stroke-miterlimit="10" stroke-dasharray="2.8922,2.8922" x1="411.268" y1="37.749" x2="14.143" y2="37.242"/>
			<polyline fill="none" stroke="#FFFFFF" stroke-width="1.4506" stroke-miterlimit="10" points="12.699,37.24 11.25,37.238 
				12.209,38.328 			"/>
			
				<line fill="none" stroke="#FFFFFF" stroke-width="1.4506" stroke-miterlimit="10" stroke-dasharray="2.7405,2.7405" x1="14.018" y1="40.386" x2="34.832" y2="64.059"/>
			<polyline fill="none" stroke="#FFFFFF" stroke-width="1.4506" stroke-miterlimit="10" points="35.735,65.09 36.694,66.178 
				35.725,67.258 			"/>
			
				<line fill="none" stroke="#FFFFFF" stroke-width="1.4506" stroke-miterlimit="10" stroke-dasharray="2.7406,2.7406" x1="33.893" y1="69.297" x2="12.839" y2="92.758"/>
		</g>
	</g>
	<polygon fill="#231F20" points="389.781,83.137 425.423,100.75 425.519,81.869 	"/>
	<polygon fill="#616161" points="1299.671,103.25 888.758,102.627 889.105,34.357 1300.021,34.979 1270.876,68.965 	"/>
	<g>
		<g>
			<polyline fill="none" stroke="#FFFFFF" stroke-width="1.4506" stroke-miterlimit="10" points="1287.15,96.775 1288.107,97.863 
				1286.66,97.861 			"/>
			
				<line fill="none" stroke="#FFFFFF" stroke-width="1.4506" stroke-miterlimit="10" stroke-dasharray="2.9136,2.9136" x1="1283.751" y1="97.857" x2="901.144" y2="97.35"/>
			<polyline fill="none" stroke="#FFFFFF" stroke-width="1.4506" stroke-miterlimit="10" points="899.688,97.348 898.242,97.346 
				898.25,95.895 			"/>
			
				<line fill="none" stroke="#FFFFFF" stroke-width="1.4506" stroke-miterlimit="10" stroke-dasharray="2.8756,2.8756" x1="898.264" y1="93.014" x2="898.521" y2="42.624"/>
			<polyline fill="none" stroke="#FFFFFF" stroke-width="1.4506" stroke-miterlimit="10" points="898.529,41.183 898.537,39.731 
				899.984,39.734 			"/>
			
				<line fill="none" stroke="#FFFFFF" stroke-width="1.4506" stroke-miterlimit="10" stroke-dasharray="2.9136,2.9136" x1="902.896" y1="39.738" x2="1285.5" y2="40.244"/>
			<polyline fill="none" stroke="#FFFFFF" stroke-width="1.4506" stroke-miterlimit="10" points="1286.955,40.246 1288.402,40.248 
				1287.434,41.328 			"/>
			
				<line fill="none" stroke="#FFFFFF" stroke-width="1.4506" stroke-miterlimit="10" stroke-dasharray="2.7404,2.7404" x1="1285.604" y1="43.368" x2="1264.551" y2="66.824"/>
			<polyline fill="none" stroke="#FFFFFF" stroke-width="1.4506" stroke-miterlimit="10" points="1263.637,67.846 1262.667,68.924 
				1263.626,70.012 			"/>
			
				<line fill="none" stroke="#FFFFFF" stroke-width="1.4506" stroke-miterlimit="10" stroke-dasharray="2.7405,2.7405" x1="1265.435" y1="72.072" x2="1286.246" y2="95.746"/>
		</g>
	</g>
	<polygon fill="#231F20" points="924.575,85.381 888.758,102.627 888.854,83.742 	"/>
	<polygon fill="#616161" points="922.17,83.916 391.238,81.691 391.638,3.25 922.573,5.475 	"/>
	<g>
		<g>
			<polyline fill="none" stroke="#FFFFFF" stroke-width="1.4506" stroke-miterlimit="10" points="914.971,76.131 914.964,77.584 
				913.515,77.578 			"/>
			
				<line fill="none" stroke="#FFFFFF" stroke-width="1.4506" stroke-miterlimit="10" stroke-dasharray="2.9055,2.9055" x1="910.612" y1="77.564" x2="401.41" y2="75.445"/>
			<polyline fill="none" stroke="#FFFFFF" stroke-width="1.4506" stroke-miterlimit="10" points="399.96,75.439 398.511,75.432 
				398.52,73.979 			"/>
			
				<line fill="none" stroke="#FFFFFF" stroke-width="1.4506" stroke-miterlimit="10" stroke-dasharray="2.9933,2.9933" x1="398.534" y1="70.982" x2="398.833" y2="12.534"/>
			<polyline fill="none" stroke="#FFFFFF" stroke-width="1.4506" stroke-miterlimit="10" points="398.841,11.034 398.85,9.582 
				400.297,9.587 			"/>
			
				<line fill="none" stroke="#FFFFFF" stroke-width="1.4506" stroke-miterlimit="10" stroke-dasharray="2.9055,2.9055" x1="403.199" y1="9.6" x2="912.402" y2="11.721"/>
			<polyline fill="none" stroke="#FFFFFF" stroke-width="1.4506" stroke-miterlimit="10" points="913.853,11.727 915.302,11.733 
				915.293,13.185 			"/>
			
				<line fill="none" stroke="#FFFFFF" stroke-width="1.4506" stroke-miterlimit="10" stroke-dasharray="2.9933,2.9933" x1="915.278" y1="16.184" x2="914.979" y2="74.633"/>
		</g>
	</g>
</g>
</svg>
