<?xml version="1.0" encoding="utf-8"?>
<!-- Generator: Adobe Illustrator 16.0.0, SVG Export Plug-In . SVG Version: 6.00 Build 0)  -->
<!DOCTYPE svg PUBLIC "-//W3C//DTD SVG 1.1//EN" "http://www.w3.org/Graphics/SVG/1.1/DTD/svg11.dtd">
<svg version="1.1" id="Layer_1" xmlns="http://www.w3.org/2000/svg" xmlns:xlink="http://www.w3.org/1999/xlink" x="0px" y="0px"
	 width="1300px" height="102px" viewBox="0 0 1300 102" enable-background="new 0 0 1300 102" xml:space="preserve">
<g>
	<polygon fill="#616161" points="295.423,100.75 0.021,100.125 29.167,66.143 0.371,31.854 295.773,32.479 	"/>
	<g>
		<g>
			<polyline fill="none" stroke="#FFFFFF" stroke-width="1.4506" stroke-miterlimit="10" points="11.923,93.779 10.954,94.857 
				12.403,94.859 			"/>
			
				<line fill="none" stroke="#FFFFFF" stroke-width="1.4506" stroke-miterlimit="10" stroke-dasharray="2.8922,2.8922" x1="15.291" y1="94.863" x2="282.418" y2="95.365"/>
			<polyline fill="none" stroke="#FFFFFF" stroke-width="1.4506" stroke-miterlimit="10" points="283.862,95.367 285.311,95.369 
				285.317,93.918 			"/>
			
				<line fill="none" stroke="#FFFFFF" stroke-width="1.4506" stroke-miterlimit="10" stroke-dasharray="2.8756,2.8756" x1="285.332" y1="91.039" x2="285.59" y2="40.647"/>
			<polyline fill="none" stroke="#FFFFFF" stroke-width="1.4506" stroke-miterlimit="10" points="285.598,39.207 285.604,37.754 
				284.156,37.752 			"/>
			
				<line fill="none" stroke="#FFFFFF" stroke-width="1.4506" stroke-miterlimit="10" stroke-dasharray="2.8922,2.8922" x1="281.268" y1="37.749" x2="14.143" y2="37.242"/>
			<polyline fill="none" stroke="#FFFFFF" stroke-width="1.4506" stroke-miterlimit="10" points="12.699,37.24 11.25,37.238 
				12.209,38.328 			"/>
			
				<line fill="none" stroke="#FFFFFF" stroke-width="1.4506" stroke-miterlimit="10" stroke-dasharray="2.7405,2.7405" x1="14.018" y1="40.386" x2="34.832" y2="64.059"/>
			<polyline fill="none" stroke="#FFFFFF" stroke-width="1.4506" stroke-miterlimit="10" points="35.735,65.09 36.694,66.178 
				35.725,67.258 			"/>
			
				<line fill="none" stroke="#FFFFFF" stroke-width="1.4506" stroke-miterlimit="10" stroke-dasharray="2.7406,2.7406" x1="33.893" y1="69.297" x2="12.839" y2="92.758"/>
		</g>
	</g>
	<polygon fill="#231F20" points="259.781,83.137 295.423,100.75 295.519,81.869 	"/>
	<polygon fill="#616161" points="1299.671,103.25 1018.758,102.627 1019.105,34.357 1300.021,34.979 1270.875,68.965 	"/>
	<g>
		<g>
			<polyline fill="none" stroke="#FFFFFF" stroke-width="1.4506" stroke-miterlimit="10" points="1287.15,96.775 1288.107,97.863 
				1286.659,97.861 			"/>
			
				<line fill="none" stroke="#FFFFFF" stroke-width="1.4506" stroke-miterlimit="10" stroke-dasharray="2.9136,2.9136" x1="1283.75" y1="97.857" x2="1031.144" y2="97.35"/>
			<polyline fill="none" stroke="#FFFFFF" stroke-width="1.4506" stroke-miterlimit="10" points="1029.688,97.348 1028.241,97.346 
				1028.25,95.895 			"/>
			
				<line fill="none" stroke="#FFFFFF" stroke-width="1.4506" stroke-miterlimit="10" stroke-dasharray="2.8756,2.8756" x1="1028.264" y1="93.014" x2="1028.521" y2="42.624"/>
			<polyline fill="none" stroke="#FFFFFF" stroke-width="1.4506" stroke-miterlimit="10" points="1028.529,41.183 1028.536,39.731 
				1029.984,39.734 			"/>
			
				<line fill="none" stroke="#FFFFFF" stroke-width="1.4506" stroke-miterlimit="10" stroke-dasharray="2.9136,2.9136" x1="1032.896" y1="39.738" x2="1285.5" y2="40.244"/>
			<polyline fill="none" stroke="#FFFFFF" stroke-width="1.4506" stroke-miterlimit="10" points="1286.954,40.246 1288.402,40.248 
				1287.434,41.328 			"/>
			
				<line fill="none" stroke="#FFFFFF" stroke-width="1.4506" stroke-miterlimit="10" stroke-dasharray="2.7404,2.7404" x1="1285.604" y1="43.368" x2="1264.551" y2="66.824"/>
			<polyline fill="none" stroke="#FFFFFF" stroke-width="1.4506" stroke-miterlimit="10" points="1263.637,67.846 1262.666,68.924 
				1263.625,70.012 			"/>
			
				<line fill="none" stroke="#FFFFFF" stroke-width="1.4506" stroke-miterlimit="10" stroke-dasharray="2.7405,2.7405" x1="1265.435" y1="72.072" x2="1286.245" y2="95.746"/>
		</g>
	</g>
	<polygon fill="#231F20" points="1054.574,85.381 1018.758,102.627 1018.854,83.742 	"/>
	<polygon fill="#616161" points="1052.17,83.916 261.238,81.691 261.638,3.25 1052.573,5.475 	"/>
	<g>
		<g>
			<polyline fill="none" stroke="#FFFFFF" stroke-width="1.4506" stroke-miterlimit="10" points="1044.971,76.131 1044.964,77.584 
				1043.515,77.578 			"/>
			
				<line fill="none" stroke="#FFFFFF" stroke-width="1.4506" stroke-miterlimit="10" stroke-dasharray="2.9055,2.9055" x1="1040.612" y1="77.564" x2="271.409" y2="75.445"/>
			<polyline fill="none" stroke="#FFFFFF" stroke-width="1.4506" stroke-miterlimit="10" points="269.96,75.439 268.511,75.432 
				268.52,73.979 			"/>
			
				<line fill="none" stroke="#FFFFFF" stroke-width="1.4506" stroke-miterlimit="10" stroke-dasharray="2.9933,2.9933" x1="268.533" y1="70.982" x2="268.832" y2="12.534"/>
			<polyline fill="none" stroke="#FFFFFF" stroke-width="1.4506" stroke-miterlimit="10" points="268.841,11.034 268.85,9.582 
				270.297,9.587 			"/>
			
				<line fill="none" stroke="#FFFFFF" stroke-width="1.4506" stroke-miterlimit="10" stroke-dasharray="2.9055,2.9055" x1="273.198" y1="9.6" x2="1042.402" y2="11.721"/>
			<polyline fill="none" stroke="#FFFFFF" stroke-width="1.4506" stroke-miterlimit="10" points="1043.853,11.727 1045.302,11.733 
				1045.293,13.185 			"/>
			
				<line fill="none" stroke="#FFFFFF" stroke-width="1.4506" stroke-miterlimit="10" stroke-dasharray="2.9933,2.9933" x1="1045.278" y1="16.184" x2="1044.979" y2="74.633"/>
		</g>
	</g>
</g>
</svg>
