<?xml version="1.0" encoding="utf-8"?>
<!-- Generator: Adobe Illustrator 16.0.0, SVG Export Plug-In . SVG Version: 6.00 Build 0)  -->
<!DOCTYPE svg PUBLIC "-//W3C//DTD SVG 1.1//EN" "http://www.w3.org/Graphics/SVG/1.1/DTD/svg11.dtd">
<svg version="1.1" id="Layer_1" xmlns="http://www.w3.org/2000/svg" xmlns:xlink="http://www.w3.org/1999/xlink" x="0px" y="0px"
	 width="112.801px" height="112.801px" viewBox="0 0 112.801 112.801" enable-background="new 0 0 112.801 112.801"
	 xml:space="preserve">
<g>
	<g>
		<g>
			<defs>
				<circle id="SVGID_1_" cx="-112.6" cy="56.4" r="56.4"/>
			</defs>
			<clipPath id="SVGID_2_">
				<use xlink:href="#SVGID_1_"  overflow="visible"/>
			</clipPath>
			<rect x="-169.002" y="-0.001" clip-path="url(#SVGID_2_)" fill="#164F3C" width="112.805" height="112.805"/>
			<circle clip-path="url(#SVGID_2_)" fill="#164F3C" cx="-112.6" cy="56.401" r="56.402"/>
			<circle clip-path="url(#SVGID_2_)" fill="#17503D" cx="-112.6" cy="56.401" r="54.051"/>
			<circle clip-path="url(#SVGID_2_)" fill="#17513E" cx="-112.6" cy="56.401" r="51.699"/>
			<circle clip-path="url(#SVGID_2_)" fill="#18523F" cx="-112.6" cy="56.401" r="49.352"/>
			<circle clip-path="url(#SVGID_2_)" fill="#18533F" cx="-112.6" cy="56.401" r="47"/>
			<circle clip-path="url(#SVGID_2_)" fill="#195440" cx="-112.6" cy="56.401" r="44.652"/>
			<circle clip-path="url(#SVGID_2_)" fill="#195541" cx="-112.6" cy="56.401" r="42.301"/>
			<circle clip-path="url(#SVGID_2_)" fill="#1A5642" cx="-112.6" cy="56.401" r="39.949"/>
			<circle clip-path="url(#SVGID_2_)" fill="#1A5743" cx="-112.6" cy="56.401" r="37.602"/>
			<circle clip-path="url(#SVGID_2_)" fill="#1B5844" cx="-112.6" cy="56.401" r="35.25"/>
			<circle clip-path="url(#SVGID_2_)" fill="#1B5945" cx="-112.6" cy="56.401" r="32.902"/>
			<circle clip-path="url(#SVGID_2_)" fill="#1C5A46" cx="-112.6" cy="56.401" r="30.551"/>
			<circle clip-path="url(#SVGID_2_)" fill="#1C5C46" cx="-112.6" cy="56.401" r="28.199"/>
			<circle clip-path="url(#SVGID_2_)" fill="#1D5D47" cx="-112.6" cy="56.401" r="25.852"/>
			<circle clip-path="url(#SVGID_2_)" fill="#1D5E48" cx="-112.6" cy="56.401" r="23.5"/>
			<circle clip-path="url(#SVGID_2_)" fill="#1E5F49" cx="-112.6" cy="56.401" r="21.152"/>
			<circle clip-path="url(#SVGID_2_)" fill="#1E604A" cx="-112.6" cy="56.401" r="18.801"/>
			<circle clip-path="url(#SVGID_2_)" fill="#1F614B" cx="-112.6" cy="56.401" r="16.449"/>
			<path clip-path="url(#SVGID_2_)" fill="#1F624C" d="M-98.498,56.401c0,7.785-6.316,14.102-14.102,14.102
				s-14.102-6.316-14.102-14.102s6.316-14.102,14.102-14.102S-98.498,48.616-98.498,56.401z"/>
			<circle clip-path="url(#SVGID_2_)" fill="#20634D" cx="-112.6" cy="56.401" r="11.75"/>
			<circle clip-path="url(#SVGID_2_)" fill="#20644D" cx="-112.6" cy="56.401" r="9.398"/>
			<circle clip-path="url(#SVGID_2_)" fill="#21654E" cx="-112.6" cy="56.401" r="7.051"/>
			<circle clip-path="url(#SVGID_2_)" fill="#21664F" cx="-112.6" cy="56.401" r="4.699"/>
			<circle clip-path="url(#SVGID_2_)" fill="#226750" cx="-112.6" cy="56.401" r="2.352"/>
		</g>
	</g>
	<g>
		<path fill="#FFFFFF" d="M-112.6,108.967c-28.985,0-52.567-23.581-52.567-52.567c0-28.985,23.582-52.567,52.567-52.567
			S-60.033,27.415-60.033,56.4C-60.033,85.386-83.614,108.967-112.6,108.967z M-112.6,4.833c-28.434,0-51.567,23.133-51.567,51.567
			s23.133,51.567,51.567,51.567S-61.033,84.834-61.033,56.4S-84.166,4.833-112.6,4.833z"/>
	</g>
	<g>
		<g>
			<path fill="#FFFFFF" d="M-103.09,67.76l-8.34-17.039h-6V67.76h-8.339V25.042h16.739c8.699,0,13.859,5.939,13.859,13.079
				c0,6-3.66,9.72-7.8,11.22l9.539,18.418H-103.09z M-109.569,32.482h-7.86v11.279h7.86c3.659,0,6.06-2.339,6.06-5.64
				C-103.51,34.822-105.91,32.482-109.569,32.482z"/>
		</g>
	</g>
	<g>
		<g>
			<path fill="#FFFFFF" d="M-120.934,88.267l-2.701-5.401h-2.431v5.401h-1.945V75.448h4.97c2.431,0,3.979,1.566,3.979,3.744
				c0,1.837-1.116,3.008-2.557,3.403l2.953,5.672H-120.934z M-123.185,77.194h-2.881v4.016h2.881c1.296,0,2.179-0.738,2.179-1.999
				S-121.888,77.194-123.185,77.194z"/>
		</g>
		<g>
			<path fill="#FFFFFF" d="M-108.856,88.267l-0.882-2.575h-5.06l-0.882,2.575h-2.071l4.699-12.819h1.567l4.699,12.819H-108.856z
				 M-112.223,78.346l-1.999,5.689h3.943L-112.223,78.346z"/>
		</g>
		<g>
			<path fill="#FFFFFF" d="M-94.688,88.267h-1.692l-2.611-8.985l-2.593,8.985h-1.693l-3.349-12.819h2.052l2.233,9.164l2.575-9.164
				h1.566l2.575,9.164l2.233-9.164h2.052L-94.688,88.267z"/>
		</g>
	</g>
</g>
<g>
	<g>
		<g>
			<defs>
				<circle id="SVGID_3_" cx="56.4" cy="56.4" r="56.4"/>
			</defs>
			<clipPath id="SVGID_4_">
				<use xlink:href="#SVGID_3_"  overflow="visible"/>
			</clipPath>
			<rect x="-0.002" y="-0.001" clip-path="url(#SVGID_4_)" fill="#164F3C" width="112.805" height="112.805"/>
			<circle clip-path="url(#SVGID_4_)" fill="#164F3C" cx="56.4" cy="56.401" r="56.402"/>
			<circle clip-path="url(#SVGID_4_)" fill="#17503D" cx="56.4" cy="56.401" r="54.051"/>
			<circle clip-path="url(#SVGID_4_)" fill="#17513E" cx="56.4" cy="56.401" r="51.699"/>
			<circle clip-path="url(#SVGID_4_)" fill="#18523F" cx="56.4" cy="56.401" r="49.352"/>
			<circle clip-path="url(#SVGID_4_)" fill="#18533F" cx="56.4" cy="56.401" r="47"/>
			<circle clip-path="url(#SVGID_4_)" fill="#195440" cx="56.4" cy="56.401" r="44.652"/>
			<circle clip-path="url(#SVGID_4_)" fill="#195541" cx="56.4" cy="56.401" r="42.301"/>
			<circle clip-path="url(#SVGID_4_)" fill="#1A5642" cx="56.4" cy="56.401" r="39.949"/>
			<circle clip-path="url(#SVGID_4_)" fill="#1A5743" cx="56.4" cy="56.401" r="37.602"/>
			<circle clip-path="url(#SVGID_4_)" fill="#1B5844" cx="56.4" cy="56.401" r="35.25"/>
			<circle clip-path="url(#SVGID_4_)" fill="#1B5945" cx="56.4" cy="56.401" r="32.902"/>
			<circle clip-path="url(#SVGID_4_)" fill="#1C5A46" cx="56.4" cy="56.401" r="30.551"/>
			<circle clip-path="url(#SVGID_4_)" fill="#1C5C46" cx="56.4" cy="56.401" r="28.199"/>
			<circle clip-path="url(#SVGID_4_)" fill="#1D5D47" cx="56.4" cy="56.401" r="25.852"/>
			<circle clip-path="url(#SVGID_4_)" fill="#1D5E48" cx="56.4" cy="56.401" r="23.5"/>
			<circle clip-path="url(#SVGID_4_)" fill="#1E5F49" cx="56.4" cy="56.401" r="21.152"/>
			<circle clip-path="url(#SVGID_4_)" fill="#1E604A" cx="56.4" cy="56.401" r="18.801"/>
			<circle clip-path="url(#SVGID_4_)" fill="#1F614B" cx="56.4" cy="56.401" r="16.449"/>
			<path clip-path="url(#SVGID_4_)" fill="#1F624C" d="M70.502,56.401c0,7.785-6.316,14.102-14.102,14.102
				s-14.102-6.316-14.102-14.102S48.615,42.299,56.4,42.299S70.502,48.616,70.502,56.401z"/>
			<circle clip-path="url(#SVGID_4_)" fill="#20634D" cx="56.4" cy="56.401" r="11.75"/>
			<circle clip-path="url(#SVGID_4_)" fill="#20644D" cx="56.4" cy="56.401" r="9.398"/>
			<circle clip-path="url(#SVGID_4_)" fill="#21654E" cx="56.4" cy="56.401" r="7.051"/>
			<circle clip-path="url(#SVGID_4_)" fill="#21664F" cx="56.4" cy="56.401" r="4.699"/>
			<circle clip-path="url(#SVGID_4_)" fill="#226750" cx="56.4" cy="56.401" r="2.352"/>
		</g>
	</g>
	<g>
		<path fill="#FFFFFF" d="M56.4,108.967c-28.985,0-52.567-23.581-52.567-52.567c0-28.985,23.582-52.567,52.567-52.567
			s52.566,23.582,52.566,52.567C108.967,85.386,85.386,108.967,56.4,108.967z M56.4,4.833C27.966,4.833,4.833,27.966,4.833,56.4
			s23.133,51.567,51.567,51.567c28.434,0,51.566-23.133,51.566-51.567S84.834,4.833,56.4,4.833z"/>
	</g>
	<g>
		<g>
			<path fill="#FFFFFF" d="M59.49,67.762h-6.24l-14.1-42.719h8.641l8.579,27.839l8.579-27.839h8.7L59.49,67.762z"/>
		</g>
	</g>
	<g>
		<g>
			<path fill="#FFFFFF" d="M34.221,88.267h-1.513l-4.213-12.819h2.017l2.953,9.326l2.953-9.326h2.053L34.221,88.267z"/>
		</g>
		<g>
			<path fill="#FFFFFF" d="M40.231,88.267V75.448h8.192v1.746h-6.248v3.745h5.33v1.729h-5.33v3.853h6.248v1.747H40.231z"/>
		</g>
		<g>
			<path fill="#FFFFFF" d="M58.756,86.917c-0.954,1.008-2.179,1.459-3.529,1.459c-1.405,0-2.485-0.469-3.313-1.297
				c-1.243-1.26-1.296-2.539-1.296-5.221c0-2.684,0.054-3.962,1.296-5.223c0.828-0.828,1.908-1.296,3.313-1.296
				c2.701,0,4.303,1.782,4.645,3.961h-1.944c-0.324-1.404-1.26-2.232-2.701-2.232c-0.774,0-1.422,0.288-1.909,0.792
				c-0.63,0.684-0.756,1.459-0.756,3.998c0,2.538,0.126,3.312,0.756,3.996c0.486,0.504,1.134,0.793,1.909,0.793
				c0.846,0,1.602-0.324,2.106-0.918c0.468-0.541,0.63-1.189,0.63-2.018v-0.72h-2.737v-1.657h4.681v1.963
				C59.908,84.972,59.602,85.999,58.756,86.917z"/>
		</g>
		<g>
			<path fill="#FFFFFF" d="M69.952,88.267l-0.882-2.575h-5.06l-0.882,2.575h-2.071l4.699-12.819h1.567l4.699,12.819H69.952z
				 M66.585,78.346l-1.999,5.689h3.943L66.585,78.346z"/>
		</g>
		<g>
			<path fill="#FFFFFF" d="M81.706,88.267l-5.924-9.021v9.021h-1.945V75.448h1.783l5.924,9.002v-9.002h1.944v12.819H81.706z"/>
		</g>
	</g>
</g>
<g>
	<g>
		<g>
			<defs>
				<circle id="SVGID_5_" cx="414.4" cy="56.4" r="56.4"/>
			</defs>
			<clipPath id="SVGID_6_">
				<use xlink:href="#SVGID_5_"  overflow="visible"/>
			</clipPath>
			<rect x="357.998" y="-0.001" clip-path="url(#SVGID_6_)" fill="#164F3C" width="112.805" height="112.805"/>
			<circle clip-path="url(#SVGID_6_)" fill="#164F3C" cx="414.4" cy="56.401" r="56.402"/>
			<circle clip-path="url(#SVGID_6_)" fill="#17503D" cx="414.4" cy="56.401" r="54.051"/>
			<circle clip-path="url(#SVGID_6_)" fill="#17513E" cx="414.4" cy="56.401" r="51.699"/>
			<circle clip-path="url(#SVGID_6_)" fill="#18523F" cx="414.4" cy="56.401" r="49.352"/>
			<circle clip-path="url(#SVGID_6_)" fill="#18533F" cx="414.4" cy="56.401" r="47"/>
			<circle clip-path="url(#SVGID_6_)" fill="#195440" cx="414.4" cy="56.401" r="44.652"/>
			<circle clip-path="url(#SVGID_6_)" fill="#195541" cx="414.4" cy="56.401" r="42.301"/>
			<circle clip-path="url(#SVGID_6_)" fill="#1A5642" cx="414.4" cy="56.401" r="39.949"/>
			<circle clip-path="url(#SVGID_6_)" fill="#1A5743" cx="414.4" cy="56.401" r="37.602"/>
			<circle clip-path="url(#SVGID_6_)" fill="#1B5844" cx="414.4" cy="56.401" r="35.25"/>
			<circle clip-path="url(#SVGID_6_)" fill="#1B5945" cx="414.4" cy="56.401" r="32.902"/>
			<circle clip-path="url(#SVGID_6_)" fill="#1C5A46" cx="414.4" cy="56.401" r="30.551"/>
			<circle clip-path="url(#SVGID_6_)" fill="#1C5C46" cx="414.4" cy="56.401" r="28.199"/>
			<circle clip-path="url(#SVGID_6_)" fill="#1D5D47" cx="414.4" cy="56.401" r="25.852"/>
			<circle clip-path="url(#SVGID_6_)" fill="#1D5E48" cx="414.4" cy="56.401" r="23.5"/>
			<circle clip-path="url(#SVGID_6_)" fill="#1E5F49" cx="414.4" cy="56.401" r="21.152"/>
			<circle clip-path="url(#SVGID_6_)" fill="#1E604A" cx="414.4" cy="56.401" r="18.801"/>
			<circle clip-path="url(#SVGID_6_)" fill="#1F614B" cx="414.4" cy="56.401" r="16.449"/>
			<path clip-path="url(#SVGID_6_)" fill="#1F624C" d="M428.502,56.401c0,7.785-6.316,14.102-14.102,14.102
				s-14.102-6.316-14.102-14.102s6.316-14.102,14.102-14.102S428.502,48.616,428.502,56.401z"/>
			<circle clip-path="url(#SVGID_6_)" fill="#20634D" cx="414.4" cy="56.401" r="11.75"/>
			<circle clip-path="url(#SVGID_6_)" fill="#20644D" cx="414.4" cy="56.401" r="9.398"/>
			<circle clip-path="url(#SVGID_6_)" fill="#21654E" cx="414.4" cy="56.401" r="7.051"/>
			<circle clip-path="url(#SVGID_6_)" fill="#21664F" cx="414.4" cy="56.401" r="4.699"/>
			<circle clip-path="url(#SVGID_6_)" fill="#226750" cx="414.4" cy="56.401" r="2.352"/>
		</g>
	</g>
	<g>
		<path fill="#FFFFFF" d="M414.4,108.967c-28.985,0-52.566-23.581-52.566-52.567c0-28.985,23.581-52.567,52.566-52.567
			s52.566,23.582,52.566,52.567C466.967,85.386,443.386,108.967,414.4,108.967z M414.4,4.833c-28.434,0-51.566,23.133-51.566,51.567
			s23.133,51.567,51.566,51.567s51.566-23.133,51.566-51.567S442.834,4.833,414.4,4.833z"/>
	</g>
	<g>
		<g>
			<path fill="#FFFFFF" d="M426.074,67.762l-10.98-19.44l-5.52,6.6v12.84h-8.34V25.043h8.34v18.599l15.06-18.599h10.14l-14.16,16.98
				l15.18,25.739H426.074z"/>
		</g>
	</g>
	<g>
		<g>
			<path fill="#FFFFFF" d="M389.753,88.267l-3.601-6.319l-2.161,2.592v3.728h-1.944V75.448h1.944v6.445l5.239-6.445h2.377
				l-4.159,5.023l4.591,7.796H389.753z"/>
		</g>
		<g>
			<path fill="#FFFFFF" d="M401.165,87.079c-0.829,0.828-1.909,1.297-3.313,1.297s-2.484-0.469-3.312-1.297
				c-1.261-1.26-1.297-2.539-1.297-5.221c0-2.684,0.036-3.962,1.297-5.223c0.828-0.828,1.908-1.296,3.312-1.296
				s2.484,0.468,3.313,1.296c1.261,1.261,1.296,2.539,1.296,5.223C402.461,84.54,402.426,85.819,401.165,87.079z M399.76,77.86
				c-0.485-0.504-1.134-0.792-1.908-0.792c-0.773,0-1.422,0.288-1.908,0.792c-0.631,0.684-0.756,1.459-0.756,3.998
				c0,2.538,0.125,3.295,0.756,3.979c0.486,0.504,1.135,0.811,1.908,0.811c0.774,0,1.423-0.307,1.908-0.811
				c0.648-0.666,0.757-1.44,0.757-3.979C400.517,79.319,400.408,78.526,399.76,77.86z"/>
		</g>
		<g>
			<path fill="#FFFFFF" d="M408.742,88.375c-1.928,0-3.295-0.451-4.538-1.693l1.278-1.277c0.937,0.936,1.999,1.242,3.295,1.242
				c1.693,0,2.646-0.721,2.646-1.98c0-0.576-0.144-1.027-0.504-1.333c-0.324-0.288-0.756-0.45-1.404-0.54l-1.512-0.217
				c-1.045-0.161-1.855-0.485-2.413-1.025c-0.63-0.576-0.954-1.404-0.954-2.467c0-2.232,1.62-3.745,4.285-3.745
				c1.711,0,2.881,0.433,3.979,1.458l-1.225,1.225c-0.791-0.756-1.729-0.99-2.826-0.99c-1.513,0-2.322,0.828-2.322,1.998
				c0,0.469,0.125,0.9,0.468,1.189c0.324,0.287,0.702,0.468,1.404,0.576l1.53,0.233c1.17,0.181,1.818,0.45,2.377,0.954
				c0.684,0.631,1.045,1.513,1.045,2.629C413.352,86.971,411.442,88.375,408.742,88.375z"/>
		</g>
		<g>
			<path fill="#FFFFFF" d="M423.107,88.267v-5.6h-5.204v5.6h-1.944V75.448h1.944v5.473h5.204v-5.473h1.943v12.819H423.107z"/>
		</g>
		<g>
			<path fill="#FFFFFF" d="M428.396,88.267V75.448h8.192v1.746h-6.247v3.745h5.329v1.729h-5.329v3.853h6.247v1.747H428.396z"/>
		</g>
		<g>
			<path fill="#FFFFFF" d="M446.326,88.267l-2.7-5.401h-2.431v5.401h-1.945V75.448h4.971c2.43,0,3.979,1.566,3.979,3.744
				c0,1.837-1.116,3.008-2.557,3.403l2.953,5.672H446.326z M444.076,77.194h-2.881v4.016h2.881c1.297,0,2.179-0.738,2.179-1.999
				S445.373,77.194,444.076,77.194z"/>
		</g>
	</g>
</g>
<g>
	<g>
		<g>
			<defs>
				<circle id="SVGID_7_" cx="235.4" cy="56.4" r="56.4"/>
			</defs>
			<clipPath id="SVGID_8_">
				<use xlink:href="#SVGID_7_"  overflow="visible"/>
			</clipPath>
			<rect x="178.998" y="-0.001" clip-path="url(#SVGID_8_)" fill="#164F3C" width="112.805" height="112.805"/>
			<circle clip-path="url(#SVGID_8_)" fill="#164F3C" cx="235.4" cy="56.401" r="56.402"/>
			<circle clip-path="url(#SVGID_8_)" fill="#17503D" cx="235.4" cy="56.401" r="54.051"/>
			<circle clip-path="url(#SVGID_8_)" fill="#17513E" cx="235.4" cy="56.401" r="51.699"/>
			<circle clip-path="url(#SVGID_8_)" fill="#18523F" cx="235.4" cy="56.401" r="49.352"/>
			<circle clip-path="url(#SVGID_8_)" fill="#18533F" cx="235.4" cy="56.401" r="47"/>
			<circle clip-path="url(#SVGID_8_)" fill="#195440" cx="235.4" cy="56.401" r="44.652"/>
			<circle clip-path="url(#SVGID_8_)" fill="#195541" cx="235.4" cy="56.401" r="42.301"/>
			<circle clip-path="url(#SVGID_8_)" fill="#1A5642" cx="235.4" cy="56.401" r="39.949"/>
			<circle clip-path="url(#SVGID_8_)" fill="#1A5743" cx="235.4" cy="56.401" r="37.602"/>
			<circle clip-path="url(#SVGID_8_)" fill="#1B5844" cx="235.4" cy="56.401" r="35.25"/>
			<circle clip-path="url(#SVGID_8_)" fill="#1B5945" cx="235.4" cy="56.401" r="32.902"/>
			<circle clip-path="url(#SVGID_8_)" fill="#1C5A46" cx="235.4" cy="56.401" r="30.551"/>
			<circle clip-path="url(#SVGID_8_)" fill="#1C5C46" cx="235.4" cy="56.401" r="28.199"/>
			<circle clip-path="url(#SVGID_8_)" fill="#1D5D47" cx="235.4" cy="56.401" r="25.852"/>
			<circle clip-path="url(#SVGID_8_)" fill="#1D5E48" cx="235.4" cy="56.401" r="23.5"/>
			<circle clip-path="url(#SVGID_8_)" fill="#1E5F49" cx="235.4" cy="56.401" r="21.152"/>
			<circle clip-path="url(#SVGID_8_)" fill="#1E604A" cx="235.4" cy="56.401" r="18.801"/>
			<circle clip-path="url(#SVGID_8_)" fill="#1F614B" cx="235.4" cy="56.401" r="16.449"/>
			<path clip-path="url(#SVGID_8_)" fill="#1F624C" d="M249.502,56.401c0,7.785-6.316,14.102-14.102,14.102
				s-14.102-6.316-14.102-14.102s6.316-14.102,14.102-14.102S249.502,48.616,249.502,56.401z"/>
			<circle clip-path="url(#SVGID_8_)" fill="#20634D" cx="235.4" cy="56.401" r="11.75"/>
			<circle clip-path="url(#SVGID_8_)" fill="#20644D" cx="235.4" cy="56.401" r="9.398"/>
			<circle clip-path="url(#SVGID_8_)" fill="#21654E" cx="235.4" cy="56.401" r="7.051"/>
			<circle clip-path="url(#SVGID_8_)" fill="#21664F" cx="235.4" cy="56.401" r="4.699"/>
			<circle clip-path="url(#SVGID_8_)" fill="#226750" cx="235.4" cy="56.401" r="2.352"/>
		</g>
	</g>
	<g>
		<path fill="#FFFFFF" d="M235.4,108.967c-28.985,0-52.566-23.581-52.566-52.567c0-28.985,23.581-52.567,52.566-52.567
			s52.566,23.582,52.566,52.567C287.967,85.386,264.386,108.967,235.4,108.967z M235.4,4.833c-28.434,0-51.566,23.133-51.566,51.567
			s23.133,51.567,51.566,51.567s51.566-23.133,51.566-51.567S263.834,4.833,235.4,4.833z"/>
	</g>
	<g>
		<g>
			<path fill="#FFFFFF" d="M231.486,62.051c-3.305,3.473-7,4.537-11.256,4.537c-4.537,0-7.896-1.513-10.641-4.201
				c-3.977-3.976-4.031-8.456-4.031-16.072c0-7.616,0.055-12.096,4.031-16.072c2.744-2.688,6.104-4.2,10.641-4.2
				c9.295,0,13.943,6.048,15.008,12.768h-7.84c-0.896-3.808-3.192-5.823-7.168-5.823c-2.129,0-3.809,0.839-4.984,2.128
				c-1.456,1.679-1.904,3.583-1.904,11.199c0,7.616,0.448,9.576,1.904,11.256c1.176,1.289,2.855,2.072,4.984,2.072
				c2.407,0,4.312-0.84,5.543-2.24c1.289-1.455,1.793-3.247,1.793-5.32v-1.456h-7.336v-6.552h15.063v5.824
				C235.294,55.667,234.398,59.028,231.486,62.051z"/>
		</g>
		<g>
			<path fill="#FFFFFF" d="M251.029,33.324v9.799h15.736v6.944h-15.736v16.184h-7.784V26.38h26.264v6.944H251.029z"/>
		</g>
	</g>
	<g>
		<g>
			<path fill="#FFFFFF" d="M215.312,82.006c-0.795,0.84-1.814,1.215-2.939,1.215c-1.17,0-2.07-0.391-2.76-1.08
				c-1.035-1.051-1.08-2.115-1.08-4.35c0-2.235,0.045-3.301,1.08-4.35c0.689-0.69,1.59-1.08,2.76-1.08
				c2.25,0,3.584,1.484,3.869,3.299h-1.619c-0.271-1.17-1.051-1.859-2.25-1.859c-0.646,0-1.186,0.24-1.59,0.66
				c-0.525,0.57-0.631,1.215-0.631,3.33c0,2.114,0.105,2.76,0.631,3.33c0.404,0.42,0.944,0.659,1.59,0.659
				c0.705,0,1.334-0.271,1.754-0.765c0.391-0.45,0.525-0.99,0.525-1.68v-0.601h-2.279v-1.38h3.899v1.635
				C216.272,80.385,216.018,81.241,215.312,82.006z"/>
		</g>
		<g>
			<path fill="#FFFFFF" d="M218.658,83.131v-10.68h1.619v9.225h5.145v1.455H218.658z"/>
		</g>
		<g>
			<path fill="#FFFFFF" d="M230.327,83.221c-2.175,0-3.825-1.485-3.825-3.689v-7.08h1.621v7.004c0,1.426,0.869,2.311,2.204,2.311
				s2.22-0.885,2.22-2.311v-7.004h1.62v7.08C234.167,81.736,232.502,83.221,230.327,83.221z"/>
		</g>
		<g>
			<path fill="#FFFFFF" d="M240.407,73.907v9.225h-1.62v-9.225h-2.939v-1.455h7.5v1.455H240.407z"/>
		</g>
		<g>
			<path fill="#FFFFFF" d="M245.192,83.131v-10.68h6.825v1.455h-5.205v3.119h4.439v1.439h-4.439v3.211h5.205v1.455H245.192z"/>
		</g>
		<g>
			<path fill="#FFFFFF" d="M260.792,83.131l-4.935-7.516v7.516h-1.62v-10.68h1.485l4.934,7.5v-7.5h1.621v10.68H260.792z"/>
		</g>
		<g>
			<path fill="#FFFFFF" d="M220.27,88.907v3.254h4.44v1.455h-4.44v4.516h-1.619v-10.68h6.824v1.455H220.27z"/>
		</g>
		<g>
			<path fill="#FFFFFF" d="M233.32,98.131l-2.25-4.5h-2.025v4.5h-1.619v-10.68h4.139c2.025,0,3.315,1.305,3.315,3.119
				c0,1.53-0.93,2.506-2.13,2.836l2.46,4.725H233.32z M231.445,88.907h-2.4v3.344h2.4c1.08,0,1.814-0.614,1.814-1.664
				C233.26,89.536,232.525,88.907,231.445,88.907z"/>
		</g>
		<g>
			<path fill="#FFFFFF" d="M237.25,98.131v-10.68h6.825v1.455h-5.205v3.119h4.44v1.439h-4.44v3.211h5.205v1.455H237.25z"/>
		</g>
		<g>
			<path fill="#FFFFFF" d="M246.295,98.131v-10.68h6.825v1.455h-5.205v3.119h4.44v1.439h-4.44v3.211h5.205v1.455H246.295z"/>
		</g>
	</g>
</g>
</svg>
