<?xml version="1.0" encoding="utf-8"?>
<!-- Generator: Adobe Illustrator 16.0.0, SVG Export Plug-In . SVG Version: 6.00 Build 0)  -->
<!DOCTYPE svg PUBLIC "-//W3C//DTD SVG 1.1//EN" "http://www.w3.org/Graphics/SVG/1.1/DTD/svg11.dtd">
<svg version="1.1" id="Layer_1" xmlns="http://www.w3.org/2000/svg" xmlns:xlink="http://www.w3.org/1999/xlink" x="0px" y="0px"
	 width="112.805px" height="112.805px" viewBox="0 0 112.805 112.805" enable-background="new 0 0 112.805 112.805"
	 xml:space="preserve">
<g>
	<g>
		<g>
			<g>
				<g>
					<defs>
						<circle id="SVGID_1_" cx="56.403" cy="56.403" r="56.434"/>
					</defs>
					<clipPath id="SVGID_2_">
						<use xlink:href="#SVGID_1_"  overflow="visible"/>
					</clipPath>
					<rect x="-0.033" y="-0.033" clip-path="url(#SVGID_2_)" fill="#17503C" width="112.871" height="112.872"/>
					<circle clip-path="url(#SVGID_2_)" fill="#17503C" cx="56.403" cy="56.403" r="56.436"/>
					<circle clip-path="url(#SVGID_2_)" fill="#17503D" cx="56.403" cy="56.403" r="54.083"/>
					<circle clip-path="url(#SVGID_2_)" fill="#18523E" cx="56.403" cy="56.403" r="51.73"/>
					<circle clip-path="url(#SVGID_2_)" fill="#195340" cx="56.402" cy="56.403" r="49.38"/>
					<circle clip-path="url(#SVGID_2_)" fill="#1A5440" cx="56.403" cy="56.403" r="47.028"/>
					<circle clip-path="url(#SVGID_2_)" fill="#1A5440" cx="56.403" cy="56.403" r="44.679"/>
					<circle clip-path="url(#SVGID_2_)" fill="#1B5642" cx="56.403" cy="56.403" r="42.326"/>
					<circle clip-path="url(#SVGID_2_)" fill="#1B5643" cx="56.402" cy="56.403" r="39.973"/>
					<circle clip-path="url(#SVGID_2_)" fill="#1B5844" cx="56.403" cy="56.403" r="37.624"/>
					<circle clip-path="url(#SVGID_2_)" fill="#1A5944" cx="56.403" cy="56.403" r="35.271"/>
					<circle clip-path="url(#SVGID_2_)" fill="#1B5945" cx="56.402" cy="56.403" r="32.921"/>
					<path clip-path="url(#SVGID_2_)" fill="#1D5A46" d="M86.971,56.403c0,16.882-13.688,30.569-30.568,30.569
						c-16.88,0-30.569-13.688-30.569-30.569c0-16.881,13.689-30.568,30.569-30.568C73.283,25.834,86.971,39.522,86.971,56.403z"/>
					<circle clip-path="url(#SVGID_2_)" fill="#1E5D47" cx="56.402" cy="56.403" r="28.215"/>
					<circle clip-path="url(#SVGID_2_)" fill="#1E5D47" cx="56.403" cy="56.403" r="25.867"/>
					<circle clip-path="url(#SVGID_2_)" fill="#1E5F49" cx="56.403" cy="56.403" r="23.514"/>
					<path clip-path="url(#SVGID_2_)" fill="#215F49" d="M77.568,56.403c0,11.686-9.479,21.165-21.165,21.165
						c-11.688,0-21.165-9.479-21.165-21.165c0-11.687,9.478-21.165,21.165-21.165C68.089,35.238,77.568,44.716,77.568,56.403z"/>
					<circle clip-path="url(#SVGID_2_)" fill="#21614A" cx="56.403" cy="56.403" r="18.812"/>
					<circle clip-path="url(#SVGID_2_)" fill="#22614C" cx="56.403" cy="56.403" r="16.459"/>
					<path clip-path="url(#SVGID_2_)" fill="#22634D" d="M70.512,56.403c0,7.79-6.32,14.109-14.109,14.109
						c-7.79,0-14.11-6.319-14.11-14.109c0-7.789,6.32-14.109,14.11-14.109C64.192,42.293,70.512,48.614,70.512,56.403z"/>
					<circle clip-path="url(#SVGID_2_)" fill="#22644D" cx="56.403" cy="56.403" r="11.757"/>
					<circle clip-path="url(#SVGID_2_)" fill="#22654E" cx="56.402" cy="56.403" r="9.404"/>
					<circle clip-path="url(#SVGID_2_)" fill="#23654E" cx="56.403" cy="56.403" r="7.055"/>
					<circle clip-path="url(#SVGID_2_)" fill="#236750" cx="56.403" cy="56.403" r="4.702"/>
					<circle clip-path="url(#SVGID_2_)" fill="#246851" cx="56.402" cy="56.403" r="2.353"/>
				</g>
			</g>
			<g>
				<path fill="#F1F1F2" d="M56.403,109.001c-29.003,0-52.597-23.597-52.597-52.599C3.806,27.4,27.4,3.805,56.403,3.805
					C85.405,3.805,109,27.4,109,56.403C109,85.405,85.405,109.001,56.403,109.001z M56.403,4.805
					c-28.45,0-51.598,23.146-51.598,51.598C4.805,84.853,27.952,108,56.403,108C84.852,108,108,84.853,108,56.403
					C108,27.951,84.852,4.805,56.403,4.805z"/>
			</g>
		</g>
	</g>
	<g>
		<radialGradient id="SVGID_3_" cx="56.9553" cy="40.531" r="64.4348" gradientUnits="userSpaceOnUse">
			<stop  offset="0" style="stop-color:#FFFFFF"/>
			<stop  offset="1" style="stop-color:#F1F1F2"/>
		</radialGradient>
		<path fill="url(#SVGID_3_)" d="M56.403,4.805C84.852,4.805,108,27.952,108,56.403H4.805C4.805,27.952,27.952,4.805,56.403,4.805z"
			/>
	</g>
	<g>
		<path fill="#1A5440" d="M29.42,49.265c-4.554,0-8.17-3.087-8.17-7.796V26.874h4.334v14.438c0,2.557,1.497,4.086,3.836,4.086
			c2.34,0,3.867-1.529,3.867-4.086V26.874h4.305v14.595C37.592,46.178,33.973,49.265,29.42,49.265z"/>
		<path fill="#1A5440" d="M47.536,49.265c-3.367,0-5.926-0.717-8.108-2.932l2.808-2.806c1.402,1.402,3.305,1.871,5.332,1.871
			c2.588,0,3.96-0.999,3.96-2.776c0-0.748-0.218-1.372-0.686-1.84c-0.437-0.405-0.874-0.592-1.996-0.747l-2.65-0.406
			c-1.965-0.281-3.307-0.874-4.304-1.84c-1.061-1.029-1.591-2.495-1.591-4.366c0-3.962,2.932-6.737,7.734-6.737
			c3.057,0,5.271,0.749,7.173,2.589l-2.744,2.713c-1.372-1.34-3.088-1.526-4.554-1.526c-2.308,0-3.399,1.277-3.399,2.806
			c0,0.592,0.156,1.154,0.624,1.591c0.437,0.405,1.092,0.716,2.027,0.842l2.65,0.405c2.027,0.28,3.274,0.811,4.242,1.746
			c1.185,1.092,1.714,2.683,1.714,4.679C55.769,46.832,52.214,49.265,47.536,49.265z"/>
		<path fill="#1A5440" d="M73.353,45.835c-1.591,2.214-3.681,3.243-6.706,3.243h-8.015V26.874h8.015
			c3.025,0,5.115,1.029,6.706,3.243c1.371,1.902,1.403,4.178,1.403,7.859C74.756,41.656,74.724,43.932,73.353,45.835z
			 M69.516,32.113c-0.717-0.903-1.778-1.372-3.243-1.372h-3.307v14.471h3.307c1.465,0,2.526-0.469,3.243-1.372
			c0.811-0.966,0.903-2.37,0.903-5.862C70.419,34.483,70.326,33.08,69.516,32.113z"/>
		<path fill="#1A5440" d="M90.591,49.078l-1.31-3.93h-7.891l-1.341,3.93h-4.522l8.079-22.204h3.397l8.109,22.204H90.591z
			 M85.414,33.423l-2.807,8.076h5.52L85.414,33.423z"/>
	</g>
	<g>
		<path fill="#FFFFFF" d="M29.453,75.462c-0.803,0.804-1.853,1.257-3.215,1.257c-1.364,0-2.412-0.453-3.217-1.257
			c-1.223-1.224-1.257-2.465-1.257-5.067c0-2.606,0.034-3.846,1.257-5.07c0.805-0.804,1.853-1.258,3.217-1.258
			c1.362,0,2.412,0.454,3.215,1.258c1.225,1.225,1.26,2.464,1.26,5.07C30.713,72.997,30.678,74.239,29.453,75.462z M28.09,66.514
			c-0.471-0.491-1.101-0.77-1.852-0.77c-0.752,0-1.381,0.278-1.854,0.77c-0.611,0.663-0.733,1.415-0.733,3.881
			c0,2.464,0.122,3.198,0.733,3.861c0.473,0.489,1.102,0.787,1.854,0.787c0.751,0,1.381-0.298,1.852-0.787
			c0.63-0.647,0.735-1.397,0.735-3.861C28.825,67.929,28.72,67.16,28.09,66.514z"/>
		<path fill="#FFFFFF" d="M39.945,76.616l-2.621-5.244h-2.359v5.244h-1.889V64.171H37.9c2.36,0,3.863,1.521,3.863,3.636
			c0,1.782-1.084,2.919-2.482,3.304l2.866,5.506H39.945z M37.76,65.866h-2.796v3.896h2.796c1.258,0,2.115-0.716,2.115-1.939
			C39.875,66.601,39.018,65.866,37.76,65.866z"/>
		<path fill="#FFFFFF" d="M51.623,75.304c-0.926,0.979-2.114,1.415-3.425,1.415c-1.363,0-2.412-0.453-3.216-1.257
			c-1.206-1.224-1.259-2.465-1.259-5.067c0-2.606,0.053-3.846,1.259-5.07c0.804-0.804,1.853-1.258,3.216-1.258
			c2.621,0,4.177,1.729,4.509,3.845H50.82c-0.314-1.362-1.224-2.167-2.621-2.167c-0.752,0-1.381,0.278-1.853,0.77
			c-0.611,0.663-0.734,1.415-0.734,3.881c0,2.464,0.123,3.214,0.734,3.879c0.472,0.489,1.101,0.77,1.853,0.77
			c0.822,0,1.556-0.314,2.045-0.892c0.454-0.524,0.612-1.154,0.612-1.957v-0.7h-2.657v-1.607h4.544v1.904
			C52.742,73.418,52.447,74.413,51.623,75.304z"/>
		<path fill="#FFFFFF" d="M62.278,76.616l-0.856-2.5h-4.912l-0.854,2.5h-2.011l4.562-12.445h1.521l4.562,12.445H62.278z
			 M59.01,66.985l-1.941,5.523h3.828L59.01,66.985z"/>
		<path fill="#FFFFFF" d="M73.653,76.616l-5.75-8.757v8.757h-1.889V64.171h1.731l5.75,8.738v-8.738h1.888v12.445H73.653z"/>
		<path fill="#FFFFFF" d="M78.117,76.616V64.171h1.889v12.445H78.117z"/>
		<path fill="#FFFFFF" d="M86.853,76.719c-1.364,0-2.413-0.453-3.217-1.257c-1.206-1.224-1.258-2.465-1.258-5.067
			c0-2.606,0.052-3.846,1.258-5.07c0.804-0.804,1.853-1.258,3.217-1.258c2.289,0,4.002,1.363,4.438,3.828h-1.923
			c-0.278-1.275-1.136-2.15-2.516-2.15c-0.752,0-1.382,0.278-1.836,0.77c-0.628,0.663-0.752,1.415-0.752,3.881
			c0,2.464,0.124,3.214,0.752,3.879c0.454,0.489,1.084,0.77,1.836,0.77c1.38,0,2.253-0.873,2.551-2.15h1.888
			C90.855,75.357,89.124,76.719,86.853,76.719z"/>
	</g>
</g>
</svg>
