<?xml version="1.0" encoding="utf-8"?>
<!-- Generator: Adobe Illustrator 16.0.0, SVG Export Plug-In . SVG Version: 6.00 Build 0)  -->
<!DOCTYPE svg PUBLIC "-//W3C//DTD SVG 1.1//EN" "http://www.w3.org/Graphics/SVG/1.1/DTD/svg11.dtd">
<svg version="1.1" id="Layer_1" xmlns="http://www.w3.org/2000/svg" xmlns:xlink="http://www.w3.org/1999/xlink" x="0px" y="0px"
	 width="112.805px" height="112.805px" viewBox="0 0 112.805 112.805" enable-background="new 0 0 112.805 112.805"
	 xml:space="preserve">
<g>
	<g>
		<g>
			<defs>
				<circle id="SVGID_1_" cx="56.403" cy="56.403" r="56.222"/>
			</defs>
			<clipPath id="SVGID_2_">
				<use xlink:href="#SVGID_1_"  overflow="visible"/>
			</clipPath>
			<rect x="0.178" y="0.179" clip-path="url(#SVGID_2_)" fill="#17503C" width="112.449" height="112.447"/>
			<path clip-path="url(#SVGID_2_)" fill="#17503C" d="M112.627,56.403c0,31.05-25.176,56.224-56.225,56.224
				c-31.05,0-56.224-25.174-56.224-56.224S25.353,0.179,56.403,0.179C87.451,0.179,112.627,25.353,112.627,56.403z"/>
			<circle clip-path="url(#SVGID_2_)" fill="#17503D" cx="56.402" cy="56.403" r="53.879"/>
			<circle clip-path="url(#SVGID_2_)" fill="#18523E" cx="56.402" cy="56.403" r="51.536"/>
			<path clip-path="url(#SVGID_2_)" fill="#195340" d="M105.598,56.403c0,27.167-22.027,49.196-49.195,49.196
				c-27.167,0-49.195-22.029-49.195-49.196c0-27.168,22.027-49.195,49.195-49.195C83.571,7.208,105.598,29.235,105.598,56.403z"/>
			<circle clip-path="url(#SVGID_2_)" fill="#1A5440" cx="56.402" cy="56.403" r="46.852"/>
			<circle clip-path="url(#SVGID_2_)" fill="#1A5440" cx="56.403" cy="56.403" r="44.511"/>
			<circle clip-path="url(#SVGID_2_)" fill="#1B5642" cx="56.402" cy="56.403" r="42.167"/>
			<circle clip-path="url(#SVGID_2_)" fill="#1B5643" cx="56.402" cy="56.403" r="39.823"/>
			<circle clip-path="url(#SVGID_2_)" fill="#1B5844" cx="56.402" cy="56.403" r="37.483"/>
			<circle clip-path="url(#SVGID_2_)" fill="#1A5944" cx="56.402" cy="56.403" r="35.137"/>
			<circle clip-path="url(#SVGID_2_)" fill="#1B5945" cx="56.403" cy="56.403" r="32.798"/>
			<path clip-path="url(#SVGID_2_)" fill="#1D5A46" d="M86.858,56.403c0,16.816-13.639,30.453-30.455,30.453
				c-16.818,0-30.454-13.637-30.454-30.453c0-16.818,13.636-30.454,30.454-30.454C73.219,25.948,86.858,39.585,86.858,56.403z"/>
			<circle clip-path="url(#SVGID_2_)" fill="#1E5D47" cx="56.402" cy="56.403" r="28.11"/>
			<circle clip-path="url(#SVGID_2_)" fill="#1E5D47" cx="56.403" cy="56.403" r="25.769"/>
			<path clip-path="url(#SVGID_2_)" fill="#1E5F49" d="M79.828,56.403c0,12.94-10.486,23.425-23.426,23.425
				c-12.939,0-23.427-10.484-23.427-23.425c0-12.938,10.488-23.426,23.427-23.426C69.342,32.977,79.828,43.464,79.828,56.403z"/>
			<circle clip-path="url(#SVGID_2_)" fill="#215F49" cx="56.402" cy="56.403" r="21.085"/>
			<circle clip-path="url(#SVGID_2_)" fill="#21614A" cx="56.403" cy="56.403" r="18.742"/>
			<circle clip-path="url(#SVGID_2_)" fill="#22614C" cx="56.402" cy="56.403" r="16.397"/>
			<path clip-path="url(#SVGID_2_)" fill="#22634D" d="M70.459,56.403c0,7.76-6.297,14.057-14.057,14.057
				c-7.76,0-14.058-6.297-14.058-14.057c0-7.761,6.297-14.057,14.058-14.057C64.162,42.346,70.459,48.641,70.459,56.403z"/>
			<circle clip-path="url(#SVGID_2_)" fill="#22644D" cx="56.403" cy="56.403" r="11.713"/>
			<circle clip-path="url(#SVGID_2_)" fill="#22654E" cx="56.403" cy="56.403" r="9.369"/>
			<circle clip-path="url(#SVGID_2_)" fill="#23654E" cx="56.403" cy="56.403" r="7.029"/>
			<path clip-path="url(#SVGID_2_)" fill="#236750" d="M61.086,56.403c0,2.59-2.094,4.685-4.684,4.685
				c-2.589,0-4.684-2.095-4.684-4.685c0-2.589,2.094-4.684,4.684-4.684C58.992,51.719,61.086,53.814,61.086,56.403z"/>
			<path clip-path="url(#SVGID_2_)" fill="#246851" d="M58.746,56.403c0,1.293-1.051,2.345-2.344,2.345
				c-1.292,0-2.345-1.052-2.345-2.345c0-1.293,1.053-2.344,2.345-2.344C57.696,54.059,58.746,55.109,58.746,56.403z"/>
		</g>
	</g>
	<g>
		<path fill="#FFFFFF" d="M56.403,108.802c-28.894,0-52.4-23.507-52.4-52.399c0-28.895,23.506-52.401,52.4-52.401
			c28.893,0,52.4,23.506,52.4,52.401C108.803,85.295,85.295,108.802,56.403,108.802z M56.403,4.999C28.06,4.999,5,28.058,5,56.403
			c0,28.344,23.06,51.403,51.402,51.403c28.344,0,51.404-23.06,51.404-51.403C107.807,28.058,84.746,4.999,56.403,4.999z"/>
	</g>
	<g>
		<g>
			<path fill="#FFFFFF" d="M68.039,67.728L57.094,48.35l-5.502,6.58v12.798h-8.315V25.145h8.315v18.54l15.01-18.54h10.109
				L62.596,42.071l15.131,25.657H68.039z"/>
		</g>
	</g>
	<g>
		<g>
			<path fill="#FFFFFF" d="M31.834,88.167l-3.589-6.298l-2.155,2.582v3.716h-1.938V75.388h1.938v6.427l5.222-6.427h2.37
				l-4.147,5.008l4.577,7.771H31.834z"/>
		</g>
		<g>
			<path fill="#FFFFFF" d="M43.211,86.984c-0.829,0.825-1.905,1.292-3.305,1.292c-1.399,0-2.477-0.467-3.302-1.292
				c-1.256-1.256-1.292-2.532-1.292-5.205c0-2.675,0.036-3.949,1.292-5.205c0.825-0.828,1.903-1.293,3.302-1.293
				c1.4,0,2.477,0.465,3.305,1.293c1.255,1.256,1.29,2.53,1.29,5.205C44.501,84.451,44.466,85.728,43.211,86.984z M41.809,77.793
				c-0.483-0.502-1.132-0.79-1.903-0.79c-0.771,0-1.417,0.288-1.901,0.79c-0.63,0.681-0.753,1.455-0.753,3.985
				s0.124,3.285,0.753,3.967c0.485,0.503,1.13,0.807,1.901,0.807c0.771,0,1.42-0.304,1.903-0.807
				c0.646-0.665,0.754-1.437,0.754-3.967S42.454,78.458,41.809,77.793z"/>
		</g>
		<g>
			<path fill="#FFFFFF" d="M50.762,88.276c-1.921,0-3.286-0.449-4.524-1.688l1.275-1.273c0.933,0.934,1.993,1.237,3.285,1.237
				c1.687,0,2.637-0.717,2.637-1.973c0-0.575-0.143-1.025-0.503-1.331c-0.322-0.286-0.752-0.448-1.398-0.536l-1.507-0.217
				c-1.042-0.161-1.851-0.484-2.406-1.021c-0.627-0.575-0.951-1.4-0.951-2.46c0-2.225,1.617-3.733,4.272-3.733
				c1.706,0,2.873,0.432,3.967,1.453l-1.22,1.221c-0.79-0.753-1.724-0.987-2.818-0.987c-1.508,0-2.315,0.826-2.315,1.993
				c0,0.466,0.125,0.897,0.466,1.187c0.323,0.285,0.699,0.465,1.399,0.572l1.526,0.233c1.166,0.18,1.814,0.448,2.369,0.95
				c0.682,0.63,1.042,1.507,1.042,2.622C55.356,86.875,53.455,88.276,50.762,88.276z"/>
		</g>
		<g>
			<path fill="#FFFFFF" d="M65.082,88.167v-5.581h-5.188v5.581h-1.938V75.388h1.938v5.456h5.188v-5.456h1.938v12.779H65.082z"/>
		</g>
		<g>
			<path fill="#FFFFFF" d="M70.354,88.167V75.388h8.168v1.741h-6.227v3.734h5.312v1.723h-5.312v3.84h6.227v1.741H70.354z"/>
		</g>
		<g>
			<path fill="#FFFFFF" d="M88.227,88.167l-2.691-5.385h-2.422v5.385h-1.939V75.388h4.955c2.422,0,3.965,1.562,3.965,3.732
				c0,1.832-1.111,2.998-2.547,3.394l2.943,5.653H88.227z M85.983,77.129h-2.869v4.003h2.869c1.295,0,2.174-0.736,2.174-1.992
				C88.156,77.883,87.278,77.129,85.983,77.129z"/>
		</g>
	</g>
</g>
</svg>
