<?xml version="1.0" encoding="utf-8"?>
<!-- Generator: Adobe Illustrator 16.0.0, SVG Export Plug-In . SVG Version: 6.00 Build 0)  -->
<!DOCTYPE svg PUBLIC "-//W3C//DTD SVG 1.1//EN" "http://www.w3.org/Graphics/SVG/1.1/DTD/svg11.dtd">
<svg version="1.1" id="Layer_1" xmlns="http://www.w3.org/2000/svg" xmlns:xlink="http://www.w3.org/1999/xlink" x="0px" y="0px"
	 width="112.801px" height="112.801px" viewBox="0 0 112.801 112.801" enable-background="new 0 0 112.801 112.801"
	 xml:space="preserve">
<g>
	<g>
		<g>
			<g>
				<defs>
					<circle id="SVGID_1_" cx="225.4" cy="56.4" r="56.4"/>
				</defs>
				<clipPath id="SVGID_2_">
					<use xlink:href="#SVGID_1_"  overflow="visible"/>
				</clipPath>
				<rect x="168.998" y="-0.001" clip-path="url(#SVGID_2_)" fill="#164F3C" width="112.805" height="112.806"/>
			</g>
			<g>
				<defs>
					<circle id="SVGID_3_" cx="225.4" cy="56.4" r="56.4"/>
				</defs>
				<clipPath id="SVGID_4_">
					<use xlink:href="#SVGID_3_"  overflow="visible"/>
				</clipPath>
				<circle clip-path="url(#SVGID_4_)" fill="#164F3C" cx="225.4" cy="56.401" r="56.402"/>
			</g>
			<g>
				<defs>
					<circle id="SVGID_5_" cx="225.4" cy="56.4" r="56.4"/>
				</defs>
				<clipPath id="SVGID_6_">
					<use xlink:href="#SVGID_5_"  overflow="visible"/>
				</clipPath>
				<circle clip-path="url(#SVGID_6_)" fill="#17503D" cx="225.4" cy="56.401" r="54.051"/>
			</g>
			<g>
				<defs>
					<circle id="SVGID_7_" cx="225.4" cy="56.4" r="56.4"/>
				</defs>
				<clipPath id="SVGID_8_">
					<use xlink:href="#SVGID_7_"  overflow="visible"/>
				</clipPath>
				<circle clip-path="url(#SVGID_8_)" fill="#17513E" cx="225.4" cy="56.401" r="51.699"/>
			</g>
			<g>
				<defs>
					<circle id="SVGID_9_" cx="225.4" cy="56.4" r="56.4"/>
				</defs>
				<clipPath id="SVGID_10_">
					<use xlink:href="#SVGID_9_"  overflow="visible"/>
				</clipPath>
				<circle clip-path="url(#SVGID_10_)" fill="#18523F" cx="225.4" cy="56.401" r="49.352"/>
			</g>
			<g>
				<defs>
					<circle id="SVGID_11_" cx="225.4" cy="56.4" r="56.4"/>
				</defs>
				<clipPath id="SVGID_12_">
					<use xlink:href="#SVGID_11_"  overflow="visible"/>
				</clipPath>
				<circle clip-path="url(#SVGID_12_)" fill="#18533F" cx="225.4" cy="56.401" r="47"/>
			</g>
			<g>
				<defs>
					<circle id="SVGID_13_" cx="225.4" cy="56.4" r="56.4"/>
				</defs>
				<clipPath id="SVGID_14_">
					<use xlink:href="#SVGID_13_"  overflow="visible"/>
				</clipPath>
				<circle clip-path="url(#SVGID_14_)" fill="#195440" cx="225.4" cy="56.401" r="44.652"/>
			</g>
			<g>
				<defs>
					<circle id="SVGID_15_" cx="225.4" cy="56.4" r="56.4"/>
				</defs>
				<clipPath id="SVGID_16_">
					<use xlink:href="#SVGID_15_"  overflow="visible"/>
				</clipPath>
				<circle clip-path="url(#SVGID_16_)" fill="#195541" cx="225.4" cy="56.401" r="42.301"/>
			</g>
			<g>
				<defs>
					<circle id="SVGID_17_" cx="225.4" cy="56.4" r="56.4"/>
				</defs>
				<clipPath id="SVGID_18_">
					<use xlink:href="#SVGID_17_"  overflow="visible"/>
				</clipPath>
				<circle clip-path="url(#SVGID_18_)" fill="#1A5642" cx="225.4" cy="56.401" r="39.949"/>
			</g>
			<g>
				<defs>
					<circle id="SVGID_19_" cx="225.4" cy="56.4" r="56.4"/>
				</defs>
				<clipPath id="SVGID_20_">
					<use xlink:href="#SVGID_19_"  overflow="visible"/>
				</clipPath>
				<circle clip-path="url(#SVGID_20_)" fill="#1A5743" cx="225.4" cy="56.401" r="37.602"/>
			</g>
			<g>
				<defs>
					<circle id="SVGID_21_" cx="225.4" cy="56.4" r="56.4"/>
				</defs>
				<clipPath id="SVGID_22_">
					<use xlink:href="#SVGID_21_"  overflow="visible"/>
				</clipPath>
				<circle clip-path="url(#SVGID_22_)" fill="#1B5844" cx="225.4" cy="56.401" r="35.25"/>
			</g>
			<g>
				<defs>
					<circle id="SVGID_23_" cx="225.4" cy="56.4" r="56.4"/>
				</defs>
				<clipPath id="SVGID_24_">
					<use xlink:href="#SVGID_23_"  overflow="visible"/>
				</clipPath>
				<circle clip-path="url(#SVGID_24_)" fill="#1B5945" cx="225.4" cy="56.401" r="32.902"/>
			</g>
			<g>
				<defs>
					<circle id="SVGID_25_" cx="225.4" cy="56.4" r="56.4"/>
				</defs>
				<clipPath id="SVGID_26_">
					<use xlink:href="#SVGID_25_"  overflow="visible"/>
				</clipPath>
				<circle clip-path="url(#SVGID_26_)" fill="#1C5A46" cx="225.4" cy="56.401" r="30.551"/>
			</g>
			<g>
				<defs>
					<circle id="SVGID_27_" cx="225.4" cy="56.4" r="56.4"/>
				</defs>
				<clipPath id="SVGID_28_">
					<use xlink:href="#SVGID_27_"  overflow="visible"/>
				</clipPath>
				<circle clip-path="url(#SVGID_28_)" fill="#1C5C46" cx="225.4" cy="56.401" r="28.199"/>
			</g>
			<g>
				<defs>
					<circle id="SVGID_29_" cx="225.4" cy="56.4" r="56.4"/>
				</defs>
				<clipPath id="SVGID_30_">
					<use xlink:href="#SVGID_29_"  overflow="visible"/>
				</clipPath>
				<circle clip-path="url(#SVGID_30_)" fill="#1D5D47" cx="225.4" cy="56.401" r="25.852"/>
			</g>
			<g>
				<defs>
					<circle id="SVGID_31_" cx="225.4" cy="56.4" r="56.4"/>
				</defs>
				<clipPath id="SVGID_32_">
					<use xlink:href="#SVGID_31_"  overflow="visible"/>
				</clipPath>
				<circle clip-path="url(#SVGID_32_)" fill="#1D5E48" cx="225.4" cy="56.401" r="23.5"/>
			</g>
			<g>
				<defs>
					<circle id="SVGID_33_" cx="225.4" cy="56.4" r="56.4"/>
				</defs>
				<clipPath id="SVGID_34_">
					<use xlink:href="#SVGID_33_"  overflow="visible"/>
				</clipPath>
				<circle clip-path="url(#SVGID_34_)" fill="#1E5F49" cx="225.4" cy="56.401" r="21.152"/>
			</g>
			<g>
				<defs>
					<circle id="SVGID_35_" cx="225.4" cy="56.4" r="56.4"/>
				</defs>
				<clipPath id="SVGID_36_">
					<use xlink:href="#SVGID_35_"  overflow="visible"/>
				</clipPath>
				<circle clip-path="url(#SVGID_36_)" fill="#1E604A" cx="225.4" cy="56.401" r="18.801"/>
			</g>
			<g>
				<defs>
					<circle id="SVGID_37_" cx="225.4" cy="56.4" r="56.4"/>
				</defs>
				<clipPath id="SVGID_38_">
					<use xlink:href="#SVGID_37_"  overflow="visible"/>
				</clipPath>
				<circle clip-path="url(#SVGID_38_)" fill="#1F614B" cx="225.4" cy="56.401" r="16.449"/>
			</g>
			<g>
				<defs>
					<circle id="SVGID_39_" cx="225.4" cy="56.4" r="56.4"/>
				</defs>
				<clipPath id="SVGID_40_">
					<use xlink:href="#SVGID_39_"  overflow="visible"/>
				</clipPath>
				<path clip-path="url(#SVGID_40_)" fill="#1F624C" d="M239.502,56.401c0,7.785-6.316,14.102-14.102,14.102
					c-7.787,0-14.103-6.315-14.103-14.102c0-7.786,6.315-14.102,14.103-14.102C233.186,42.299,239.502,48.616,239.502,56.401z"/>
			</g>
			<g>
				<defs>
					<circle id="SVGID_41_" cx="225.4" cy="56.4" r="56.4"/>
				</defs>
				<clipPath id="SVGID_42_">
					<use xlink:href="#SVGID_41_"  overflow="visible"/>
				</clipPath>
				<circle clip-path="url(#SVGID_42_)" fill="#20634D" cx="225.4" cy="56.401" r="11.75"/>
			</g>
			<g>
				<defs>
					<circle id="SVGID_43_" cx="225.4" cy="56.4" r="56.4"/>
				</defs>
				<clipPath id="SVGID_44_">
					<use xlink:href="#SVGID_43_"  overflow="visible"/>
				</clipPath>
				<circle clip-path="url(#SVGID_44_)" fill="#20644D" cx="225.4" cy="56.401" r="9.398"/>
			</g>
			<g>
				<defs>
					<circle id="SVGID_45_" cx="225.4" cy="56.4" r="56.4"/>
				</defs>
				<clipPath id="SVGID_46_">
					<use xlink:href="#SVGID_45_"  overflow="visible"/>
				</clipPath>
				<circle clip-path="url(#SVGID_46_)" fill="#21654E" cx="225.4" cy="56.401" r="7.051"/>
			</g>
			<g>
				<defs>
					<circle id="SVGID_47_" cx="225.4" cy="56.4" r="56.4"/>
				</defs>
				<clipPath id="SVGID_48_">
					<use xlink:href="#SVGID_47_"  overflow="visible"/>
				</clipPath>
				<circle clip-path="url(#SVGID_48_)" fill="#21664F" cx="225.4" cy="56.401" r="4.699"/>
			</g>
			<g>
				<defs>
					<circle id="SVGID_49_" cx="225.4" cy="56.4" r="56.4"/>
				</defs>
				<clipPath id="SVGID_50_">
					<use xlink:href="#SVGID_49_"  overflow="visible"/>
				</clipPath>
				<circle clip-path="url(#SVGID_50_)" fill="#226750" cx="225.4" cy="56.401" r="2.352"/>
			</g>
		</g>
	</g>
	<g>
		<path fill="#FFFFFF" d="M225.4,108.967c-28.985,0-52.567-23.581-52.567-52.567c0-28.985,23.582-52.567,52.567-52.567
			c28.984,0,52.565,23.582,52.565,52.567C277.967,85.386,254.387,108.967,225.4,108.967z M225.4,4.833
			c-28.435,0-51.567,23.133-51.567,51.567s23.133,51.567,51.567,51.567c28.434,0,51.565-23.133,51.565-51.567
			S253.834,4.833,225.4,4.833z"/>
	</g>
	<g>
		<g>
			<path fill="#FFFFFF" d="M228.49,67.762h-6.24l-14.1-42.719h8.641l8.579,27.839l8.579-27.839h8.699L228.49,67.762z"/>
		</g>
	</g>
	<g>
		<g>
			<path fill="#FFFFFF" d="M203.221,88.268h-1.513l-4.213-12.819h2.017l2.953,9.325l2.953-9.325h2.053L203.221,88.268z"/>
		</g>
		<g>
			<path fill="#FFFFFF" d="M209.23,88.268V75.448h8.192v1.745h-6.248v3.746h5.33v1.729h-5.33v3.854h6.248v1.746H209.23
				L209.23,88.268z"/>
		</g>
		<g>
			<path fill="#FFFFFF" d="M227.756,86.917c-0.954,1.008-2.179,1.459-3.529,1.459c-1.404,0-2.484-0.469-3.312-1.297
				c-1.243-1.261-1.296-2.539-1.296-5.222c0-2.684,0.054-3.961,1.296-5.223c0.828-0.828,1.908-1.296,3.312-1.296
				c2.701,0,4.303,1.782,4.646,3.961h-1.944c-0.324-1.403-1.26-2.231-2.701-2.231c-0.773,0-1.422,0.287-1.908,0.791
				c-0.631,0.685-0.756,1.459-0.756,3.998s0.125,3.312,0.756,3.996c0.486,0.504,1.134,0.793,1.908,0.793
				c0.846,0,1.603-0.323,2.106-0.918c0.468-0.541,0.63-1.188,0.63-2.018v-0.72h-2.736v-1.657h4.681v1.963
				C228.908,84.973,228.602,85.999,227.756,86.917z"/>
		</g>
		<g>
			<path fill="#FFFFFF" d="M238.952,88.268l-0.882-2.576h-5.061l-0.882,2.576h-2.071l4.699-12.819h1.567l4.698,12.819H238.952z
				 M235.585,78.346l-1.999,5.689h3.943L235.585,78.346z"/>
		</g>
		<g>
			<path fill="#FFFFFF" d="M250.706,88.268l-5.924-9.021v9.021h-1.945V75.448h1.783l5.924,9.002v-9.002h1.944v12.819H250.706z"/>
		</g>
	</g>
</g>
<g>
	<g>
		<g>
			<g>
				<defs>
					<circle id="SVGID_51_" cx="583.4" cy="56.4" r="56.4"/>
				</defs>
				<clipPath id="SVGID_52_">
					<use xlink:href="#SVGID_51_"  overflow="visible"/>
				</clipPath>
				<rect x="526.998" y="-0.001" clip-path="url(#SVGID_52_)" fill="#164F3C" width="112.805" height="112.806"/>
			</g>
			<g>
				<defs>
					<circle id="SVGID_53_" cx="583.4" cy="56.4" r="56.4"/>
				</defs>
				<clipPath id="SVGID_54_">
					<use xlink:href="#SVGID_53_"  overflow="visible"/>
				</clipPath>
				<circle clip-path="url(#SVGID_54_)" fill="#164F3C" cx="583.4" cy="56.401" r="56.402"/>
			</g>
			<g>
				<defs>
					<circle id="SVGID_55_" cx="583.4" cy="56.4" r="56.4"/>
				</defs>
				<clipPath id="SVGID_56_">
					<use xlink:href="#SVGID_55_"  overflow="visible"/>
				</clipPath>
				<circle clip-path="url(#SVGID_56_)" fill="#17503D" cx="583.4" cy="56.401" r="54.051"/>
			</g>
			<g>
				<defs>
					<circle id="SVGID_57_" cx="583.4" cy="56.4" r="56.4"/>
				</defs>
				<clipPath id="SVGID_58_">
					<use xlink:href="#SVGID_57_"  overflow="visible"/>
				</clipPath>
				<circle clip-path="url(#SVGID_58_)" fill="#17513E" cx="583.4" cy="56.401" r="51.699"/>
			</g>
			<g>
				<defs>
					<circle id="SVGID_59_" cx="583.4" cy="56.4" r="56.4"/>
				</defs>
				<clipPath id="SVGID_60_">
					<use xlink:href="#SVGID_59_"  overflow="visible"/>
				</clipPath>
				<circle clip-path="url(#SVGID_60_)" fill="#18523F" cx="583.4" cy="56.401" r="49.352"/>
			</g>
			<g>
				<defs>
					<circle id="SVGID_61_" cx="583.4" cy="56.4" r="56.4"/>
				</defs>
				<clipPath id="SVGID_62_">
					<use xlink:href="#SVGID_61_"  overflow="visible"/>
				</clipPath>
				<circle clip-path="url(#SVGID_62_)" fill="#18533F" cx="583.4" cy="56.401" r="47"/>
			</g>
			<g>
				<defs>
					<circle id="SVGID_63_" cx="583.4" cy="56.4" r="56.4"/>
				</defs>
				<clipPath id="SVGID_64_">
					<use xlink:href="#SVGID_63_"  overflow="visible"/>
				</clipPath>
				<circle clip-path="url(#SVGID_64_)" fill="#195440" cx="583.4" cy="56.401" r="44.652"/>
			</g>
			<g>
				<defs>
					<circle id="SVGID_65_" cx="583.4" cy="56.4" r="56.4"/>
				</defs>
				<clipPath id="SVGID_66_">
					<use xlink:href="#SVGID_65_"  overflow="visible"/>
				</clipPath>
				<circle clip-path="url(#SVGID_66_)" fill="#195541" cx="583.4" cy="56.401" r="42.301"/>
			</g>
			<g>
				<defs>
					<circle id="SVGID_67_" cx="583.4" cy="56.4" r="56.4"/>
				</defs>
				<clipPath id="SVGID_68_">
					<use xlink:href="#SVGID_67_"  overflow="visible"/>
				</clipPath>
				<circle clip-path="url(#SVGID_68_)" fill="#1A5642" cx="583.4" cy="56.401" r="39.949"/>
			</g>
			<g>
				<defs>
					<circle id="SVGID_69_" cx="583.4" cy="56.4" r="56.4"/>
				</defs>
				<clipPath id="SVGID_70_">
					<use xlink:href="#SVGID_69_"  overflow="visible"/>
				</clipPath>
				<circle clip-path="url(#SVGID_70_)" fill="#1A5743" cx="583.4" cy="56.401" r="37.602"/>
			</g>
			<g>
				<defs>
					<circle id="SVGID_71_" cx="583.4" cy="56.4" r="56.4"/>
				</defs>
				<clipPath id="SVGID_72_">
					<use xlink:href="#SVGID_71_"  overflow="visible"/>
				</clipPath>
				<circle clip-path="url(#SVGID_72_)" fill="#1B5844" cx="583.4" cy="56.401" r="35.25"/>
			</g>
			<g>
				<defs>
					<circle id="SVGID_73_" cx="583.4" cy="56.4" r="56.4"/>
				</defs>
				<clipPath id="SVGID_74_">
					<use xlink:href="#SVGID_73_"  overflow="visible"/>
				</clipPath>
				<circle clip-path="url(#SVGID_74_)" fill="#1B5945" cx="583.4" cy="56.401" r="32.902"/>
			</g>
			<g>
				<defs>
					<circle id="SVGID_75_" cx="583.4" cy="56.4" r="56.4"/>
				</defs>
				<clipPath id="SVGID_76_">
					<use xlink:href="#SVGID_75_"  overflow="visible"/>
				</clipPath>
				<circle clip-path="url(#SVGID_76_)" fill="#1C5A46" cx="583.4" cy="56.401" r="30.551"/>
			</g>
			<g>
				<defs>
					<circle id="SVGID_77_" cx="583.4" cy="56.4" r="56.4"/>
				</defs>
				<clipPath id="SVGID_78_">
					<use xlink:href="#SVGID_77_"  overflow="visible"/>
				</clipPath>
				<circle clip-path="url(#SVGID_78_)" fill="#1C5C46" cx="583.4" cy="56.401" r="28.199"/>
			</g>
			<g>
				<defs>
					<circle id="SVGID_79_" cx="583.4" cy="56.4" r="56.4"/>
				</defs>
				<clipPath id="SVGID_80_">
					<use xlink:href="#SVGID_79_"  overflow="visible"/>
				</clipPath>
				<circle clip-path="url(#SVGID_80_)" fill="#1D5D47" cx="583.4" cy="56.401" r="25.852"/>
			</g>
			<g>
				<defs>
					<circle id="SVGID_81_" cx="583.4" cy="56.4" r="56.4"/>
				</defs>
				<clipPath id="SVGID_82_">
					<use xlink:href="#SVGID_81_"  overflow="visible"/>
				</clipPath>
				<circle clip-path="url(#SVGID_82_)" fill="#1D5E48" cx="583.4" cy="56.401" r="23.5"/>
			</g>
			<g>
				<defs>
					<circle id="SVGID_83_" cx="583.4" cy="56.4" r="56.4"/>
				</defs>
				<clipPath id="SVGID_84_">
					<use xlink:href="#SVGID_83_"  overflow="visible"/>
				</clipPath>
				<circle clip-path="url(#SVGID_84_)" fill="#1E5F49" cx="583.4" cy="56.401" r="21.152"/>
			</g>
			<g>
				<defs>
					<circle id="SVGID_85_" cx="583.4" cy="56.4" r="56.4"/>
				</defs>
				<clipPath id="SVGID_86_">
					<use xlink:href="#SVGID_85_"  overflow="visible"/>
				</clipPath>
				<circle clip-path="url(#SVGID_86_)" fill="#1E604A" cx="583.4" cy="56.401" r="18.801"/>
			</g>
			<g>
				<defs>
					<circle id="SVGID_87_" cx="583.4" cy="56.4" r="56.4"/>
				</defs>
				<clipPath id="SVGID_88_">
					<use xlink:href="#SVGID_87_"  overflow="visible"/>
				</clipPath>
				<circle clip-path="url(#SVGID_88_)" fill="#1F614B" cx="583.4" cy="56.401" r="16.449"/>
			</g>
			<g>
				<defs>
					<circle id="SVGID_89_" cx="583.4" cy="56.4" r="56.4"/>
				</defs>
				<clipPath id="SVGID_90_">
					<use xlink:href="#SVGID_89_"  overflow="visible"/>
				</clipPath>
				<path clip-path="url(#SVGID_90_)" fill="#1F624C" d="M597.502,56.401c0,7.785-6.316,14.102-14.102,14.102
					c-7.786,0-14.103-6.315-14.103-14.102c0-7.786,6.316-14.102,14.103-14.102C591.186,42.299,597.502,48.616,597.502,56.401z"/>
			</g>
			<g>
				<defs>
					<circle id="SVGID_91_" cx="583.4" cy="56.4" r="56.4"/>
				</defs>
				<clipPath id="SVGID_92_">
					<use xlink:href="#SVGID_91_"  overflow="visible"/>
				</clipPath>
				<circle clip-path="url(#SVGID_92_)" fill="#20634D" cx="583.4" cy="56.401" r="11.75"/>
			</g>
			<g>
				<defs>
					<circle id="SVGID_93_" cx="583.4" cy="56.4" r="56.4"/>
				</defs>
				<clipPath id="SVGID_94_">
					<use xlink:href="#SVGID_93_"  overflow="visible"/>
				</clipPath>
				<circle clip-path="url(#SVGID_94_)" fill="#20644D" cx="583.4" cy="56.401" r="9.398"/>
			</g>
			<g>
				<defs>
					<circle id="SVGID_95_" cx="583.4" cy="56.4" r="56.4"/>
				</defs>
				<clipPath id="SVGID_96_">
					<use xlink:href="#SVGID_95_"  overflow="visible"/>
				</clipPath>
				<circle clip-path="url(#SVGID_96_)" fill="#21654E" cx="583.4" cy="56.401" r="7.051"/>
			</g>
			<g>
				<defs>
					<circle id="SVGID_97_" cx="583.4" cy="56.4" r="56.4"/>
				</defs>
				<clipPath id="SVGID_98_">
					<use xlink:href="#SVGID_97_"  overflow="visible"/>
				</clipPath>
				<circle clip-path="url(#SVGID_98_)" fill="#21664F" cx="583.4" cy="56.401" r="4.699"/>
			</g>
			<g>
				<defs>
					<circle id="SVGID_99_" cx="583.4" cy="56.4" r="56.4"/>
				</defs>
				<clipPath id="SVGID_100_">
					<use xlink:href="#SVGID_99_"  overflow="visible"/>
				</clipPath>
				<circle clip-path="url(#SVGID_100_)" fill="#226750" cx="583.4" cy="56.401" r="2.352"/>
			</g>
		</g>
	</g>
	<g>
		<path fill="#FFFFFF" d="M583.4,108.967c-28.985,0-52.566-23.581-52.566-52.567c0-28.985,23.581-52.567,52.566-52.567
			c28.984,0,52.565,23.582,52.565,52.567C635.967,85.386,612.386,108.967,583.4,108.967z M583.4,4.833
			c-28.435,0-51.566,23.133-51.566,51.567s23.133,51.567,51.566,51.567c28.433,0,51.565-23.133,51.565-51.567
			S611.834,4.833,583.4,4.833z"/>
	</g>
	<g>
		<g>
			<path fill="#FFFFFF" d="M595.074,67.762l-10.98-19.44l-5.52,6.6v12.84h-8.34V25.043h8.34v18.599l15.06-18.599h10.141
				l-14.16,16.98l15.18,25.739H595.074z"/>
		</g>
	</g>
	<g>
		<g>
			<path fill="#FFFFFF" d="M558.753,88.268l-3.601-6.319l-2.161,2.592v3.728h-1.944V75.448h1.944v6.444l5.239-6.444h2.377
				l-4.159,5.022l4.591,7.797H558.753z"/>
		</g>
		<g>
			<path fill="#FFFFFF" d="M570.165,87.079c-0.829,0.828-1.909,1.297-3.313,1.297c-1.403,0-2.483-0.469-3.312-1.297
				c-1.261-1.261-1.297-2.539-1.297-5.222c0-2.684,0.036-3.961,1.297-5.223c0.828-0.828,1.908-1.296,3.312-1.296
				c1.404,0,2.484,0.468,3.313,1.296c1.261,1.262,1.296,2.539,1.296,5.223C571.461,84.54,571.426,85.818,570.165,87.079z
				 M568.76,77.859c-0.484-0.504-1.134-0.791-1.908-0.791c-0.772,0-1.422,0.287-1.907,0.791c-0.632,0.685-0.757,1.459-0.757,3.998
				s0.125,3.295,0.757,3.979c0.485,0.504,1.135,0.812,1.907,0.812c0.774,0,1.424-0.308,1.908-0.812
				c0.648-0.666,0.757-1.44,0.757-3.979S569.408,78.525,568.76,77.859z"/>
		</g>
		<g>
			<path fill="#FFFFFF" d="M577.742,88.375c-1.928,0-3.295-0.451-4.538-1.693l1.278-1.277c0.937,0.937,1.999,1.242,3.295,1.242
				c1.692,0,2.646-0.721,2.646-1.979c0-0.576-0.144-1.026-0.504-1.333c-0.324-0.288-0.756-0.45-1.404-0.54l-1.512-0.217
				c-1.045-0.161-1.854-0.485-2.413-1.025c-0.63-0.575-0.954-1.403-0.954-2.467c0-2.231,1.62-3.745,4.285-3.745
				c1.711,0,2.881,0.434,3.979,1.458l-1.226,1.226c-0.791-0.756-1.729-0.99-2.826-0.99c-1.513,0-2.321,0.828-2.321,1.998
				c0,0.469,0.125,0.9,0.468,1.188c0.324,0.287,0.702,0.468,1.403,0.576l1.53,0.233c1.17,0.181,1.818,0.449,2.377,0.953
				c0.685,0.631,1.045,1.514,1.045,2.629C582.352,86.971,580.442,88.375,577.742,88.375z"/>
		</g>
		<g>
			<path fill="#FFFFFF" d="M592.107,88.268v-5.601h-5.204v5.601h-1.944V75.448h1.944v5.473h5.204v-5.473h1.942v12.819H592.107z"/>
		</g>
		<g>
			<path fill="#FFFFFF" d="M597.396,88.268V75.448h8.191v1.745h-6.247v3.746h5.329v1.729h-5.329v3.854h6.247v1.746H597.396
				L597.396,88.268z"/>
		</g>
		<g>
			<path fill="#FFFFFF" d="M615.326,88.268l-2.7-5.401h-2.431v5.401h-1.945V75.448h4.971c2.431,0,3.979,1.565,3.979,3.743
				c0,1.838-1.116,3.009-2.558,3.404l2.953,5.672H615.326z M613.076,77.193h-2.881v4.017h2.881c1.297,0,2.179-0.737,2.179-1.999
				C615.255,77.95,614.373,77.193,613.076,77.193z"/>
		</g>
	</g>
</g>
<g>
	<g>
		<g>
			<g>
				<defs>
					<circle id="SVGID_101_" cx="404.4" cy="56.4" r="56.4"/>
				</defs>
				<clipPath id="SVGID_102_">
					<use xlink:href="#SVGID_101_"  overflow="visible"/>
				</clipPath>
				<rect x="347.998" y="-0.001" clip-path="url(#SVGID_102_)" fill="#164F3C" width="112.805" height="112.806"/>
			</g>
			<g>
				<defs>
					<circle id="SVGID_103_" cx="404.4" cy="56.4" r="56.4"/>
				</defs>
				<clipPath id="SVGID_104_">
					<use xlink:href="#SVGID_103_"  overflow="visible"/>
				</clipPath>
				<circle clip-path="url(#SVGID_104_)" fill="#164F3C" cx="404.4" cy="56.401" r="56.402"/>
			</g>
			<g>
				<defs>
					<circle id="SVGID_105_" cx="404.4" cy="56.4" r="56.4"/>
				</defs>
				<clipPath id="SVGID_106_">
					<use xlink:href="#SVGID_105_"  overflow="visible"/>
				</clipPath>
				<circle clip-path="url(#SVGID_106_)" fill="#17503D" cx="404.4" cy="56.401" r="54.051"/>
			</g>
			<g>
				<defs>
					<circle id="SVGID_107_" cx="404.4" cy="56.4" r="56.4"/>
				</defs>
				<clipPath id="SVGID_108_">
					<use xlink:href="#SVGID_107_"  overflow="visible"/>
				</clipPath>
				<circle clip-path="url(#SVGID_108_)" fill="#17513E" cx="404.4" cy="56.401" r="51.699"/>
			</g>
			<g>
				<defs>
					<circle id="SVGID_109_" cx="404.4" cy="56.4" r="56.4"/>
				</defs>
				<clipPath id="SVGID_110_">
					<use xlink:href="#SVGID_109_"  overflow="visible"/>
				</clipPath>
				<circle clip-path="url(#SVGID_110_)" fill="#18523F" cx="404.4" cy="56.401" r="49.352"/>
			</g>
			<g>
				<defs>
					<circle id="SVGID_111_" cx="404.4" cy="56.4" r="56.4"/>
				</defs>
				<clipPath id="SVGID_112_">
					<use xlink:href="#SVGID_111_"  overflow="visible"/>
				</clipPath>
				<circle clip-path="url(#SVGID_112_)" fill="#18533F" cx="404.4" cy="56.401" r="47"/>
			</g>
			<g>
				<defs>
					<circle id="SVGID_113_" cx="404.4" cy="56.4" r="56.4"/>
				</defs>
				<clipPath id="SVGID_114_">
					<use xlink:href="#SVGID_113_"  overflow="visible"/>
				</clipPath>
				<circle clip-path="url(#SVGID_114_)" fill="#195440" cx="404.4" cy="56.401" r="44.652"/>
			</g>
			<g>
				<defs>
					<circle id="SVGID_115_" cx="404.4" cy="56.4" r="56.4"/>
				</defs>
				<clipPath id="SVGID_116_">
					<use xlink:href="#SVGID_115_"  overflow="visible"/>
				</clipPath>
				<circle clip-path="url(#SVGID_116_)" fill="#195541" cx="404.4" cy="56.401" r="42.301"/>
			</g>
			<g>
				<defs>
					<circle id="SVGID_117_" cx="404.4" cy="56.4" r="56.4"/>
				</defs>
				<clipPath id="SVGID_118_">
					<use xlink:href="#SVGID_117_"  overflow="visible"/>
				</clipPath>
				<circle clip-path="url(#SVGID_118_)" fill="#1A5642" cx="404.4" cy="56.401" r="39.949"/>
			</g>
			<g>
				<defs>
					<circle id="SVGID_119_" cx="404.4" cy="56.4" r="56.4"/>
				</defs>
				<clipPath id="SVGID_120_">
					<use xlink:href="#SVGID_119_"  overflow="visible"/>
				</clipPath>
				<circle clip-path="url(#SVGID_120_)" fill="#1A5743" cx="404.4" cy="56.401" r="37.602"/>
			</g>
			<g>
				<defs>
					<circle id="SVGID_121_" cx="404.4" cy="56.4" r="56.4"/>
				</defs>
				<clipPath id="SVGID_122_">
					<use xlink:href="#SVGID_121_"  overflow="visible"/>
				</clipPath>
				<circle clip-path="url(#SVGID_122_)" fill="#1B5844" cx="404.4" cy="56.401" r="35.25"/>
			</g>
			<g>
				<defs>
					<circle id="SVGID_123_" cx="404.4" cy="56.4" r="56.4"/>
				</defs>
				<clipPath id="SVGID_124_">
					<use xlink:href="#SVGID_123_"  overflow="visible"/>
				</clipPath>
				<circle clip-path="url(#SVGID_124_)" fill="#1B5945" cx="404.4" cy="56.401" r="32.902"/>
			</g>
			<g>
				<defs>
					<circle id="SVGID_125_" cx="404.4" cy="56.4" r="56.4"/>
				</defs>
				<clipPath id="SVGID_126_">
					<use xlink:href="#SVGID_125_"  overflow="visible"/>
				</clipPath>
				<circle clip-path="url(#SVGID_126_)" fill="#1C5A46" cx="404.4" cy="56.401" r="30.551"/>
			</g>
			<g>
				<defs>
					<circle id="SVGID_127_" cx="404.4" cy="56.4" r="56.4"/>
				</defs>
				<clipPath id="SVGID_128_">
					<use xlink:href="#SVGID_127_"  overflow="visible"/>
				</clipPath>
				<circle clip-path="url(#SVGID_128_)" fill="#1C5C46" cx="404.4" cy="56.401" r="28.199"/>
			</g>
			<g>
				<defs>
					<circle id="SVGID_129_" cx="404.4" cy="56.4" r="56.4"/>
				</defs>
				<clipPath id="SVGID_130_">
					<use xlink:href="#SVGID_129_"  overflow="visible"/>
				</clipPath>
				<circle clip-path="url(#SVGID_130_)" fill="#1D5D47" cx="404.4" cy="56.401" r="25.852"/>
			</g>
			<g>
				<defs>
					<circle id="SVGID_131_" cx="404.4" cy="56.4" r="56.4"/>
				</defs>
				<clipPath id="SVGID_132_">
					<use xlink:href="#SVGID_131_"  overflow="visible"/>
				</clipPath>
				<circle clip-path="url(#SVGID_132_)" fill="#1D5E48" cx="404.4" cy="56.401" r="23.5"/>
			</g>
			<g>
				<defs>
					<circle id="SVGID_133_" cx="404.4" cy="56.4" r="56.4"/>
				</defs>
				<clipPath id="SVGID_134_">
					<use xlink:href="#SVGID_133_"  overflow="visible"/>
				</clipPath>
				<circle clip-path="url(#SVGID_134_)" fill="#1E5F49" cx="404.4" cy="56.401" r="21.152"/>
			</g>
			<g>
				<defs>
					<circle id="SVGID_135_" cx="404.4" cy="56.4" r="56.4"/>
				</defs>
				<clipPath id="SVGID_136_">
					<use xlink:href="#SVGID_135_"  overflow="visible"/>
				</clipPath>
				<circle clip-path="url(#SVGID_136_)" fill="#1E604A" cx="404.4" cy="56.401" r="18.801"/>
			</g>
			<g>
				<defs>
					<circle id="SVGID_137_" cx="404.4" cy="56.4" r="56.4"/>
				</defs>
				<clipPath id="SVGID_138_">
					<use xlink:href="#SVGID_137_"  overflow="visible"/>
				</clipPath>
				<circle clip-path="url(#SVGID_138_)" fill="#1F614B" cx="404.4" cy="56.401" r="16.449"/>
			</g>
			<g>
				<defs>
					<circle id="SVGID_139_" cx="404.4" cy="56.4" r="56.4"/>
				</defs>
				<clipPath id="SVGID_140_">
					<use xlink:href="#SVGID_139_"  overflow="visible"/>
				</clipPath>
				<path clip-path="url(#SVGID_140_)" fill="#1F624C" d="M418.502,56.401c0,7.785-6.316,14.102-14.102,14.102
					c-7.786,0-14.103-6.315-14.103-14.102c0-7.786,6.316-14.102,14.103-14.102C412.186,42.299,418.502,48.616,418.502,56.401z"/>
			</g>
			<g>
				<defs>
					<circle id="SVGID_141_" cx="404.4" cy="56.4" r="56.4"/>
				</defs>
				<clipPath id="SVGID_142_">
					<use xlink:href="#SVGID_141_"  overflow="visible"/>
				</clipPath>
				<circle clip-path="url(#SVGID_142_)" fill="#20634D" cx="404.4" cy="56.401" r="11.75"/>
			</g>
			<g>
				<defs>
					<circle id="SVGID_143_" cx="404.4" cy="56.4" r="56.4"/>
				</defs>
				<clipPath id="SVGID_144_">
					<use xlink:href="#SVGID_143_"  overflow="visible"/>
				</clipPath>
				<circle clip-path="url(#SVGID_144_)" fill="#20644D" cx="404.4" cy="56.401" r="9.398"/>
			</g>
			<g>
				<defs>
					<circle id="SVGID_145_" cx="404.4" cy="56.4" r="56.4"/>
				</defs>
				<clipPath id="SVGID_146_">
					<use xlink:href="#SVGID_145_"  overflow="visible"/>
				</clipPath>
				<circle clip-path="url(#SVGID_146_)" fill="#21654E" cx="404.4" cy="56.401" r="7.051"/>
			</g>
			<g>
				<defs>
					<circle id="SVGID_147_" cx="404.4" cy="56.4" r="56.4"/>
				</defs>
				<clipPath id="SVGID_148_">
					<use xlink:href="#SVGID_147_"  overflow="visible"/>
				</clipPath>
				<circle clip-path="url(#SVGID_148_)" fill="#21664F" cx="404.4" cy="56.401" r="4.699"/>
			</g>
			<g>
				<defs>
					<circle id="SVGID_149_" cx="404.4" cy="56.4" r="56.4"/>
				</defs>
				<clipPath id="SVGID_150_">
					<use xlink:href="#SVGID_149_"  overflow="visible"/>
				</clipPath>
				<circle clip-path="url(#SVGID_150_)" fill="#226750" cx="404.4" cy="56.401" r="2.352"/>
			</g>
		</g>
	</g>
	<g>
		<path fill="#FFFFFF" d="M404.4,108.967c-28.985,0-52.566-23.581-52.566-52.567c0-28.985,23.581-52.567,52.566-52.567
			c28.984,0,52.565,23.582,52.565,52.567C456.967,85.386,433.386,108.967,404.4,108.967z M404.4,4.833
			c-28.435,0-51.566,23.133-51.566,51.567s23.133,51.567,51.566,51.567c28.433,0,51.565-23.133,51.565-51.567
			S432.834,4.833,404.4,4.833z"/>
	</g>
	<g>
		<g>
			<path fill="#FFFFFF" d="M400.486,62.051c-3.306,3.473-7,4.537-11.256,4.537c-4.537,0-7.896-1.513-10.642-4.201
				c-3.977-3.976-4.031-8.456-4.031-16.072c0-7.616,0.056-12.096,4.031-16.072c2.744-2.688,6.104-4.2,10.642-4.2
				c9.295,0,13.942,6.048,15.008,12.768h-7.84c-0.896-3.808-3.192-5.823-7.168-5.823c-2.13,0-3.81,0.839-4.984,2.128
				c-1.456,1.679-1.904,3.583-1.904,11.199c0,7.616,0.448,9.576,1.904,11.255c1.176,1.289,2.854,2.072,4.984,2.072
				c2.406,0,4.312-0.84,5.543-2.24c1.288-1.454,1.793-3.246,1.793-5.319v-1.456h-7.336v-6.552h15.062v5.824
				C404.294,55.667,403.398,59.027,400.486,62.051z"/>
		</g>
		<g>
			<path fill="#FFFFFF" d="M420.029,33.324v9.799h15.735v6.944h-15.735v16.184h-7.784V26.38h26.264v6.944H420.029z"/>
		</g>
	</g>
	<g>
		<g>
			<path fill="#FFFFFF" d="M384.312,82.006c-0.796,0.84-1.814,1.215-2.939,1.215c-1.17,0-2.07-0.391-2.76-1.08
				c-1.035-1.051-1.08-2.115-1.08-4.35s0.045-3.301,1.08-4.35c0.688-0.69,1.59-1.08,2.76-1.08c2.25,0,3.584,1.484,3.869,3.299
				h-1.619c-0.271-1.17-1.051-1.859-2.25-1.859c-0.646,0-1.186,0.24-1.59,0.66c-0.525,0.57-0.631,1.215-0.631,3.33
				c0,2.113,0.104,2.76,0.631,3.33c0.404,0.42,0.943,0.658,1.59,0.658c0.705,0,1.334-0.271,1.754-0.764
				c0.391-0.451,0.525-0.99,0.525-1.681v-0.601h-2.279v-1.381h3.899v1.636C385.272,80.385,385.018,81.241,384.312,82.006z"/>
		</g>
		<g>
			<path fill="#FFFFFF" d="M387.658,83.131v-10.68h1.619v9.225h5.145v1.455H387.658z"/>
		</g>
		<g>
			<path fill="#FFFFFF" d="M399.327,83.221c-2.175,0-3.825-1.484-3.825-3.688v-7.08h1.621v7.004c0,1.426,0.869,2.312,2.204,2.312
				s2.22-0.886,2.22-2.312v-7.004h1.62v7.08C403.167,81.736,401.502,83.221,399.327,83.221z"/>
		</g>
		<g>
			<path fill="#FFFFFF" d="M409.407,73.907v9.225h-1.62v-9.225h-2.939v-1.455h7.5v1.455H409.407z"/>
		</g>
		<g>
			<path fill="#FFFFFF" d="M414.192,83.131v-10.68h6.824v1.455h-5.204v3.119h4.438v1.438h-4.438v3.211h5.204v1.455L414.192,83.131
				L414.192,83.131z"/>
		</g>
		<g>
			<path fill="#FFFFFF" d="M429.792,83.131l-4.935-7.516v7.516h-1.62v-10.68h1.484l4.935,7.5v-7.5h1.621v10.68H429.792z"/>
		</g>
		<g>
			<path fill="#FFFFFF" d="M389.27,88.907v3.254h4.44v1.455h-4.44v4.516h-1.618v-10.68h6.823v1.455H389.27z"/>
		</g>
		<g>
			<path fill="#FFFFFF" d="M402.32,98.131l-2.25-4.5h-2.025v4.5h-1.619v-10.68h4.14c2.024,0,3.314,1.305,3.314,3.119
				c0,1.529-0.93,2.506-2.13,2.836l2.46,4.725H402.32z M400.445,88.907h-2.4v3.344h2.4c1.08,0,1.813-0.614,1.813-1.664
				C402.26,89.536,401.525,88.907,400.445,88.907z"/>
		</g>
		<g>
			<path fill="#FFFFFF" d="M406.25,98.131v-10.68h6.825v1.455h-5.205v3.119h4.439v1.438h-4.439v3.211h5.205v1.455L406.25,98.131
				L406.25,98.131z"/>
		</g>
		<g>
			<path fill="#FFFFFF" d="M415.295,98.131v-10.68h6.825v1.455h-5.205v3.119h4.44v1.438h-4.44v3.211h5.205v1.455L415.295,98.131
				L415.295,98.131z"/>
		</g>
	</g>
</g>
<g>
	<g>
		<g>
			<g>
				<defs>
					<circle id="SVGID_151_" cx="56.4" cy="56.4" r="55.902"/>
				</defs>
				<clipPath id="SVGID_152_">
					<use xlink:href="#SVGID_151_"  overflow="visible"/>
				</clipPath>
				<rect x="0.497" y="0.497" clip-path="url(#SVGID_152_)" fill="#17503C" width="111.808" height="111.806"/>
				<circle clip-path="url(#SVGID_152_)" fill="#17503C" cx="56.401" cy="56.4" r="55.904"/>
				<circle clip-path="url(#SVGID_152_)" fill="#17503D" cx="56.4" cy="56.4" r="53.572"/>
				<path clip-path="url(#SVGID_152_)" fill="#18523E" d="M107.643,56.4c0,28.303-22.94,51.243-51.242,51.243
					c-28.304,0-51.242-22.94-51.242-51.243C5.158,28.099,28.097,5.16,56.4,5.16C84.702,5.16,107.643,28.099,107.643,56.4z"/>
				<circle clip-path="url(#SVGID_152_)" fill="#195340" cx="56.4" cy="56.4" r="48.916"/>
				<circle clip-path="url(#SVGID_152_)" fill="#1A5440" cx="56.4" cy="56.4" r="46.584"/>
				<circle clip-path="url(#SVGID_152_)" fill="#1A5440" cx="56.4" cy="56.4" r="44.258"/>
				<circle clip-path="url(#SVGID_152_)" fill="#1B5642" cx="56.401" cy="56.4" r="41.927"/>
				<circle clip-path="url(#SVGID_152_)" fill="#1B5643" cx="56.4" cy="56.4" r="39.596"/>
				<circle clip-path="url(#SVGID_152_)" fill="#1B5844" cx="56.399" cy="56.4" r="37.27"/>
				<circle clip-path="url(#SVGID_152_)" fill="#1A5944" cx="56.401" cy="56.4" r="34.938"/>
				<circle clip-path="url(#SVGID_152_)" fill="#1B5945" cx="56.4" cy="56.4" r="32.611"/>
				<circle clip-path="url(#SVGID_152_)" fill="#1D5A46" cx="56.4" cy="56.4" r="30.281"/>
				<circle clip-path="url(#SVGID_152_)" fill="#1E5D47" cx="56.4" cy="56.4" r="27.95"/>
				<circle clip-path="url(#SVGID_152_)" fill="#1E5D47" cx="56.401" cy="56.4" r="25.624"/>
				<circle clip-path="url(#SVGID_152_)" fill="#1E5F49" cx="56.4" cy="56.4" r="23.292"/>
				<path clip-path="url(#SVGID_152_)" fill="#215F49" d="M77.366,56.4c0,11.576-9.389,20.965-20.966,20.965
					S35.435,67.977,35.435,56.4c0-11.576,9.389-20.965,20.966-20.965S77.366,44.825,77.366,56.4z"/>
				<circle clip-path="url(#SVGID_152_)" fill="#21614A" cx="56.401" cy="56.4" r="18.635"/>
				<circle clip-path="url(#SVGID_152_)" fill="#22614C" cx="56.4" cy="56.4" r="16.304"/>
				<path clip-path="url(#SVGID_152_)" fill="#22634D" d="M70.377,56.4c0,7.716-6.26,13.977-13.977,13.977
					S42.424,64.116,42.424,56.4c0-7.715,6.26-13.977,13.977-13.977S70.377,48.685,70.377,56.4z"/>
				<circle clip-path="url(#SVGID_152_)" fill="#22644D" cx="56.4" cy="56.4" r="11.646"/>
				<circle clip-path="url(#SVGID_152_)" fill="#22654E" cx="56.401" cy="56.4" r="9.315"/>
				<circle clip-path="url(#SVGID_152_)" fill="#23654E" cx="56.401" cy="56.4" r="6.989"/>
				<path clip-path="url(#SVGID_152_)" fill="#236750" d="M61.058,56.4c0,2.575-2.083,4.657-4.657,4.657
					c-2.575,0-4.658-2.082-4.658-4.657c0-2.574,2.083-4.657,4.658-4.657C58.975,51.743,61.058,53.826,61.058,56.4z"/>
				<circle clip-path="url(#SVGID_152_)" fill="#246851" cx="56.399" cy="56.4" r="2.33"/>
			</g>
		</g>
		<g>
			<path fill="#FFFFFF" d="M56.4,108.503c-28.73,0-52.102-23.373-52.102-52.103C4.299,27.67,27.67,4.299,56.4,4.299
				c28.729,0,52.103,23.372,52.103,52.102C108.503,85.13,85.129,108.503,56.4,108.503z M56.4,5.29
				C28.218,5.29,5.29,28.218,5.29,56.4c0,28.182,22.928,51.111,51.11,51.111c28.182,0,51.11-22.93,51.11-51.111
				C107.511,28.218,84.582,5.29,56.4,5.29z"/>
		</g>
	</g>
	<g>
		<path fill="#FFFFFF" d="M35.357,68.572c-2.556,2.686-5.415,3.508-8.707,3.508c-3.509,0-6.105-1.169-8.229-3.248
			c-3.074-3.075-3.119-6.54-3.119-12.431c0-5.892,0.045-9.357,3.119-12.432c2.124-2.08,4.721-3.249,8.229-3.249
			c7.191,0,10.786,4.679,11.611,9.875h-6.064c-0.695-2.946-2.47-4.504-5.547-4.504c-1.646,0-2.945,0.649-3.855,1.645
			c-1.124,1.299-1.472,2.773-1.472,8.665c0,5.891,0.348,7.406,1.472,8.706c0.91,0.996,2.209,1.604,3.855,1.604
			c1.864,0,3.337-0.65,4.289-1.733c0.997-1.127,1.386-2.513,1.386-4.115v-1.126H26.65v-5.069h11.652v4.506
			C38.303,63.635,37.61,66.233,35.357,68.572z"/>
		<path fill="#FFFFFF" d="M48.932,46.352v7.58h12.173v5.371H48.932v12.519h-6.021V40.98h20.315v5.372H48.932z"/>
		<path fill="#FFFFFF" d="M76.071,72.08c-4.68,0-8.23-0.995-11.264-4.07l3.899-3.899c1.948,1.95,4.59,2.601,7.406,2.601
			c3.595,0,5.501-1.387,5.501-3.856c0-1.04-0.304-1.906-0.951-2.556c-0.608-0.562-1.215-0.824-2.773-1.039l-3.683-0.563
			c-2.729-0.39-4.591-1.212-5.978-2.556c-1.474-1.43-2.21-3.464-2.21-6.063c0-5.502,4.073-9.357,10.742-9.357
			c4.245,0,7.321,1.041,9.965,3.595l-3.812,3.768c-1.907-1.862-4.288-2.122-6.325-2.122c-3.205,0-4.72,1.775-4.72,3.899
			c0,0.823,0.215,1.602,0.865,2.208c0.608,0.562,1.517,0.996,2.814,1.169l3.684,0.564c2.815,0.389,4.549,1.125,5.891,2.424
			c1.646,1.517,2.384,3.726,2.384,6.499C87.507,68.702,82.568,72.08,76.071,72.08z"/>
		<path fill="#FFFFFF" d="M91.475,71.821V40.98h6.023v30.841H91.475z"/>
	</g>
</g>
</svg>
