<?xml version="1.0" encoding="utf-8"?>
<!-- Generator: Adobe Illustrator 16.0.0, SVG Export Plug-In . SVG Version: 6.00 Build 0)  -->
<!DOCTYPE svg PUBLIC "-//W3C//DTD SVG 1.1//EN" "http://www.w3.org/Graphics/SVG/1.1/DTD/svg11.dtd">
<svg version="1.1" id="Layer_1" xmlns="http://www.w3.org/2000/svg" xmlns:xlink="http://www.w3.org/1999/xlink" x="0px" y="0px"
	 width="112.801px" height="112.801px" viewBox="0 0 112.801 112.801" enable-background="new 0 0 112.801 112.801"
	 xml:space="preserve">
<g>
	<g>
		<g>
			<defs>
				<circle id="SVGID_1_" cx="56.4" cy="56.4" r="56.504"/>
			</defs>
			<clipPath id="SVGID_2_">
				<use xlink:href="#SVGID_1_"  overflow="visible"/>
			</clipPath>
			<rect x="-0.106" y="-0.105" clip-path="url(#SVGID_2_)" fill="#17503C" width="113.014" height="113.011"/>
			<path clip-path="url(#SVGID_2_)" fill="#17503C" d="M112.907,56.4c0,31.206-25.302,56.505-56.506,56.505
				c-31.206,0-56.507-25.299-56.507-56.505c0-31.206,25.302-56.506,56.507-56.506C87.605-0.105,112.907,25.195,112.907,56.4z"/>
			<circle clip-path="url(#SVGID_2_)" fill="#17503D" cx="56.4" cy="56.4" r="54.15"/>
			<path clip-path="url(#SVGID_2_)" fill="#18523E" d="M108.195,56.4c0,28.607-23.188,51.795-51.794,51.795
				c-28.608,0-51.794-23.188-51.794-51.795c0-28.607,23.186-51.794,51.794-51.794C85.008,4.606,108.195,27.793,108.195,56.4z"/>
			<path clip-path="url(#SVGID_2_)" fill="#195340" d="M105.843,56.4c0,27.305-22.139,49.442-49.442,49.442
				c-27.304,0-49.442-22.138-49.442-49.442c0-27.304,22.138-49.442,49.442-49.442C83.704,6.958,105.843,29.097,105.843,56.4z"/>
			<circle clip-path="url(#SVGID_2_)" fill="#1A5440" cx="56.401" cy="56.4" r="47.087"/>
			<circle clip-path="url(#SVGID_2_)" fill="#1A5440" cx="56.4" cy="56.4" r="44.734"/>
			<circle clip-path="url(#SVGID_2_)" fill="#1B5642" cx="56.401" cy="56.4" r="42.378"/>
			<path clip-path="url(#SVGID_2_)" fill="#1B5643" d="M96.424,56.4c0,22.103-17.922,40.022-40.023,40.022
				c-22.103,0-40.023-17.92-40.023-40.022c0-22.103,17.92-40.022,40.023-40.022C78.502,16.378,96.424,34.297,96.424,56.4z"/>
			<circle clip-path="url(#SVGID_2_)" fill="#1B5844" cx="56.401" cy="56.4" r="37.671"/>
			<circle clip-path="url(#SVGID_2_)" fill="#1A5944" cx="56.4" cy="56.4" r="35.315"/>
			<circle clip-path="url(#SVGID_2_)" fill="#1B5945" cx="56.4" cy="56.4" r="32.963"/>
			<circle clip-path="url(#SVGID_2_)" fill="#1D5A46" cx="56.4" cy="56.4" r="30.606"/>
			<circle clip-path="url(#SVGID_2_)" fill="#1E5D47" cx="56.4" cy="56.4" r="28.25"/>
			<circle clip-path="url(#SVGID_2_)" fill="#1E5D47" cx="56.4" cy="56.4" r="25.899"/>
			<circle clip-path="url(#SVGID_2_)" fill="#1E5F49" cx="56.401" cy="56.4" r="23.543"/>
			<path clip-path="url(#SVGID_2_)" fill="#215F49" d="M77.592,56.4c0,11.701-9.49,21.19-21.191,21.19
				c-11.702,0-21.191-9.489-21.191-21.19s9.49-21.191,21.191-21.191C68.102,35.209,77.592,44.699,77.592,56.4z"/>
			<circle clip-path="url(#SVGID_2_)" fill="#21614A" cx="56.401" cy="56.4" r="18.835"/>
			<circle clip-path="url(#SVGID_2_)" fill="#22614C" cx="56.401" cy="56.4" r="16.479"/>
			<path clip-path="url(#SVGID_2_)" fill="#22634D" d="M70.528,56.4c0,7.799-6.329,14.128-14.127,14.128
				c-7.799,0-14.128-6.329-14.128-14.128s6.329-14.127,14.128-14.127C64.199,42.273,70.528,48.602,70.528,56.4z"/>
			<circle clip-path="url(#SVGID_2_)" fill="#22644D" cx="56.401" cy="56.4" r="11.772"/>
			<circle clip-path="url(#SVGID_2_)" fill="#22654E" cx="56.401" cy="56.4" r="9.416"/>
			<circle clip-path="url(#SVGID_2_)" fill="#23654E" cx="56.401" cy="56.4" r="7.064"/>
			<circle clip-path="url(#SVGID_2_)" fill="#236750" cx="56.401" cy="56.4" r="4.709"/>
			<circle clip-path="url(#SVGID_2_)" fill="#246851" cx="56.4" cy="56.4" r="2.356"/>
		</g>
	</g>
	<g>
		<path fill="#FFFFFF" d="M56.401,109.063c-29.039,0-52.664-23.624-52.664-52.663c0-29.04,23.625-52.664,52.664-52.664
			s52.663,23.624,52.663,52.664C109.063,85.439,85.439,109.063,56.401,109.063z M56.401,4.738C27.915,4.738,4.739,27.914,4.739,56.4
			c0,28.485,23.176,51.662,51.662,51.662c28.485,0,51.661-23.177,51.661-51.662C108.062,27.914,84.886,4.738,56.401,4.738z"/>
	</g>
	<g>
		<path fill="#FFFFFF" d="M32.023,70.121l-5.355-10.948h-3.857v10.948h-5.357V42.68h10.754c5.591,0,8.903,3.815,8.903,8.4
			c0,3.854-2.351,6.247-5.011,7.208l6.128,11.833H32.023z M27.859,47.458h-5.048v7.243h5.048c2.351,0,3.896-1.5,3.896-3.622
			C31.755,48.962,30.21,47.458,27.859,47.458z"/>
		<path fill="#FFFFFF" d="M58.281,70.121l-1.619-4.855h-9.751l-1.656,4.855h-5.59l9.983-27.441h4.203l10.02,27.441H58.281z
			 M51.886,50.772l-3.471,9.983h6.822L51.886,50.772z"/>
		<path fill="#FFFFFF" d="M89.9,70.121h-4.472l-5.047-16.65l-5.05,16.65H70.86L63.539,42.68h5.586l4.241,17.304l5.011-17.304h4.006
			l5.014,17.304l4.276-17.304h5.591L89.9,70.121z"/>
	</g>
</g>
</svg>
