<?xml version="1.0" encoding="utf-8"?>
<!-- Generator: Adobe Illustrator 16.0.0, SVG Export Plug-In . SVG Version: 6.00 Build 0)  -->
<!DOCTYPE svg PUBLIC "-//W3C//DTD SVG 1.1//EN" "http://www.w3.org/Graphics/SVG/1.1/DTD/svg11.dtd">
<svg version="1.1" id="Layer_1" xmlns="http://www.w3.org/2000/svg" xmlns:xlink="http://www.w3.org/1999/xlink" x="0px" y="0px"
	 width="112.805px" height="112.805px" viewBox="0 0 112.805 112.805" enable-background="new 0 0 112.805 112.805"
	 xml:space="preserve">
<g>
	<g>
		<g>
			<defs>
				<circle id="SVGID_1_" cx="-291.598" cy="56.402" r="56.4"/>
			</defs>
			<clipPath id="SVGID_2_">
				<use xlink:href="#SVGID_1_"  overflow="visible"/>
			</clipPath>
			<rect x="-348" clip-path="url(#SVGID_2_)" fill="#164F3C" width="112.805" height="112.805"/>
			<circle clip-path="url(#SVGID_2_)" fill="#164F3C" cx="-291.598" cy="56.402" r="56.402"/>
			<circle clip-path="url(#SVGID_2_)" fill="#17503D" cx="-291.598" cy="56.402" r="54.051"/>
			<circle clip-path="url(#SVGID_2_)" fill="#17513E" cx="-291.598" cy="56.402" r="51.699"/>
			<circle clip-path="url(#SVGID_2_)" fill="#18523F" cx="-291.598" cy="56.402" r="49.352"/>
			<circle clip-path="url(#SVGID_2_)" fill="#18533F" cx="-291.598" cy="56.402" r="47"/>
			<circle clip-path="url(#SVGID_2_)" fill="#195440" cx="-291.598" cy="56.402" r="44.652"/>
			<circle clip-path="url(#SVGID_2_)" fill="#195541" cx="-291.598" cy="56.402" r="42.301"/>
			<circle clip-path="url(#SVGID_2_)" fill="#1A5642" cx="-291.598" cy="56.402" r="39.949"/>
			<circle clip-path="url(#SVGID_2_)" fill="#1A5743" cx="-291.598" cy="56.402" r="37.602"/>
			<circle clip-path="url(#SVGID_2_)" fill="#1B5844" cx="-291.598" cy="56.402" r="35.25"/>
			<circle clip-path="url(#SVGID_2_)" fill="#1B5945" cx="-291.598" cy="56.402" r="32.902"/>
			<circle clip-path="url(#SVGID_2_)" fill="#1C5A46" cx="-291.598" cy="56.402" r="30.551"/>
			<circle clip-path="url(#SVGID_2_)" fill="#1C5C46" cx="-291.598" cy="56.402" r="28.199"/>
			<circle clip-path="url(#SVGID_2_)" fill="#1D5D47" cx="-291.598" cy="56.402" r="25.852"/>
			<circle clip-path="url(#SVGID_2_)" fill="#1D5E48" cx="-291.598" cy="56.402" r="23.5"/>
			<circle clip-path="url(#SVGID_2_)" fill="#1E5F49" cx="-291.598" cy="56.402" r="21.152"/>
			<circle clip-path="url(#SVGID_2_)" fill="#1E604A" cx="-291.598" cy="56.402" r="18.801"/>
			<circle clip-path="url(#SVGID_2_)" fill="#1F614B" cx="-291.598" cy="56.402" r="16.449"/>
			<path clip-path="url(#SVGID_2_)" fill="#1F624C" d="M-277.496,56.402c0,7.785-6.316,14.102-14.102,14.102
				s-14.102-6.316-14.102-14.102s6.316-14.102,14.102-14.102S-277.496,48.617-277.496,56.402z"/>
			<circle clip-path="url(#SVGID_2_)" fill="#20634D" cx="-291.598" cy="56.402" r="11.75"/>
			<circle clip-path="url(#SVGID_2_)" fill="#20644D" cx="-291.598" cy="56.402" r="9.398"/>
			<circle clip-path="url(#SVGID_2_)" fill="#21654E" cx="-291.598" cy="56.402" r="7.051"/>
			<circle clip-path="url(#SVGID_2_)" fill="#21664F" cx="-291.598" cy="56.402" r="4.699"/>
			<circle clip-path="url(#SVGID_2_)" fill="#226750" cx="-291.598" cy="56.402" r="2.352"/>
		</g>
	</g>
	<g>
		<path fill="#FFFFFF" d="M-291.598,108.969c-28.985,0-52.567-23.581-52.567-52.567c0-28.985,23.582-52.567,52.567-52.567
			s52.567,23.582,52.567,52.567C-239.031,85.388-262.612,108.969-291.598,108.969z M-291.598,4.835
			c-28.434,0-51.567,23.133-51.567,51.567s23.133,51.567,51.567,51.567s51.567-23.133,51.567-51.567S-263.164,4.835-291.598,4.835z"
			/>
	</g>
	<g>
		<g>
			<path fill="#FFFFFF" d="M-282.088,67.762l-8.34-17.039h-6v17.039h-8.339V25.044h16.739c8.699,0,13.859,5.939,13.859,13.079
				c0,6-3.66,9.72-7.8,11.22l9.539,18.418H-282.088z M-288.567,32.483h-7.86v11.279h7.86c3.659,0,6.06-2.339,6.06-5.64
				C-282.508,34.824-284.908,32.483-288.567,32.483z"/>
		</g>
	</g>
	<g>
		<g>
			<path fill="#FFFFFF" d="M-299.932,88.269l-2.701-5.401h-2.431v5.401h-1.945V75.449h4.97c2.431,0,3.979,1.566,3.979,3.744
				c0,1.837-1.116,3.008-2.557,3.403l2.953,5.672H-299.932z M-302.183,77.195h-2.881v4.016h2.881c1.296,0,2.179-0.738,2.179-1.999
				S-300.886,77.195-302.183,77.195z"/>
		</g>
		<g>
			<path fill="#FFFFFF" d="M-287.854,88.269l-0.882-2.575h-5.06l-0.882,2.575h-2.071l4.699-12.819h1.567l4.699,12.819H-287.854z
				 M-291.221,78.348l-1.999,5.689h3.943L-291.221,78.348z"/>
		</g>
		<g>
			<path fill="#FFFFFF" d="M-273.687,88.269h-1.692l-2.611-8.985l-2.593,8.985h-1.693l-3.349-12.819h2.052l2.233,9.164l2.575-9.164
				h1.566l2.575,9.164l2.233-9.164h2.052L-273.687,88.269z"/>
		</g>
	</g>
</g>
<g>
	<g>
		<g>
			<defs>
				<circle id="SVGID_3_" cx="-122.598" cy="56.402" r="56.4"/>
			</defs>
			<clipPath id="SVGID_4_">
				<use xlink:href="#SVGID_3_"  overflow="visible"/>
			</clipPath>
			<rect x="-179" clip-path="url(#SVGID_4_)" fill="#164F3C" width="112.805" height="112.805"/>
			<circle clip-path="url(#SVGID_4_)" fill="#164F3C" cx="-122.598" cy="56.402" r="56.402"/>
			<circle clip-path="url(#SVGID_4_)" fill="#17503D" cx="-122.598" cy="56.402" r="54.051"/>
			<circle clip-path="url(#SVGID_4_)" fill="#17513E" cx="-122.598" cy="56.402" r="51.699"/>
			<circle clip-path="url(#SVGID_4_)" fill="#18523F" cx="-122.598" cy="56.402" r="49.352"/>
			<circle clip-path="url(#SVGID_4_)" fill="#18533F" cx="-122.598" cy="56.402" r="47"/>
			<circle clip-path="url(#SVGID_4_)" fill="#195440" cx="-122.598" cy="56.402" r="44.652"/>
			<circle clip-path="url(#SVGID_4_)" fill="#195541" cx="-122.598" cy="56.402" r="42.301"/>
			<circle clip-path="url(#SVGID_4_)" fill="#1A5642" cx="-122.598" cy="56.402" r="39.949"/>
			<circle clip-path="url(#SVGID_4_)" fill="#1A5743" cx="-122.598" cy="56.402" r="37.602"/>
			<circle clip-path="url(#SVGID_4_)" fill="#1B5844" cx="-122.598" cy="56.402" r="35.25"/>
			<circle clip-path="url(#SVGID_4_)" fill="#1B5945" cx="-122.598" cy="56.402" r="32.902"/>
			<circle clip-path="url(#SVGID_4_)" fill="#1C5A46" cx="-122.598" cy="56.402" r="30.551"/>
			<circle clip-path="url(#SVGID_4_)" fill="#1C5C46" cx="-122.598" cy="56.402" r="28.199"/>
			<circle clip-path="url(#SVGID_4_)" fill="#1D5D47" cx="-122.598" cy="56.402" r="25.852"/>
			<circle clip-path="url(#SVGID_4_)" fill="#1D5E48" cx="-122.598" cy="56.402" r="23.5"/>
			<circle clip-path="url(#SVGID_4_)" fill="#1E5F49" cx="-122.598" cy="56.402" r="21.152"/>
			<circle clip-path="url(#SVGID_4_)" fill="#1E604A" cx="-122.598" cy="56.402" r="18.801"/>
			<circle clip-path="url(#SVGID_4_)" fill="#1F614B" cx="-122.598" cy="56.402" r="16.449"/>
			<path clip-path="url(#SVGID_4_)" fill="#1F624C" d="M-108.496,56.402c0,7.785-6.316,14.102-14.102,14.102
				s-14.102-6.316-14.102-14.102s6.316-14.102,14.102-14.102S-108.496,48.617-108.496,56.402z"/>
			<circle clip-path="url(#SVGID_4_)" fill="#20634D" cx="-122.598" cy="56.402" r="11.75"/>
			<circle clip-path="url(#SVGID_4_)" fill="#20644D" cx="-122.598" cy="56.402" r="9.398"/>
			<circle clip-path="url(#SVGID_4_)" fill="#21654E" cx="-122.598" cy="56.402" r="7.051"/>
			<circle clip-path="url(#SVGID_4_)" fill="#21664F" cx="-122.598" cy="56.402" r="4.699"/>
			<circle clip-path="url(#SVGID_4_)" fill="#226750" cx="-122.598" cy="56.402" r="2.352"/>
		</g>
	</g>
	<g>
		<path fill="#FFFFFF" d="M-122.598,108.969c-28.985,0-52.567-23.581-52.567-52.567c0-28.985,23.582-52.567,52.567-52.567
			s52.566,23.582,52.566,52.567C-70.031,85.388-93.612,108.969-122.598,108.969z M-122.598,4.835
			c-28.434,0-51.567,23.133-51.567,51.567s23.133,51.567,51.567,51.567c28.434,0,51.566-23.133,51.566-51.567
			S-94.164,4.835-122.598,4.835z"/>
	</g>
	<g>
		<g>
			<path fill="#FFFFFF" d="M-119.508,67.764h-6.24l-14.1-42.719h8.641l8.579,27.839l8.579-27.839h8.7L-119.508,67.764z"/>
		</g>
	</g>
	<g>
		<g>
			<path fill="#FFFFFF" d="M-144.777,88.269h-1.513l-4.213-12.819h2.017l2.953,9.326l2.953-9.326h2.053L-144.777,88.269z"/>
		</g>
		<g>
			<path fill="#FFFFFF" d="M-138.767,88.269V75.449h8.192v1.746h-6.248v3.745h5.33v1.729h-5.33v3.853h6.248v1.747H-138.767z"/>
		</g>
		<g>
			<path fill="#FFFFFF" d="M-120.242,86.918c-0.954,1.008-2.179,1.459-3.529,1.459c-1.405,0-2.485-0.469-3.313-1.297
				c-1.243-1.26-1.296-2.539-1.296-5.221c0-2.684,0.054-3.962,1.296-5.223c0.828-0.828,1.908-1.296,3.313-1.296
				c2.701,0,4.303,1.782,4.645,3.961h-1.944c-0.324-1.404-1.26-2.232-2.701-2.232c-0.774,0-1.422,0.288-1.909,0.792
				c-0.63,0.684-0.756,1.459-0.756,3.998c0,2.538,0.126,3.312,0.756,3.996c0.486,0.504,1.134,0.793,1.909,0.793
				c0.846,0,1.602-0.324,2.106-0.918c0.468-0.541,0.63-1.189,0.63-2.018v-0.72h-2.737v-1.657h4.681v1.963
				C-119.09,84.974-119.396,86-120.242,86.918z"/>
		</g>
		<g>
			<path fill="#FFFFFF" d="M-109.046,88.269l-0.882-2.575h-5.06l-0.882,2.575h-2.071l4.699-12.819h1.567l4.699,12.819H-109.046z
				 M-112.413,78.348l-1.999,5.689h3.943L-112.413,78.348z"/>
		</g>
		<g>
			<path fill="#FFFFFF" d="M-97.292,88.269l-5.924-9.021v9.021h-1.945V75.449h1.783l5.924,9.002v-9.002h1.944v12.819H-97.292z"/>
		</g>
	</g>
</g>
<g>
	<g>
		<g>
			<defs>
				<circle id="SVGID_5_" cx="235.402" cy="56.402" r="56.4"/>
			</defs>
			<clipPath id="SVGID_6_">
				<use xlink:href="#SVGID_5_"  overflow="visible"/>
			</clipPath>
			<rect x="179" clip-path="url(#SVGID_6_)" fill="#164F3C" width="112.805" height="112.805"/>
			<circle clip-path="url(#SVGID_6_)" fill="#164F3C" cx="235.402" cy="56.402" r="56.402"/>
			<circle clip-path="url(#SVGID_6_)" fill="#17503D" cx="235.402" cy="56.402" r="54.051"/>
			<circle clip-path="url(#SVGID_6_)" fill="#17513E" cx="235.402" cy="56.402" r="51.699"/>
			<circle clip-path="url(#SVGID_6_)" fill="#18523F" cx="235.402" cy="56.402" r="49.352"/>
			<circle clip-path="url(#SVGID_6_)" fill="#18533F" cx="235.402" cy="56.402" r="47"/>
			<circle clip-path="url(#SVGID_6_)" fill="#195440" cx="235.402" cy="56.402" r="44.652"/>
			<circle clip-path="url(#SVGID_6_)" fill="#195541" cx="235.402" cy="56.402" r="42.301"/>
			<circle clip-path="url(#SVGID_6_)" fill="#1A5642" cx="235.402" cy="56.402" r="39.949"/>
			<circle clip-path="url(#SVGID_6_)" fill="#1A5743" cx="235.402" cy="56.402" r="37.602"/>
			<circle clip-path="url(#SVGID_6_)" fill="#1B5844" cx="235.402" cy="56.402" r="35.25"/>
			<circle clip-path="url(#SVGID_6_)" fill="#1B5945" cx="235.402" cy="56.402" r="32.902"/>
			<circle clip-path="url(#SVGID_6_)" fill="#1C5A46" cx="235.402" cy="56.402" r="30.551"/>
			<circle clip-path="url(#SVGID_6_)" fill="#1C5C46" cx="235.402" cy="56.402" r="28.199"/>
			<circle clip-path="url(#SVGID_6_)" fill="#1D5D47" cx="235.402" cy="56.402" r="25.852"/>
			<circle clip-path="url(#SVGID_6_)" fill="#1D5E48" cx="235.402" cy="56.402" r="23.5"/>
			<circle clip-path="url(#SVGID_6_)" fill="#1E5F49" cx="235.402" cy="56.402" r="21.152"/>
			<circle clip-path="url(#SVGID_6_)" fill="#1E604A" cx="235.402" cy="56.402" r="18.801"/>
			<circle clip-path="url(#SVGID_6_)" fill="#1F614B" cx="235.402" cy="56.402" r="16.449"/>
			<path clip-path="url(#SVGID_6_)" fill="#1F624C" d="M249.504,56.402c0,7.785-6.316,14.102-14.102,14.102
				s-14.102-6.316-14.102-14.102s6.316-14.102,14.102-14.102S249.504,48.617,249.504,56.402z"/>
			<circle clip-path="url(#SVGID_6_)" fill="#20634D" cx="235.402" cy="56.402" r="11.75"/>
			<circle clip-path="url(#SVGID_6_)" fill="#20644D" cx="235.402" cy="56.402" r="9.398"/>
			<circle clip-path="url(#SVGID_6_)" fill="#21654E" cx="235.402" cy="56.402" r="7.051"/>
			<circle clip-path="url(#SVGID_6_)" fill="#21664F" cx="235.402" cy="56.402" r="4.699"/>
			<circle clip-path="url(#SVGID_6_)" fill="#226750" cx="235.402" cy="56.402" r="2.352"/>
		</g>
	</g>
	<g>
		<path fill="#FFFFFF" d="M235.402,108.969c-28.985,0-52.566-23.581-52.566-52.567c0-28.985,23.581-52.567,52.566-52.567
			s52.566,23.582,52.566,52.567C287.969,85.388,264.388,108.969,235.402,108.969z M235.402,4.835
			c-28.434,0-51.566,23.133-51.566,51.567s23.133,51.567,51.566,51.567s51.566-23.133,51.566-51.567S263.836,4.835,235.402,4.835z"
			/>
	</g>
	<g>
		<g>
			<path fill="#FFFFFF" d="M247.076,67.764l-10.98-19.44l-5.52,6.6v12.84h-8.34V25.045h8.34v18.599l15.06-18.599h10.14l-14.16,16.98
				l15.18,25.739H247.076z"/>
		</g>
	</g>
	<g>
		<g>
			<path fill="#FFFFFF" d="M210.755,88.269l-3.601-6.319l-2.161,2.592v3.728h-1.944V75.449h1.944v6.445l5.239-6.445h2.377
				l-4.159,5.023l4.591,7.796H210.755z"/>
		</g>
		<g>
			<path fill="#FFFFFF" d="M222.167,87.08c-0.829,0.828-1.909,1.297-3.313,1.297s-2.484-0.469-3.312-1.297
				c-1.261-1.26-1.297-2.539-1.297-5.221c0-2.684,0.036-3.962,1.297-5.223c0.828-0.828,1.908-1.296,3.312-1.296
				s2.484,0.468,3.313,1.296c1.261,1.261,1.296,2.539,1.296,5.223C223.463,84.541,223.428,85.82,222.167,87.08z M220.762,77.861
				c-0.485-0.504-1.134-0.792-1.908-0.792c-0.773,0-1.422,0.288-1.908,0.792c-0.631,0.684-0.756,1.459-0.756,3.998
				c0,2.538,0.125,3.295,0.756,3.979c0.486,0.504,1.135,0.811,1.908,0.811c0.774,0,1.423-0.307,1.908-0.811
				c0.648-0.666,0.757-1.44,0.757-3.979C221.519,79.32,221.41,78.527,220.762,77.861z"/>
		</g>
		<g>
			<path fill="#FFFFFF" d="M229.744,88.377c-1.928,0-3.295-0.451-4.538-1.693l1.278-1.277c0.937,0.936,1.999,1.242,3.295,1.242
				c1.693,0,2.646-0.721,2.646-1.98c0-0.576-0.144-1.027-0.504-1.333c-0.324-0.288-0.756-0.45-1.404-0.54l-1.512-0.217
				c-1.045-0.161-1.855-0.485-2.413-1.025c-0.63-0.576-0.954-1.404-0.954-2.467c0-2.232,1.62-3.745,4.285-3.745
				c1.711,0,2.881,0.433,3.979,1.458l-1.225,1.225c-0.791-0.756-1.729-0.99-2.826-0.99c-1.513,0-2.322,0.828-2.322,1.998
				c0,0.469,0.125,0.9,0.468,1.189c0.324,0.287,0.702,0.468,1.404,0.576l1.53,0.233c1.17,0.181,1.818,0.45,2.377,0.954
				c0.684,0.631,1.045,1.513,1.045,2.629C234.354,86.973,232.444,88.377,229.744,88.377z"/>
		</g>
		<g>
			<path fill="#FFFFFF" d="M244.109,88.269v-5.6h-5.204v5.6h-1.944V75.449h1.944v5.473h5.204v-5.473h1.943v12.819H244.109z"/>
		</g>
		<g>
			<path fill="#FFFFFF" d="M249.398,88.269V75.449h8.192v1.746h-6.247v3.745h5.329v1.729h-5.329v3.853h6.247v1.747H249.398z"/>
		</g>
		<g>
			<path fill="#FFFFFF" d="M267.328,88.269l-2.7-5.401h-2.431v5.401h-1.945V75.449h4.971c2.43,0,3.979,1.566,3.979,3.744
				c0,1.837-1.116,3.008-2.557,3.403l2.953,5.672H267.328z M265.078,77.195h-2.881v4.016h2.881c1.297,0,2.179-0.738,2.179-1.999
				S266.375,77.195,265.078,77.195z"/>
		</g>
	</g>
</g>
<g>
	<g>
		<g>
			<defs>
				<circle id="SVGID_7_" cx="56.402" cy="56.402" r="56.4"/>
			</defs>
			<clipPath id="SVGID_8_">
				<use xlink:href="#SVGID_7_"  overflow="visible"/>
			</clipPath>
			<rect clip-path="url(#SVGID_8_)" fill="#164F3C" width="112.805" height="112.805"/>
			<circle clip-path="url(#SVGID_8_)" fill="#164F3C" cx="56.402" cy="56.402" r="56.402"/>
			<circle clip-path="url(#SVGID_8_)" fill="#17503D" cx="56.402" cy="56.402" r="54.051"/>
			<circle clip-path="url(#SVGID_8_)" fill="#17513E" cx="56.402" cy="56.402" r="51.699"/>
			<circle clip-path="url(#SVGID_8_)" fill="#18523F" cx="56.402" cy="56.402" r="49.352"/>
			<circle clip-path="url(#SVGID_8_)" fill="#18533F" cx="56.402" cy="56.402" r="47"/>
			<circle clip-path="url(#SVGID_8_)" fill="#195440" cx="56.402" cy="56.402" r="44.652"/>
			<circle clip-path="url(#SVGID_8_)" fill="#195541" cx="56.402" cy="56.402" r="42.301"/>
			<circle clip-path="url(#SVGID_8_)" fill="#1A5642" cx="56.402" cy="56.402" r="39.949"/>
			<circle clip-path="url(#SVGID_8_)" fill="#1A5743" cx="56.402" cy="56.402" r="37.602"/>
			<circle clip-path="url(#SVGID_8_)" fill="#1B5844" cx="56.402" cy="56.402" r="35.25"/>
			<circle clip-path="url(#SVGID_8_)" fill="#1B5945" cx="56.402" cy="56.402" r="32.902"/>
			<circle clip-path="url(#SVGID_8_)" fill="#1C5A46" cx="56.402" cy="56.402" r="30.551"/>
			<circle clip-path="url(#SVGID_8_)" fill="#1C5C46" cx="56.402" cy="56.402" r="28.199"/>
			<circle clip-path="url(#SVGID_8_)" fill="#1D5D47" cx="56.402" cy="56.402" r="25.852"/>
			<circle clip-path="url(#SVGID_8_)" fill="#1D5E48" cx="56.402" cy="56.402" r="23.5"/>
			<circle clip-path="url(#SVGID_8_)" fill="#1E5F49" cx="56.402" cy="56.402" r="21.152"/>
			<circle clip-path="url(#SVGID_8_)" fill="#1E604A" cx="56.402" cy="56.402" r="18.801"/>
			<circle clip-path="url(#SVGID_8_)" fill="#1F614B" cx="56.402" cy="56.402" r="16.449"/>
			<path clip-path="url(#SVGID_8_)" fill="#1F624C" d="M70.504,56.402c0,7.785-6.316,14.102-14.102,14.102
				s-14.102-6.316-14.102-14.102s6.316-14.102,14.102-14.102S70.504,48.617,70.504,56.402z"/>
			<circle clip-path="url(#SVGID_8_)" fill="#20634D" cx="56.402" cy="56.402" r="11.75"/>
			<circle clip-path="url(#SVGID_8_)" fill="#20644D" cx="56.402" cy="56.402" r="9.398"/>
			<circle clip-path="url(#SVGID_8_)" fill="#21654E" cx="56.402" cy="56.402" r="7.051"/>
			<circle clip-path="url(#SVGID_8_)" fill="#21664F" cx="56.402" cy="56.402" r="4.699"/>
			<circle clip-path="url(#SVGID_8_)" fill="#226750" cx="56.402" cy="56.402" r="2.352"/>
		</g>
	</g>
	<g>
		<path fill="#FFFFFF" d="M56.402,108.969c-28.985,0-52.566-23.581-52.566-52.567c0-28.985,23.581-52.567,52.566-52.567
			s52.566,23.582,52.566,52.567C108.969,85.388,85.388,108.969,56.402,108.969z M56.402,4.835
			c-28.434,0-51.566,23.133-51.566,51.567s23.133,51.567,51.566,51.567s51.566-23.133,51.566-51.567S84.836,4.835,56.402,4.835z"/>
	</g>
	<g>
		<g>
			<path fill="#FFFFFF" d="M52.488,62.053c-3.305,3.473-7,4.537-11.256,4.537c-4.537,0-7.896-1.513-10.641-4.201
				c-3.977-3.976-4.031-8.456-4.031-16.072c0-7.616,0.055-12.096,4.031-16.072c2.744-2.688,6.104-4.2,10.641-4.2
				c9.295,0,13.943,6.048,15.008,12.768H48.4c-0.896-3.808-3.192-5.823-7.168-5.823c-2.129,0-3.809,0.839-4.984,2.128
				c-1.456,1.679-1.904,3.583-1.904,11.199c0,7.616,0.448,9.576,1.904,11.256c1.176,1.289,2.855,2.072,4.984,2.072
				c2.407,0,4.312-0.84,5.543-2.24c1.289-1.455,1.793-3.247,1.793-5.32v-1.456h-7.336v-6.552h15.063v5.824
				C56.296,55.669,55.4,59.029,52.488,62.053z"/>
		</g>
		<g>
			<path fill="#FFFFFF" d="M72.031,33.326v9.799h15.736v6.944H72.031v16.184h-7.784V26.381h26.264v6.944H72.031z"/>
		</g>
	</g>
	<g>
		<g>
			<path fill="#FFFFFF" d="M36.314,82.008c-0.795,0.84-1.814,1.215-2.939,1.215c-1.17,0-2.07-0.391-2.76-1.08
				c-1.035-1.051-1.08-2.115-1.08-4.35c0-2.235,0.045-3.301,1.08-4.35c0.689-0.69,1.59-1.08,2.76-1.08
				c2.25,0,3.584,1.484,3.869,3.299h-1.619c-0.271-1.17-1.051-1.859-2.25-1.859c-0.646,0-1.186,0.24-1.59,0.66
				c-0.525,0.57-0.631,1.215-0.631,3.33c0,2.114,0.105,2.76,0.631,3.33c0.404,0.42,0.944,0.659,1.59,0.659
				c0.705,0,1.334-0.271,1.754-0.765c0.391-0.45,0.525-0.99,0.525-1.68v-0.601h-2.279v-1.38h3.899v1.635
				C37.274,80.387,37.02,81.242,36.314,82.008z"/>
		</g>
		<g>
			<path fill="#FFFFFF" d="M39.66,83.133v-10.68h1.619v9.225h5.145v1.455H39.66z"/>
		</g>
		<g>
			<path fill="#FFFFFF" d="M51.329,83.223c-2.175,0-3.825-1.485-3.825-3.689v-7.08h1.621v7.004c0,1.426,0.869,2.311,2.204,2.311
				s2.22-0.885,2.22-2.311v-7.004h1.62v7.08C55.169,81.737,53.504,83.223,51.329,83.223z"/>
		</g>
		<g>
			<path fill="#FFFFFF" d="M61.409,73.908v9.225h-1.62v-9.225H56.85v-1.455h7.5v1.455H61.409z"/>
		</g>
		<g>
			<path fill="#FFFFFF" d="M66.194,83.133v-10.68h6.825v1.455h-5.205v3.119h4.439v1.439h-4.439v3.211h5.205v1.455H66.194z"/>
		</g>
		<g>
			<path fill="#FFFFFF" d="M81.794,83.133l-4.935-7.516v7.516h-1.62v-10.68h1.485l4.934,7.5v-7.5h1.621v10.68H81.794z"/>
		</g>
		<g>
			<path fill="#FFFFFF" d="M41.271,88.908v3.254h4.44v1.455h-4.44v4.516h-1.619v-10.68h6.824v1.455H41.271z"/>
		</g>
		<g>
			<path fill="#FFFFFF" d="M54.322,98.133l-2.25-4.5h-2.025v4.5h-1.619v-10.68h4.139c2.025,0,3.315,1.305,3.315,3.119
				c0,1.53-0.93,2.506-2.13,2.836l2.46,4.725H54.322z M52.447,88.908h-2.4v3.344h2.4c1.08,0,1.814-0.614,1.814-1.664
				C54.262,89.537,53.527,88.908,52.447,88.908z"/>
		</g>
		<g>
			<path fill="#FFFFFF" d="M58.252,98.133v-10.68h6.825v1.455h-5.205v3.119h4.44v1.439h-4.44v3.211h5.205v1.455H58.252z"/>
		</g>
		<g>
			<path fill="#FFFFFF" d="M67.297,98.133v-10.68h6.825v1.455h-5.205v3.119h4.44v1.439h-4.44v3.211h5.205v1.455H67.297z"/>
		</g>
	</g>
</g>
</svg>
