<?xml version="1.0" encoding="utf-8"?>
<!-- Generator: Adobe Illustrator 16.0.0, SVG Export Plug-In . SVG Version: 6.00 Build 0)  -->
<!DOCTYPE svg PUBLIC "-//W3C//DTD SVG 1.1//EN" "http://www.w3.org/Graphics/SVG/1.1/DTD/svg11.dtd">
<svg version="1.1" id="Layer_1" xmlns="http://www.w3.org/2000/svg" xmlns:xlink="http://www.w3.org/1999/xlink" x="0px" y="0px"
	 width="112.805px" height="112.805px" viewBox="0 0 112.805 112.805" enable-background="new 0 0 112.805 112.805"
	 xml:space="preserve">
<g>
	<g>
		<g>
			<defs>
				<circle id="SVGID_1_" cx="56.402" cy="56.403" r="56.053"/>
			</defs>
			<clipPath id="SVGID_2_">
				<use xlink:href="#SVGID_1_"  overflow="visible"/>
			</clipPath>
			<rect x="0.348" y="0.347" clip-path="url(#SVGID_2_)" fill="#17503C" width="112.109" height="112.11"/>
			<circle clip-path="url(#SVGID_2_)" fill="#17503C" cx="56.403" cy="56.403" r="56.055"/>
			<circle clip-path="url(#SVGID_2_)" fill="#17503D" cx="56.403" cy="56.403" r="53.719"/>
			<circle clip-path="url(#SVGID_2_)" fill="#18523E" cx="56.403" cy="56.403" r="51.381"/>
			<path clip-path="url(#SVGID_2_)" fill="#195340" d="M105.451,56.403c0,27.086-21.963,49.048-49.048,49.048
				c-27.086,0-49.049-21.962-49.049-49.048c0-27.087,21.963-49.048,49.049-49.048C83.489,7.355,105.451,29.316,105.451,56.403z"/>
			<circle clip-path="url(#SVGID_2_)" fill="#1A5440" cx="56.404" cy="56.403" r="46.712"/>
			<circle clip-path="url(#SVGID_2_)" fill="#1A5440" cx="56.403" cy="56.403" r="44.378"/>
			<circle clip-path="url(#SVGID_2_)" fill="#1B5642" cx="56.403" cy="56.403" r="42.04"/>
			<circle clip-path="url(#SVGID_2_)" fill="#1B5643" cx="56.402" cy="56.403" r="39.703"/>
			<circle clip-path="url(#SVGID_2_)" fill="#1B5844" cx="56.402" cy="56.403" r="37.369"/>
			<circle clip-path="url(#SVGID_2_)" fill="#1A5944" cx="56.403" cy="56.403" r="35.032"/>
			<circle clip-path="url(#SVGID_2_)" fill="#1B5945" cx="56.403" cy="56.403" r="32.7"/>
			<circle clip-path="url(#SVGID_2_)" fill="#1D5A46" cx="56.402" cy="56.403" r="30.364"/>
			<circle clip-path="url(#SVGID_2_)" fill="#1E5D47" cx="56.403" cy="56.403" r="28.025"/>
			<circle clip-path="url(#SVGID_2_)" fill="#1E5D47" cx="56.403" cy="56.403" r="25.691"/>
			<path clip-path="url(#SVGID_2_)" fill="#1E5F49" d="M79.758,56.403c0,12.901-10.453,23.355-23.355,23.355
				c-12.9,0-23.355-10.454-23.355-23.355c0-12.899,10.456-23.355,23.355-23.355C69.305,33.047,79.758,43.503,79.758,56.403z"/>
			<circle clip-path="url(#SVGID_2_)" fill="#215F49" cx="56.404" cy="56.403" r="21.022"/>
			<circle clip-path="url(#SVGID_2_)" fill="#21614A" cx="56.403" cy="56.403" r="18.685"/>
			<circle clip-path="url(#SVGID_2_)" fill="#22614C" cx="56.402" cy="56.403" r="16.348"/>
			<path clip-path="url(#SVGID_2_)" fill="#22634D" d="M70.418,56.403c0,7.737-6.277,14.015-14.015,14.015
				c-7.737,0-14.015-6.277-14.015-14.015c0-7.736,6.278-14.015,14.015-14.015C64.141,42.388,70.418,48.666,70.418,56.403z"/>
			<circle clip-path="url(#SVGID_2_)" fill="#22644D" cx="56.403" cy="56.403" r="11.677"/>
			<circle clip-path="url(#SVGID_2_)" fill="#22654E" cx="56.402" cy="56.403" r="9.34"/>
			<circle clip-path="url(#SVGID_2_)" fill="#23654E" cx="56.403" cy="56.403" r="7.007"/>
			<circle clip-path="url(#SVGID_2_)" fill="#236750" cx="56.403" cy="56.403" r="4.67"/>
			<circle clip-path="url(#SVGID_2_)" fill="#246851" cx="56.402" cy="56.403" r="2.336"/>
		</g>
	</g>
	<g>
		<path fill="#FFFFFF" d="M56.403,108.645c-28.807,0-52.243-23.435-52.243-52.242c0-28.809,23.436-52.243,52.243-52.243
			c28.808,0,52.244,23.435,52.244,52.243C108.647,85.21,85.211,108.645,56.403,108.645z M56.403,5.153
			c-28.259,0-51.249,22.989-51.249,51.25c0,28.259,22.99,51.25,51.249,51.25c28.257,0,51.25-22.991,51.25-51.25
			C107.653,28.142,84.66,5.153,56.403,5.153z"/>
	</g>
	<g>
		<g>
			<path fill="#FFFFFF" d="M52.513,62.019c-3.285,3.451-6.957,4.509-11.187,4.509c-4.509,0-7.849-1.502-10.575-4.175
				c-3.952-3.952-4.006-8.403-4.006-15.975c0-7.568,0.055-12.021,4.006-15.973c2.727-2.671,6.066-4.173,10.575-4.173
				c9.238,0,13.857,6.011,14.916,12.688H48.45c-0.892-3.783-3.173-5.785-7.124-5.785c-2.116,0-3.785,0.833-4.954,2.113
				c-1.447,1.669-1.893,3.562-1.893,11.13c0,7.571,0.446,9.519,1.893,11.188c1.169,1.281,2.838,2.06,4.954,2.06
				c2.392,0,4.285-0.834,5.509-2.227c1.28-1.446,1.782-3.228,1.782-5.287v-1.446h-7.291v-6.512h14.971v5.787
				C56.298,55.674,55.407,59.014,52.513,62.019z"/>
		</g>
		<g>
			<path fill="#FFFFFF" d="M71.936,33.469v9.737h15.639v6.901H71.936v16.085h-7.736V26.567h26.102v6.902H71.936z"/>
		</g>
	</g>
	<g>
		<g>
			<path fill="#FFFFFF" d="M36.439,81.851c-0.791,0.834-1.803,1.207-2.921,1.207c-1.163,0-2.058-0.388-2.743-1.073
				c-1.029-1.044-1.073-2.103-1.073-4.322c0-2.223,0.044-3.281,1.073-4.323c0.686-0.687,1.58-1.074,2.743-1.074
				c2.236,0,3.562,1.476,3.846,3.279h-1.61c-0.269-1.163-1.045-1.849-2.236-1.849c-0.642,0-1.179,0.239-1.579,0.656
				c-0.523,0.566-0.628,1.207-0.628,3.311c0,2.101,0.104,2.742,0.628,3.309c0.4,0.419,0.937,0.655,1.579,0.655
				c0.7,0,1.326-0.268,1.742-0.759c0.388-0.447,0.523-0.985,0.523-1.67V78.6h-2.265v-1.371h3.875v1.625
				C37.393,80.24,37.14,81.09,36.439,81.851z"/>
		</g>
		<g>
			<path fill="#FFFFFF" d="M39.764,82.97V72.355h1.609v9.169h5.113v1.446H39.764z"/>
		</g>
		<g>
			<path fill="#FFFFFF" d="M51.361,83.058c-2.162,0-3.802-1.477-3.802-3.666v-7.037h1.612v6.961c0,1.417,0.863,2.296,2.19,2.296
				c1.328,0,2.206-0.879,2.206-2.296v-6.961h1.61v7.037C55.177,81.581,53.522,83.058,51.361,83.058z"/>
		</g>
		<g>
			<path fill="#FFFFFF" d="M61.379,73.801v9.169h-1.611v-9.169h-2.921v-1.446h7.454v1.446H61.379z"/>
		</g>
		<g>
			<path fill="#FFFFFF" d="M66.135,82.97V72.355h6.783v1.446h-5.172v3.101h4.412v1.431h-4.412v3.191h5.172v1.446H66.135z"/>
		</g>
		<g>
			<path fill="#FFFFFF" d="M81.639,82.97l-4.904-7.471v7.471h-1.611V72.355H76.6l4.904,7.455v-7.455h1.609V82.97H81.639z"/>
		</g>
		<g>
			<path fill="#FFFFFF" d="M41.365,88.708v3.235h4.414v1.445h-4.414v4.487h-1.609V87.263h6.784v1.445H41.365z"/>
		</g>
		<g>
			<path fill="#FFFFFF" d="M54.335,97.876l-2.236-4.472h-2.013v4.472h-1.608V87.263h4.112c2.014,0,3.296,1.296,3.296,3.1
				c0,1.521-0.924,2.49-2.117,2.818l2.444,4.695H54.335z M52.473,88.708h-2.387v3.323h2.387c1.072,0,1.803-0.61,1.803-1.653
				C54.276,89.333,53.545,88.708,52.473,88.708z"/>
		</g>
		<g>
			<path fill="#FFFFFF" d="M58.24,97.876V87.263h6.785v1.445h-5.174v3.101h4.412v1.431h-4.412v3.19h5.174v1.446H58.24z"/>
		</g>
		<g>
			<path fill="#FFFFFF" d="M67.231,97.876V87.263h6.783v1.445h-5.172v3.101h4.412v1.431h-4.412v3.19h5.172v1.446H67.231z"/>
		</g>
	</g>
</g>
</svg>
