<?xml version="1.0" encoding="utf-8"?>
<!-- Generator: Adobe Illustrator 16.0.0, SVG Export Plug-In . SVG Version: 6.00 Build 0)  -->
<!DOCTYPE svg PUBLIC "-//W3C//DTD SVG 1.1//EN" "http://www.w3.org/Graphics/SVG/1.1/DTD/svg11.dtd">
<svg version="1.1" id="Layer_1" xmlns="http://www.w3.org/2000/svg" xmlns:xlink="http://www.w3.org/1999/xlink" x="0px" y="0px"
	 width="112.805px" height="112.805px" viewBox="0 0 112.805 112.805" enable-background="new 0 0 112.805 112.805"
	 xml:space="preserve">
<g>
	<g>
		<g>
			<g>
				<defs>
					<circle id="SVGID_1_" cx="56.403" cy="56" r="56"/>
				</defs>
				<clipPath id="SVGID_2_">
					<use xlink:href="#SVGID_1_"  overflow="visible"/>
				</clipPath>
				<rect x="0.401" y="-0.002" clip-path="url(#SVGID_2_)" fill="#17503C" width="112.003" height="112.003"/>
				<circle clip-path="url(#SVGID_2_)" fill="#17503C" cx="56.403" cy="56" r="56.002"/>
				<circle clip-path="url(#SVGID_2_)" fill="#17503D" cx="56.403" cy="56" r="53.668"/>
				<circle clip-path="url(#SVGID_2_)" fill="#18523E" cx="56.403" cy="56" r="51.332"/>
				<path clip-path="url(#SVGID_2_)" fill="#195340" d="M105.405,56c0,27.06-21.941,49.001-49.001,49.001S7.401,83.06,7.401,56
					c0-27.061,21.942-49.001,49.002-49.001S105.405,28.939,105.405,56z"/>
				<circle clip-path="url(#SVGID_2_)" fill="#1A5440" cx="56.403" cy="56" r="46.667"/>
				<circle clip-path="url(#SVGID_2_)" fill="#1A5440" cx="56.403" cy="56" r="44.336"/>
				<path clip-path="url(#SVGID_2_)" fill="#1B5642" d="M98.404,56c0,23.198-18.803,41.999-42,41.999s-42-18.801-42-41.999
					c0-23.198,18.803-42,42-42S98.404,32.802,98.404,56z"/>
				<circle clip-path="url(#SVGID_2_)" fill="#1B5643" cx="56.402" cy="56" r="39.666"/>
				<circle clip-path="url(#SVGID_2_)" fill="#1B5844" cx="56.402" cy="56" r="37.334"/>
				<circle clip-path="url(#SVGID_2_)" fill="#1A5944" cx="56.403" cy="56" r="34.999"/>
				<circle clip-path="url(#SVGID_2_)" fill="#1B5945" cx="56.403" cy="56" r="32.669"/>
				<path clip-path="url(#SVGID_2_)" fill="#1D5A46" d="M86.737,56c0,16.75-13.582,30.334-30.333,30.334
					c-16.75,0-30.335-13.584-30.335-30.334c0-16.751,13.585-30.334,30.335-30.334C73.155,25.666,86.737,39.249,86.737,56z"/>
				<circle clip-path="url(#SVGID_2_)" fill="#1E5D47" cx="56.403" cy="56" r="27.999"/>
				<circle clip-path="url(#SVGID_2_)" fill="#1E5D47" cx="56.403" cy="56" r="25.667"/>
				<circle clip-path="url(#SVGID_2_)" fill="#1E5F49" cx="56.403" cy="56" r="23.333"/>
				<path clip-path="url(#SVGID_2_)" fill="#215F49" d="M77.406,56c0,11.597-9.407,21.002-21.003,21.002
					c-11.598,0-21.002-9.405-21.002-21.002c0-11.597,9.404-21.002,21.002-21.002C67.999,34.998,77.406,44.403,77.406,56z"/>
				<circle clip-path="url(#SVGID_2_)" fill="#21614A" cx="56.403" cy="56" r="18.667"/>
				<circle clip-path="url(#SVGID_2_)" fill="#22614C" cx="56.403" cy="56" r="16.333"/>
				<path clip-path="url(#SVGID_2_)" fill="#22634D" d="M70.406,56c0,7.729-6.271,14.001-14.002,14.001
					c-7.729,0-14.001-6.271-14.001-14.001c0-7.729,6.272-14,14.001-14C64.134,42,70.406,48.271,70.406,56z"/>
				<circle clip-path="url(#SVGID_2_)" fill="#22644D" cx="56.403" cy="56" r="11.667"/>
				<circle clip-path="url(#SVGID_2_)" fill="#22654E" cx="56.403" cy="56" r="9.332"/>
				<circle clip-path="url(#SVGID_2_)" fill="#23654E" cx="56.403" cy="56" r="7"/>
				<circle clip-path="url(#SVGID_2_)" fill="#236750" cx="56.403" cy="56" r="4.666"/>
				<circle clip-path="url(#SVGID_2_)" fill="#246851" cx="56.403" cy="56" r="2.335"/>
			</g>
		</g>
		<g>
			<path fill="#FFFFFF" d="M56.403,108.193C27.623,108.193,4.21,84.78,4.21,56c0-28.781,23.413-52.194,52.193-52.194
				c28.781,0,52.194,23.413,52.194,52.194C108.597,84.78,85.184,108.193,56.403,108.193z M56.403,4.799
				c-28.232,0-51.2,22.968-51.2,51.201c0,28.231,22.968,51.201,51.2,51.201c28.231,0,51.201-22.97,51.201-51.201
				C107.604,27.767,84.634,4.799,56.403,4.799z"/>
		</g>
	</g>
	<g>
		<path fill="#FFFFFF" d="M47.275,40.278l-5.936-9.039v9.039H39.39V27.431h1.787l5.936,9.021v-9.021h1.949v12.846H47.275z"/>
		<path fill="#FFFFFF" d="M59.889,39.087c-0.83,0.829-1.913,1.299-3.32,1.299c-1.408,0-2.49-0.47-3.32-1.299
			c-1.262-1.262-1.299-2.544-1.299-5.232c0-2.688,0.037-3.97,1.299-5.232c0.831-0.83,1.913-1.299,3.32-1.299
			c1.407,0,2.49,0.469,3.32,1.299c1.262,1.262,1.298,2.543,1.298,5.232C61.187,36.542,61.151,37.824,59.889,39.087z M58.481,29.849
			c-0.487-0.505-1.137-0.794-1.912-0.794c-0.776,0-1.426,0.289-1.913,0.794c-0.632,0.686-0.757,1.462-0.757,4.005
			c0,2.543,0.125,3.302,0.757,3.987c0.486,0.505,1.137,0.812,1.913,0.812c0.775,0,1.425-0.306,1.912-0.812
			c0.649-0.668,0.758-1.444,0.758-3.987C59.239,31.311,59.13,30.517,58.481,29.849z"/>
		<path fill="#FFFFFF" d="M71.96,40.278l-5.936-9.039v9.039h-1.948V27.431h1.785l5.937,9.021v-9.021h1.948v12.846H71.96z"/>
	</g>
	<g>
		<path fill="#FFFFFF" d="M35.134,73.363c-2.606,2.738-5.521,3.577-8.877,3.577c-3.577,0-6.227-1.192-8.391-3.312
			c-3.135-3.137-3.18-6.669-3.18-12.675c0-6.006,0.044-9.54,3.18-12.675c2.164-2.12,4.814-3.312,8.391-3.312
			c7.331,0,10.997,4.769,11.836,10.069H31.91c-0.707-3.003-2.517-4.593-5.653-4.593c-1.678,0-3.003,0.663-3.93,1.679
			c-1.148,1.324-1.501,2.826-1.501,8.833c0,6.006,0.353,7.552,1.501,8.877c0.927,1.016,2.252,1.634,3.93,1.634
			c1.899,0,3.401-0.662,4.373-1.767c1.016-1.148,1.413-2.562,1.413-4.195v-1.148h-5.786v-5.167h11.881v4.593
			C38.137,68.328,37.43,70.979,35.134,73.363z"/>
		<path fill="#FFFFFF" d="M64.74,76.675V58.347l-6.007,11.925h-4.151l-6.05-11.925v18.328h-6.139V45.23h6.05l8.215,17.002
			l8.169-17.002h6.051v31.445H64.74z"/>
		<path fill="#FFFFFF" d="M95.228,73.628c-2.118,2.119-4.769,3.312-8.39,3.312c-3.622,0-6.315-1.192-8.436-3.312
			c-3.137-3.137-3.179-6.669-3.179-12.675c0-6.006,0.042-9.54,3.179-12.675c2.12-2.12,4.813-3.312,8.436-3.312
			c3.621,0,6.271,1.192,8.39,3.312c3.137,3.136,3.225,6.669,3.225,12.675C98.452,66.959,98.365,70.491,95.228,73.628z
			 M90.769,52.121c-0.884-1.016-2.253-1.679-3.931-1.679c-1.679,0-3.048,0.663-3.975,1.679c-1.148,1.324-1.502,2.826-1.502,8.833
			c0,6.006,0.354,7.463,1.502,8.788c0.927,1.016,2.296,1.723,3.975,1.723c1.678,0,3.047-0.707,3.931-1.723
			c1.148-1.325,1.546-2.782,1.546-8.788C92.315,54.947,91.917,53.445,90.769,52.121z"/>
	</g>
</g>
</svg>
