<?xml version="1.0" encoding="utf-8"?>
<!-- Generator: Adobe Illustrator 16.0.0, SVG Export Plug-In . SVG Version: 6.00 Build 0)  -->
<!DOCTYPE svg PUBLIC "-//W3C//DTD SVG 1.1//EN" "http://www.w3.org/Graphics/SVG/1.1/DTD/svg11.dtd">
<svg version="1.1" id="Layer_1" xmlns="http://www.w3.org/2000/svg" xmlns:xlink="http://www.w3.org/1999/xlink" x="0px" y="0px"
	 width="160px" height="65px" viewBox="-20.083 -2.5 160 65" enable-background="new -20.083 -2.5 160 65" xml:space="preserve">
<g>
	<g>
		<path d="M109.378,35.821c-5.956-1.229-14.656-1.887-14.656-5.434c0-2.612,3.432-2.833,5.57-2.833c1.604,0,3.053,0.293,4.123,0.942
			c1.069,0.655,1.678,1.669,1.678,3.266h10.925c1.046,0,1.338-0.545,1.127-1.505c-0.554-2.455-1.641-8.108-1.408-11.521
			c0.235-3.388,2.188-7.606,5.438-7.435c1.512,2.302,3.724,3.233,5.983,3.233c4.497,0,8.138-3.646,8.138-8.139
			c0-4.496-2.947-8.14-9.172-8.14c-5.802,0-16.551,7.975-12.387,25.693c-3.507-3.356-9.274-4.37-14.905-4.37
			c-7.782,0-18.088,2.466-18.088,11.53c0,10.151,10.228,10.367,18.396,12.324c2.287,0.51,6.336,1.087,6.336,3.991
			c0,2.975-3.586,3.987-6.11,3.987c-1.827,0-3.584-0.436-4.805-1.305c-1.297-0.944-2.136-2.323-2.136-4.206H81.06
			c0.385,10.515,9.999,13.487,19.386,13.487c8.932,0,19.005-3.338,19.005-13.416C119.452,42.855,117.388,37.349,109.378,35.821"/>
		<path d="M137.395,20.243h-18.47c0,0,2.744,0.199,2.744,1.939v34.519c0,1.604-2.744,1.936-2.744,1.936h18.47
			c0,0-2.748-0.252-2.748-1.936V22.183C134.646,20.427,137.395,20.243,137.395,20.243"/>
	</g>
	<g>
		<path d="M38.499,20.183c0,0,6.603,0,11.042,0c5.895,0,7.997,4.876,7.997,4.876l9.191,15.782h0.116V23.265
			c0-3.23-3.18-3.082-3.18-3.082H82.06c0,0-3.183,0.238-3.183,3.715v32.569c0,2.329,2.543,2.329,2.543,2.329s-3.218,0-8.285,0
			c-5.768,0-8.917-5.068-8.917-5.068L53.829,37.702h-0.115v17.794c0,3.498,3.181,3.3,3.181,3.3H45.489h-6.99
			c0,0,3.181,0.199,3.181-3.617v-29.7C41.68,20.034,38.499,20.183,38.499,20.183"/>
	</g>
	<g>
		<path fill="#016E4D" d="M11.021,60.666c-0.528-0.093-12.973-2.39-20.553-13.694c-7.534-11.229-7.21-26.827-7.194-27.485
			l0.032-1.211l1.117,0.469c0.64,0.266,15.707,6.674,23.23,17.89c7.601,11.327,4.448,22.952,4.309,23.44l-0.204,0.721L11.021,60.666
			z"/>
		<path fill="#FFFFFF" d="M-15.896,19.508c0,0,15.39,6.448,22.86,17.589c7.475,11.14,4.2,22.751,4.2,22.751
			S-1.373,57.65-8.843,46.511C-16.315,35.371-15.896,19.508-15.896,19.508 M-17.49,17.04l-0.064,2.424
			c-0.019,0.669-0.346,16.523,7.333,27.971c7.774,11.596,20.557,13.954,21.098,14.048l1.477,0.26L12.76,60.3
			c0.143-0.504,3.394-12.485-4.42-24.129c-7.659-11.42-22.948-17.922-23.595-18.193L-17.49,17.04L-17.49,17.04z"/>
	</g>
	<g>
		<path fill="#414042" d="M10.58,59.545c-0.304-0.289-7.433-7.155-6.976-17.892c0.447-10.62,8.167-20.744,8.496-21.171l0.715-0.927
			l0.637,0.982c0.292,0.449,7.128,11.119,6.678,21.74c-0.45,10.731-8.132,17.045-8.459,17.31l-0.563,0.454L10.58,59.545z"/>
		<path fill="#FFFFFF" d="M12.754,20.99c0,0,6.989,10.774,6.544,21.254c-0.439,10.479-8.151,16.698-8.151,16.698
			S3.986,52.17,4.431,41.688C4.873,31.209,12.754,20.99,12.754,20.99 M12.871,18.122l-1.429,1.854
			c-0.336,0.434-8.208,10.762-8.667,21.642c-0.473,11.11,6.92,18.232,7.235,18.529l1.053,0.996l1.129-0.91
			c0.338-0.273,8.303-6.816,8.768-17.92c0.459-10.883-6.515-21.768-6.812-22.227L12.871,18.122L12.871,18.122z"/>
	</g>
	<g>
		<path d="M12.226,58.897c-0.084-0.306-2.013-7.551,2.744-14.573c4.685-6.912,13.992-10.821,14.386-10.984l1.121-0.463l0.025,1.212
			c0.009,0.405,0.164,10.034-4.528,16.962c-4.744,6.993-12.483,8.388-12.81,8.442l-0.739,0.127L12.226,58.897z"/>
		<path fill="#FFFFFF" d="M29.674,34.106c0,0,0.211,9.69-4.386,16.478c-4.6,6.782-12.263,8.091-12.263,8.091
			s-1.965-7.1,2.632-13.887C20.255,38.006,29.674,34.106,29.674,34.106 M31.279,31.646l-2.24,0.927
			c-0.403,0.167-9.934,4.171-14.756,11.286c-4.97,7.336-2.945,14.939-2.858,15.258l0.399,1.446l1.478-0.254
			c0.342-0.058,8.416-1.512,13.356-8.794c4.839-7.146,4.68-17.029,4.671-17.446L31.279,31.646L31.279,31.646z"/>
	</g>
</g>
</svg>
