<?xml version="1.0" encoding="utf-8"?>
<!-- Generator: Adobe Illustrator 16.0.0, SVG Export Plug-In . SVG Version: 6.00 Build 0)  -->
<!DOCTYPE svg PUBLIC "-//W3C//DTD SVG 1.1//EN" "http://www.w3.org/Graphics/SVG/1.1/DTD/svg11.dtd">
<svg version="1.1" id="Layer_1" xmlns="http://www.w3.org/2000/svg" xmlns:xlink="http://www.w3.org/1999/xlink" x="0px" y="0px"
	 width="140px" height="60px" viewBox="0 0 140 60" enable-background="new 0 0 140 60" xml:space="preserve">
<g>
	<g>
		<path d="M113.244,36.02c-5.297-1.094-13.033-1.678-13.033-4.832c0-2.324,3.051-2.519,4.953-2.519c1.426,0,2.715,0.26,3.666,0.838
			c0.951,0.582,1.492,1.483,1.492,2.903h9.715c0.93,0,1.189-0.484,1.002-1.338c-0.492-2.183-1.459-7.21-1.252-10.244
			c0.209-3.013,1.945-6.764,4.836-6.611c1.344,2.046,3.311,2.875,5.32,2.875c3.998,0,7.236-3.242,7.236-7.237
			c0-3.998-2.621-7.238-8.156-7.238c-5.158,0-14.717,7.091-11.014,22.847c-3.119-2.985-8.248-3.886-13.254-3.886
			c-6.92,0-16.084,2.193-16.084,10.253c0,9.027,9.094,9.219,16.359,10.959c2.033,0.453,5.633,0.967,5.633,3.549
			c0,2.645-3.189,3.545-5.432,3.545c-1.625,0-3.188-0.387-4.273-1.16c-1.154-0.84-1.9-2.066-1.9-3.74H88.062
			c0.342,9.35,8.891,11.992,17.238,11.992c7.943,0,16.9-2.967,16.9-11.928C122.201,42.273,120.365,37.377,113.244,36.02"/>
		<path d="M138.156,22.167h-16.424c0,0,2.441,0.177,2.441,1.724v30.695c0,1.426-2.441,1.721-2.441,1.721h16.424
			c0,0-2.443-0.225-2.443-1.721V23.891C135.713,22.33,138.156,22.167,138.156,22.167"/>
	</g>
	<g>
		<path d="M50.217,22.113c0,0,5.871,0,9.818,0c5.242,0,7.111,4.336,7.111,4.336l8.172,14.033h0.104V24.854
			c0-2.873-2.828-2.741-2.828-2.741h16.357c0,0-2.83,0.212-2.83,3.303v28.962c0,2.07,2.262,2.07,2.262,2.07s-2.861,0-7.367,0
			c-5.129,0-7.93-4.506-7.93-4.506l-9.238-14.25h-0.102v15.822c0,3.111,2.828,2.934,2.828,2.934H56.432h-6.215
			c0,0,2.828,0.178,2.828-3.215V26.822C53.045,21.981,50.217,22.113,50.217,22.113"/>
	</g>
	<g>
		<path fill="#016E4D" d="M25.783,58.111c-0.469-0.082-11.536-2.125-18.276-12.177C0.808,35.949,1.095,22.079,1.11,21.494
			l0.028-1.077l0.994,0.417C2.7,21.07,16.098,26.768,22.788,36.741c6.759,10.073,3.955,20.409,3.832,20.844l-0.181,0.642
			L25.783,58.111z"/>
		<path fill="#FFFFFF" d="M1.848,21.513c0,0,13.684,5.734,20.328,15.639c6.646,9.906,3.734,20.232,3.734,20.232
			S14.762,55.43,8.119,45.523C1.475,35.619,1.848,21.513,1.848,21.513 M0.43,19.319l-0.057,2.155
			c-0.016,0.595-0.307,14.693,6.521,24.872c6.913,10.31,18.28,12.408,18.761,12.492l1.313,0.23l0.361-1.283
			c0.127-0.448,3.018-11.102-3.93-21.455C16.588,26.175,2.993,20.394,2.418,20.152L0.43,19.319L0.43,19.319z"/>
	</g>
	<g>
		<path fill="#414042" d="M25.39,57.114c-0.27-0.256-6.609-6.362-6.203-15.909c0.398-9.443,7.262-18.446,7.554-18.825l0.636-0.825
			l0.567,0.874c0.259,0.399,6.338,9.887,5.938,19.332c-0.4,9.542-7.231,15.156-7.522,15.391l-0.501,0.404L25.39,57.114z"/>
		<path fill="#FFFFFF" d="M27.324,22.831c0,0,6.215,9.581,5.82,18.899c-0.391,9.318-7.248,14.848-7.248,14.848
			s-6.369-6.021-5.973-15.342C20.316,31.918,27.324,22.831,27.324,22.831 M27.428,20.28l-1.271,1.65
			c-0.299,0.386-7.299,9.569-7.707,19.244c-0.42,9.879,6.154,16.212,6.434,16.477l0.937,0.885l1.003-0.809
			c0.301-0.243,7.383-6.062,7.797-15.935c0.409-9.677-5.793-19.356-6.057-19.764L27.428,20.28L27.428,20.28z"/>
	</g>
	<g>
		<path d="M26.854,56.539c-0.075-0.271-1.79-6.715,2.44-12.959c4.166-6.146,12.442-9.622,12.793-9.768l0.996-0.412l0.023,1.078
			c0.008,0.361,0.145,8.923-4.027,15.082c-4.218,6.22-11.1,7.459-11.391,7.509l-0.657,0.112L26.854,56.539z"/>
		<path fill="#FFFFFF" d="M42.369,34.494c0,0,0.188,8.617-3.9,14.652c-4.09,6.031-10.904,7.195-10.904,7.195
			s-1.748-6.314,2.34-12.348C33.994,37.961,42.369,34.494,42.369,34.494 M43.797,32.307l-1.992,0.824
			c-0.358,0.148-8.833,3.709-13.121,10.035c-4.42,6.523-2.619,13.285-2.541,13.569l0.355,1.285l1.314-0.225
			c0.304-0.052,7.484-1.345,11.877-7.821c4.303-6.353,4.162-15.142,4.154-15.513L43.797,32.307L43.797,32.307z"/>
	</g>
</g>
</svg>
