<?xml version="1.0" encoding="utf-8"?>
<!-- Generator: Adobe Illustrator 16.0.0, SVG Export Plug-In . SVG Version: 6.00 Build 0)  -->
<!DOCTYPE svg PUBLIC "-//W3C//DTD SVG 1.1//EN" "http://www.w3.org/Graphics/SVG/1.1/DTD/svg11.dtd">
<svg version="1.1" id="Layer_1" xmlns="http://www.w3.org/2000/svg" xmlns:xlink="http://www.w3.org/1999/xlink" x="0px" y="0px"
	 width="400px" height="25px" viewBox="75 7.5 400 25" enable-background="new 75 7.5 400 25" xml:space="preserve">
<g>
	<g>
		<path fill="#231F20" d="M77.055,9.427h6.67l9.467,15.481h0.064V9.427h4.908v22.275h-6.418l-9.722-15.858h-0.062v15.858h-4.907
			V9.427z"/>
		<path fill="#231F20" d="M111.691,29.783h-0.062c-0.526,0.816-1.224,1.403-2.094,1.761s-1.788,0.536-2.752,0.536
			c-0.714,0-1.399-0.102-2.06-0.301s-1.242-0.501-1.745-0.896c-0.505-0.402-0.904-0.893-1.197-1.476
			c-0.294-0.587-0.439-1.27-0.439-2.048c0-0.878,0.161-1.624,0.487-2.231c0.324-0.611,0.766-1.11,1.321-1.51
			c0.553-0.399,1.19-0.708,1.902-0.929c0.712-0.216,1.451-0.383,2.218-0.49c0.767-0.104,1.533-0.168,2.3-0.184
			c0.766-0.025,1.47-0.035,2.122-0.035c0-0.838-0.299-1.504-0.896-1.996c-0.599-0.493-1.305-0.74-2.125-0.74
			c-0.774,0-1.483,0.166-2.123,0.486c-0.64,0.326-1.212,0.769-1.713,1.337l-2.517-2.579c0.88-0.819,1.906-1.434,3.081-1.843
			c1.175-0.405,2.393-0.613,3.648-0.613c1.384,0,2.524,0.174,3.415,0.523c0.892,0.346,1.604,0.856,2.139,1.528
			c0.533,0.67,0.907,1.494,1.115,2.465c0.212,0.976,0.315,2.103,0.315,3.38v7.773h-4.341V29.783L111.691,29.783L111.691,29.783z
			 M110.528,24.998c-0.358,0-0.803,0.016-1.337,0.051c-0.535,0.03-1.052,0.117-1.544,0.27c-0.491,0.142-0.91,0.366-1.258,0.658
			c-0.348,0.295-0.519,0.703-0.519,1.226c0,0.565,0.239,0.982,0.725,1.255c0.481,0.275,0.985,0.41,1.51,0.41
			c0.463,0,0.906-0.063,1.338-0.183c0.43-0.132,0.812-0.308,1.15-0.54c0.333-0.228,0.603-0.525,0.801-0.882
			c0.198-0.354,0.3-0.775,0.3-1.256v-1.009H110.528L110.528,24.998z"/>
		<path fill="#231F20" d="M129.399,20.187h-4.152v5.091c0,0.423,0.021,0.808,0.064,1.148c0.042,0.349,0.137,0.653,0.283,0.903
			c0.145,0.249,0.37,0.445,0.677,0.581c0.303,0.133,0.707,0.205,1.211,0.205c0.252,0,0.58-0.026,0.991-0.082
			c0.407-0.048,0.718-0.174,0.926-0.357v3.935c-0.521,0.185-1.068,0.311-1.635,0.371c-0.565,0.062-1.125,0.099-1.666,0.099
			c-0.799,0-1.533-0.088-2.202-0.253c-0.672-0.169-1.261-0.436-1.763-0.802c-0.503-0.368-0.896-0.843-1.18-1.434
			c-0.281-0.586-0.424-1.299-0.424-2.144v-7.263h-3.021v-3.773h3.021v-4.531h4.718v4.531h4.151V20.187L129.399,20.187z"/>
		<path fill="#231F20" d="M146.515,31.702h-4.53v-2.076h-0.062c-0.169,0.288-0.384,0.587-0.646,0.88s-0.582,0.556-0.961,0.785
			c-0.376,0.233-0.808,0.423-1.287,0.565c-0.483,0.15-1.008,0.224-1.575,0.224c-1.193,0-2.163-0.188-2.907-0.554
			c-0.747-0.363-1.323-0.874-1.732-1.526c-0.412-0.648-0.683-1.415-0.818-2.294c-0.137-0.885-0.204-1.836-0.204-2.866v-8.427h4.72
			v7.483c0,0.442,0.016,0.899,0.044,1.367c0.035,0.472,0.13,0.908,0.287,1.305c0.157,0.404,0.396,0.726,0.722,0.977
			c0.326,0.252,0.794,0.376,1.4,0.376s1.101-0.107,1.477-0.327c0.378-0.222,0.667-0.514,0.867-0.88
			c0.199-0.369,0.33-0.783,0.392-1.244c0.062-0.458,0.096-0.943,0.096-1.448v-7.61h4.718L146.515,31.702L146.515,31.702
			L146.515,31.702z"/>
		<path fill="#231F20" d="M149.85,16.416h4.718v2.446h0.061c0.506-0.944,1.103-1.65,1.797-2.121c0.693-0.472,1.562-0.71,2.61-0.71
			c0.272,0,0.545,0.011,0.817,0.031c0.27,0.022,0.524,0.066,0.756,0.124v4.312c-0.336-0.101-0.666-0.183-0.992-0.232
			c-0.324-0.054-0.667-0.08-1.022-0.08c-0.901,0-1.615,0.126-2.139,0.375c-0.524,0.258-0.93,0.604-1.211,1.057
			c-0.284,0.451-0.466,0.992-0.55,1.621c-0.083,0.632-0.126,1.321-0.126,2.079V31.7h-4.718L149.85,16.416L149.85,16.416z"/>
		<path fill="#231F20" d="M172.246,29.783h-0.063c-0.525,0.816-1.224,1.403-2.092,1.761c-0.87,0.357-1.788,0.536-2.751,0.536
			c-0.715,0-1.4-0.102-2.062-0.301c-0.662-0.199-1.242-0.501-1.746-0.899c-0.503-0.399-0.901-0.89-1.196-1.473
			c-0.294-0.587-0.438-1.27-0.438-2.048c0-0.878,0.163-1.624,0.487-2.231c0.325-0.611,0.764-1.11,1.32-1.51
			c0.559-0.399,1.191-0.708,1.905-0.929c0.711-0.216,1.45-0.383,2.218-0.49c0.766-0.104,1.53-0.167,2.295-0.184
			c0.766-0.025,1.474-0.035,2.124-0.035c0-0.838-0.297-1.504-0.897-1.996c-0.597-0.493-1.304-0.74-2.123-0.74
			c-0.773,0-1.481,0.167-2.122,0.488c-0.639,0.326-1.211,0.769-1.712,1.337l-2.519-2.581c0.88-0.819,1.906-1.434,3.082-1.843
			c1.175-0.405,2.392-0.613,3.65-0.613c1.384,0,2.522,0.174,3.412,0.523c0.89,0.346,1.604,0.856,2.14,1.528
			c0.532,0.67,0.908,1.494,1.116,2.465c0.21,0.976,0.315,2.103,0.315,3.38v7.773h-4.343L172.246,29.783L172.246,29.783
			L172.246,29.783z M171.082,24.998c-0.355,0-0.8,0.016-1.336,0.051c-0.533,0.03-1.049,0.117-1.54,0.265
			c-0.495,0.143-0.914,0.369-1.258,0.663c-0.348,0.295-0.521,0.7-0.521,1.226c0,0.565,0.239,0.982,0.722,1.255
			c0.482,0.275,0.986,0.41,1.51,0.41c0.461,0,0.909-0.063,1.337-0.183c0.427-0.132,0.81-0.308,1.148-0.54
			c0.335-0.228,0.602-0.525,0.803-0.882c0.197-0.354,0.297-0.775,0.297-1.256v-1.009H171.082L171.082,24.998z"/>
		<path fill="#231F20" d="M179.606,7.918h4.719v23.784h-4.719V7.918z"/>
		<path fill="#231F20" d="M197.823,9.427h14.941v4.533h-10.033v4.529h9.279v4.53h-9.279v8.683h-4.906V9.427H197.823z"/>
		<path fill="#231F20" d="M215.123,24.058c0-1.221,0.218-2.316,0.661-3.303c0.439-0.99,1.043-1.833,1.807-2.533
			c0.767-0.704,1.669-1.246,2.706-1.62c1.039-0.374,2.146-0.569,3.319-0.569c1.175,0,2.281,0.195,3.318,0.569
			c1.04,0.374,1.94,0.916,2.706,1.62c0.767,0.7,1.369,1.543,1.811,2.533c0.439,0.986,0.66,2.082,0.66,3.303
			c0,1.214-0.221,2.317-0.66,3.301c-0.441,0.988-1.044,1.832-1.811,2.531c-0.766,0.706-1.666,1.246-2.706,1.625
			c-1.037,0.375-2.144,0.566-3.318,0.566c-1.173,0-2.281-0.191-3.319-0.566c-1.035-0.379-1.939-0.919-2.706-1.625
			c-0.766-0.699-1.367-1.543-1.807-2.531C215.343,26.375,215.123,25.271,215.123,24.058z M219.842,24.058
			c0,1.152,0.331,2.087,0.991,2.8c0.66,0.715,1.588,1.069,2.785,1.069c1.195,0,2.124-0.353,2.784-1.069
			c0.66-0.711,0.991-1.647,0.991-2.8c0-1.157-0.334-2.091-0.991-2.803c-0.66-0.709-1.589-1.065-2.784-1.065
			c-1.197,0-2.125,0.356-2.785,1.065C220.173,21.967,219.842,22.9,219.842,24.058z"/>
		<path fill="#231F20" d="M234.311,24.058c0-1.221,0.222-2.316,0.661-3.303c0.441-0.99,1.044-1.833,1.809-2.533
			c0.767-0.704,1.667-1.246,2.706-1.62c1.037-0.374,2.146-0.569,3.318-0.569c1.176,0,2.283,0.195,3.317,0.569
			c1.04,0.374,1.941,0.916,2.707,1.62c0.765,0.7,1.369,1.543,1.81,2.533c0.438,0.986,0.659,2.082,0.659,3.303
			c0,1.214-0.22,2.317-0.659,3.301c-0.44,0.988-1.045,1.832-1.81,2.531c-0.766,0.706-1.667,1.246-2.707,1.625
			c-1.034,0.375-2.142,0.566-3.317,0.566c-1.174,0-2.279-0.191-3.318-0.566c-1.038-0.379-1.939-0.919-2.706-1.625
			c-0.765-0.699-1.365-1.543-1.809-2.531C234.532,26.375,234.311,25.271,234.311,24.058z M239.031,24.058
			c0,1.152,0.33,2.087,0.99,2.8c0.662,0.715,1.589,1.069,2.785,1.069c1.195,0,2.124-0.353,2.785-1.069
			c0.658-0.711,0.991-1.647,0.991-2.8c0-1.157-0.333-2.091-0.991-2.803c-0.661-0.709-1.59-1.065-2.785-1.065
			c-1.196,0-2.123,0.356-2.785,1.065C239.361,21.967,239.031,22.9,239.031,24.058z"/>
		<path fill="#231F20" d="M270.11,31.702h-4.339v-2.014h-0.065c-0.188,0.271-0.435,0.552-0.738,0.835
			c-0.306,0.279-0.662,0.536-1.07,0.768c-0.409,0.231-0.86,0.423-1.354,0.563c-0.493,0.151-1.001,0.226-1.524,0.226
			c-1.134,0-2.16-0.198-3.085-0.59c-0.922-0.382-1.714-0.925-2.375-1.629c-0.661-0.705-1.168-1.532-1.527-2.503
			c-0.356-0.96-0.535-2.023-0.535-3.178c0-1.069,0.164-2.092,0.488-3.07c0.327-0.971,0.786-1.837,1.386-2.59
			c0.597-0.758,1.326-1.357,2.186-1.809c0.863-0.452,1.836-0.681,2.927-0.681c0.985,0,1.905,0.154,2.755,0.46
			c0.848,0.301,1.546,0.82,2.092,1.557h0.062V7.92h4.717v23.782H270.11L270.11,31.702z M265.771,24.058
			c0-1.157-0.332-2.091-0.993-2.803c-0.659-0.709-1.589-1.065-2.784-1.065c-1.196,0-2.123,0.356-2.786,1.065
			c-0.659,0.712-0.988,1.648-0.988,2.803c0,1.152,0.33,2.087,0.988,2.8c0.664,0.715,1.59,1.069,2.786,1.069
			c1.195,0,2.125-0.353,2.784-1.069C265.44,26.145,265.771,25.21,265.771,24.058z"/>
		<path fill="#231F20" d="M284.58,9.427h6.422c0.771,0,1.588,0.094,2.438,0.27c0.844,0.176,1.623,0.487,2.324,0.932
			c0.705,0.438,1.281,1.038,1.732,1.806c0.449,0.764,0.674,1.728,0.674,2.876c0,1.01-0.18,1.879-0.553,2.608
			c-0.363,0.739-0.857,1.342-1.475,1.812c-0.621,0.474-1.332,0.827-2.139,1.058c-0.811,0.227-1.65,0.34-2.533,0.34h-4.814v10.575
			h-2.076V9.427L284.58,9.427z M286.656,19.244h4.723c0.58,0,1.16-0.068,1.725-0.202s1.076-0.361,1.514-0.663
			c0.436-0.305,0.795-0.71,1.068-1.213c0.275-0.505,0.41-1.121,0.41-1.856c0-0.708-0.143-1.318-0.426-1.821
			c-0.285-0.505-0.652-0.92-1.104-1.244c-0.449-0.326-0.969-0.56-1.555-0.708c-0.592-0.146-1.176-0.22-1.766-0.22h-4.592v7.928
			H286.656L286.656,19.244z"/>
		<path fill="#231F20" d="M302.104,21.252c0-0.27-0.012-0.601-0.031-0.985c-0.02-0.392-0.035-0.781-0.047-1.181
			c-0.01-0.398-0.025-0.771-0.045-1.114c-0.023-0.348-0.033-0.62-0.033-0.806h1.889c0.021,0.55,0.035,1.071,0.051,1.575
			c0.006,0.503,0.029,0.828,0.072,0.975c0.486-0.857,1.104-1.562,1.855-2.109c0.762-0.542,1.68-0.815,2.771-0.815
			c0.188,0,0.371,0.018,0.547,0.044c0.182,0.033,0.365,0.068,0.553,0.113l-0.221,1.854c-0.254-0.081-0.494-0.125-0.727-0.125
			c-0.816,0-1.523,0.134-2.121,0.392c-0.596,0.263-1.088,0.625-1.477,1.089c-0.391,0.46-0.678,0.998-0.867,1.616
			c-0.184,0.62-0.283,1.285-0.283,1.998v7.93h-1.885v-10.45H302.104z"/>
		<path fill="#231F20" d="M312.422,11.409c0-0.396,0.137-0.733,0.408-1.008c0.273-0.269,0.605-0.411,1.006-0.411
			c0.402,0,0.736,0.143,1.008,0.411c0.271,0.274,0.41,0.611,0.41,1.008c0,0.399-0.139,0.735-0.41,1.009
			c-0.271,0.271-0.605,0.41-1.008,0.41c-0.4,0-0.732-0.137-1.006-0.41C312.559,12.145,312.422,11.808,312.422,11.409z
			 M312.896,17.165h1.885v14.537h-1.885V17.165z"/>
		<path fill="#231F20" d="M318.084,17.165h2.139l4.846,12.489l4.719-12.489h1.92l-5.723,14.537h-1.957L318.084,17.165z"/>
		<path fill="#231F20" d="M345.986,25.594c0,0.72,0.006,1.357,0.016,1.925c0.012,0.568,0.025,1.092,0.041,1.569
			c0.027,0.483,0.053,0.934,0.084,1.354c0.035,0.417,0.08,0.835,0.139,1.258h-1.756c-0.129-0.709-0.191-1.498-0.191-2.359h-0.064
			c-0.545,0.939-1.225,1.639-2.029,2.076s-1.83,0.662-3.066,0.662c-0.627,0-1.244-0.074-1.854-0.241
			c-0.611-0.154-1.154-0.408-1.635-0.75c-0.486-0.348-0.879-0.791-1.182-1.342c-0.301-0.54-0.453-1.199-0.453-1.98
			c0-1.109,0.281-1.985,0.848-2.641c0.566-0.653,1.264-1.141,2.092-1.466c0.83-0.324,1.711-0.533,2.641-0.629
			c0.938-0.095,1.76-0.139,2.473-0.139h2.201v-0.879c0-1.259-0.387-2.159-1.164-2.708c-0.775-0.546-1.754-0.818-2.928-0.818
			c-1.68,0-3.156,0.551-4.436,1.64l-1.098-1.293c0.693-0.67,1.551-1.18,2.58-1.523c1.025-0.348,2.012-0.519,2.953-0.519
			c1.766,0,3.166,0.415,4.217,1.242c1.049,0.827,1.572,2.165,1.572,4.011V25.594L345.986,25.594z M342.211,24.4
			c-0.799,0-1.568,0.057-2.309,0.159c-0.744,0.105-1.416,0.288-2.014,0.535c-0.6,0.25-1.08,0.59-1.43,1.005
			c-0.361,0.423-0.539,0.948-0.539,1.576c0,0.439,0.1,0.832,0.301,1.181c0.197,0.343,0.455,0.631,0.77,0.845
			c0.314,0.224,0.67,0.392,1.055,0.501c0.389,0.121,0.779,0.178,1.18,0.178c1.008,0,1.834-0.147,2.482-0.439
			c0.652-0.294,1.168-0.673,1.561-1.15c0.391-0.473,0.652-1.007,0.801-1.605c0.148-0.596,0.221-1.197,0.221-1.808V24.4H342.211z"/>
		<path fill="#231F20" d="M358.131,18.862h-4.154v9.475c0,0.649,0.18,1.153,0.539,1.509c0.352,0.356,0.846,0.539,1.475,0.539
			c0.357,0,0.717-0.055,1.084-0.145c0.369-0.097,0.723-0.218,1.057-0.362l0.156,1.697c-0.357,0.129-0.768,0.24-1.225,0.349
			c-0.467,0.102-0.871,0.157-1.23,0.157c-0.67,0-1.246-0.103-1.73-0.302c-0.48-0.197-0.869-0.465-1.162-0.8
			c-0.297-0.332-0.51-0.731-0.648-1.179c-0.133-0.454-0.201-0.94-0.201-1.461v-9.475h-3.148v-1.697h3.148v-4.183h1.887v4.183h4.154
			V18.862L358.131,18.862z"/>
		<path fill="#231F20" d="M374.328,28.964c-0.729,1.111-1.635,1.906-2.719,2.387c-1.082,0.487-2.268,0.729-3.572,0.729
			c-1.111,0-2.119-0.192-3.021-0.565c-0.9-0.379-1.672-0.911-2.324-1.592c-0.654-0.683-1.146-1.491-1.498-2.417
			c-0.344-0.938-0.516-1.971-0.516-3.107c0-1.086,0.176-2.093,0.535-3.02c0.352-0.923,0.861-1.725,1.51-2.401
			c0.648-0.683,1.418-1.22,2.293-1.604c0.885-0.393,1.859-0.584,2.93-0.584c1.109,0,2.096,0.191,2.941,0.584
			c0.848,0.387,1.561,0.903,2.143,1.538c0.576,0.639,1.01,1.368,1.299,2.185c0.297,0.822,0.445,1.649,0.445,2.493v1.316h-12.207
			c0,0.4,0.074,0.908,0.232,1.522c0.158,0.62,0.445,1.224,0.869,1.812c0.414,0.587,0.977,1.088,1.682,1.507
			c0.699,0.422,1.607,0.635,2.719,0.635c0.963,0,1.9-0.229,2.799-0.693c0.902-0.464,1.598-1.095,2.078-1.892L374.328,28.964z
			 M372.883,23.209c0-0.656-0.131-1.261-0.393-1.831c-0.262-0.562-0.619-1.062-1.07-1.489c-0.449-0.434-0.984-0.771-1.602-1.027
			c-0.623-0.249-1.273-0.376-1.967-0.376c-1.029,0-1.889,0.208-2.564,0.63c-0.68,0.418-1.223,0.904-1.619,1.445
			c-0.404,0.545-0.684,1.073-0.846,1.591c-0.17,0.513-0.254,0.866-0.254,1.056h10.314V23.209L372.883,23.209z"/>
		<path fill="#231F20" d="M387.703,9.427h2.068v20.39h10.385v1.888h-12.453V9.427L387.703,9.427z"/>
		<path fill="#231F20" d="M414.186,25.594c0,0.72,0.006,1.357,0.018,1.925c0.012,0.568,0.027,1.092,0.053,1.569
			c0.018,0.483,0.043,0.934,0.074,1.354c0.035,0.417,0.076,0.835,0.141,1.258h-1.764c-0.127-0.709-0.184-1.498-0.184-2.359h-0.066
			c-0.545,0.939-1.223,1.639-2.031,2.076c-0.803,0.438-1.83,0.662-3.066,0.662c-0.627,0-1.246-0.074-1.854-0.241
			c-0.609-0.154-1.156-0.408-1.639-0.75c-0.484-0.348-0.869-0.791-1.182-1.342c-0.299-0.54-0.453-1.199-0.453-1.98
			c0-1.109,0.285-1.985,0.85-2.641c0.568-0.653,1.268-1.141,2.094-1.466c0.832-0.324,1.711-0.533,2.645-0.629
			c0.932-0.095,1.754-0.139,2.467-0.139h2.205v-0.879c0-1.259-0.391-2.159-1.166-2.708c-0.779-0.546-1.754-0.818-2.926-0.818
			c-1.68,0-3.156,0.551-4.436,1.64l-1.098-1.293c0.688-0.67,1.549-1.18,2.572-1.523c1.029-0.348,2.016-0.519,2.961-0.519
			c1.764,0,3.164,0.415,4.213,1.242c1.051,0.827,1.57,2.165,1.57,4.011v3.55H414.186z M410.414,24.4
			c-0.799,0-1.568,0.057-2.316,0.159c-0.744,0.105-1.414,0.288-2.012,0.535c-0.6,0.25-1.076,0.59-1.432,1.005
			c-0.354,0.423-0.533,0.948-0.533,1.576c0,0.439,0.102,0.832,0.301,1.181c0.197,0.343,0.457,0.631,0.768,0.845
			c0.316,0.224,0.668,0.392,1.055,0.501c0.389,0.121,0.781,0.178,1.18,0.178c1.006,0,1.832-0.147,2.484-0.439
			c0.65-0.294,1.17-0.673,1.559-1.15c0.389-0.47,0.658-1.007,0.805-1.605c0.145-0.596,0.223-1.197,0.223-1.808V24.4H410.414z"/>
		<path fill="#231F20" d="M418.812,7.918h1.883v11.798h0.066c0.293-0.504,0.662-0.937,1.104-1.303
			c0.438-0.367,0.918-0.673,1.432-0.913c0.512-0.242,1.053-0.418,1.619-0.537c0.564-0.114,1.121-0.171,1.668-0.171
			c1.109,0,2.135,0.187,3.068,0.562c0.932,0.38,1.74,0.912,2.42,1.593c0.682,0.682,1.213,1.489,1.59,2.423
			c0.377,0.933,0.566,1.952,0.566,3.066s-0.189,2.136-0.566,3.073c-0.379,0.926-0.908,1.737-1.59,2.42
			c-0.68,0.678-1.488,1.21-2.42,1.588c-0.932,0.376-1.959,0.565-3.068,0.565c-0.547,0-1.098-0.063-1.668-0.174
			c-0.566-0.114-1.107-0.294-1.619-0.531c-0.514-0.24-0.994-0.546-1.432-0.915c-0.439-0.367-0.811-0.802-1.104-1.307h-0.066v2.551
			h-1.883V7.918z M420.512,24.434c0,0.818,0.16,1.59,0.475,2.313c0.311,0.721,0.74,1.353,1.287,1.891
			c0.541,0.53,1.182,0.956,1.922,1.271c0.725,0.316,1.525,0.474,2.387,0.474c0.879,0,1.682-0.157,2.393-0.474
			c0.709-0.314,1.32-0.74,1.826-1.271c0.496-0.536,0.887-1.169,1.145-1.891c0.262-0.727,0.391-1.499,0.391-2.313
			c0-0.816-0.129-1.593-0.391-2.313c-0.258-0.722-0.648-1.349-1.145-1.887c-0.506-0.531-1.115-0.958-1.826-1.276
			c-0.711-0.311-1.514-0.468-2.393-0.468c-0.861,0-1.662,0.157-2.387,0.468c-0.74,0.318-1.377,0.744-1.922,1.276
			c-0.547,0.538-0.975,1.165-1.287,1.887C420.668,22.84,420.512,23.617,420.512,24.434z"/>
		<path fill="#231F20" d="M451.275,28.964c-0.732,1.111-1.637,1.906-2.719,2.387c-1.08,0.487-2.271,0.729-3.566,0.729
			c-1.115,0-2.121-0.192-3.025-0.565c-0.902-0.379-1.678-0.911-2.328-1.592c-0.648-0.683-1.148-1.491-1.496-2.417
			c-0.344-0.938-0.514-1.971-0.514-3.107c0-1.086,0.174-2.093,0.529-3.02c0.357-0.923,0.863-1.725,1.514-2.401
			c0.65-0.683,1.414-1.22,2.295-1.604c0.881-0.393,1.854-0.584,2.926-0.584c1.107,0,2.094,0.191,2.943,0.584
			c0.846,0.387,1.562,0.903,2.139,1.538c0.574,0.639,1.014,1.368,1.303,2.185c0.299,0.822,0.439,1.649,0.439,2.493v1.316h-12.207
			c0,0.4,0.078,0.908,0.238,1.522c0.156,0.62,0.443,1.224,0.859,1.812c0.422,0.587,0.984,1.088,1.688,1.507
			c0.703,0.422,1.611,0.635,2.723,0.635c0.965,0,1.898-0.229,2.801-0.693c0.9-0.464,1.592-1.095,2.076-1.892L451.275,28.964z
			 M449.83,23.209c0-0.656-0.133-1.261-0.393-1.831c-0.266-0.562-0.619-1.062-1.068-1.489c-0.451-0.434-0.986-0.771-1.607-1.027
			c-0.617-0.249-1.271-0.376-1.963-0.376c-1.033,0-1.889,0.208-2.566,0.63c-0.684,0.418-1.221,0.904-1.623,1.445
			c-0.398,0.545-0.678,1.073-0.848,1.591c-0.166,0.513-0.252,0.866-0.252,1.056h10.32V23.209L449.83,23.209z"/>
		<path fill="#231F20" d="M456.248,7.918h1.885v23.784h-1.885V7.918z"/>
		<path fill="#231F20" d="M463.514,27.987c0.395,0.773,0.984,1.369,1.762,1.776c0.773,0.411,1.59,0.616,2.455,0.616
			c0.396,0,0.799-0.065,1.193-0.191c0.398-0.125,0.756-0.307,1.068-0.534c0.316-0.23,0.57-0.506,0.77-0.829
			c0.201-0.327,0.303-0.7,0.303-1.119c0-0.674-0.217-1.178-0.646-1.514c-0.434-0.333-0.959-0.599-1.59-0.785
			c-0.627-0.185-1.322-0.352-2.078-0.488c-0.754-0.138-1.441-0.349-2.076-0.629c-0.627-0.284-1.156-0.676-1.588-1.179
			c-0.428-0.502-0.643-1.219-0.643-2.14c0-0.716,0.145-1.331,0.439-1.853c0.297-0.525,0.682-0.959,1.15-1.309
			c0.471-0.347,1.002-0.603,1.586-0.769c0.586-0.169,1.186-0.251,1.795-0.251c1.195,0,2.229,0.221,3.1,0.659
			c0.871,0.445,1.545,1.134,2.023,2.074l-1.693,1.006c-0.359-0.669-0.803-1.179-1.338-1.52c-0.533-0.35-1.232-0.522-2.092-0.522
			c-0.338,0-0.688,0.05-1.057,0.157c-0.367,0.105-0.699,0.253-0.992,0.44c-0.293,0.189-0.537,0.431-0.736,0.727
			c-0.199,0.291-0.301,0.626-0.301,1.006c0,0.647,0.217,1.13,0.645,1.444c0.428,0.316,0.959,0.561,1.59,0.739
			c0.625,0.178,1.318,0.332,2.074,0.453c0.754,0.133,1.447,0.333,2.078,0.621c0.627,0.28,1.162,0.688,1.586,1.226
			c0.434,0.527,0.645,1.294,0.645,2.276c0,0.76-0.137,1.412-0.418,1.968c-0.293,0.552-0.676,1.023-1.166,1.401
			c-0.498,0.374-1.059,0.659-1.688,0.847c-0.627,0.188-1.287,0.286-1.977,0.286c-1.258,0-2.412-0.244-3.445-0.729
			c-1.045-0.479-1.84-1.225-2.408-2.232L463.514,27.987z"/>
	</g>
</g>
</svg>
