<?xml version="1.0" encoding="utf-8"?>
<!-- Generator: Adobe Illustrator 16.0.0, SVG Export Plug-In . SVG Version: 6.00 Build 0)  -->
<!DOCTYPE svg PUBLIC "-//W3C//DTD SVG 1.1//EN" "http://www.w3.org/Graphics/SVG/1.1/DTD/svg11.dtd">
<svg version="1.1" id="Layer_1" xmlns="http://www.w3.org/2000/svg" xmlns:xlink="http://www.w3.org/1999/xlink" x="0px" y="0px"
	 width="250px" height="70px" viewBox="-25 -17.5 250 70" enable-background="new -25 -17.5 250 70" xml:space="preserve">
<g>
	<g>
		<g>
			<g>
				<defs>
					<path id="SVGID_1_" d="M217.409,31.846c0,8.87-7.189,16.061-16.054,16.061c-8.869,0-16.06-7.19-16.06-16.061
						c0-8.869,7.19-16.053,16.06-16.053C210.22,15.793,217.409,22.977,217.409,31.846z"/>
				</defs>
				<clipPath id="SVGID_2_">
					<use xlink:href="#SVGID_1_"  overflow="visible"/>
				</clipPath>
				<rect x="185.296" y="15.791" clip-path="url(#SVGID_2_)" fill="#17503C" width="32.113" height="32.115"/>
				<path clip-path="url(#SVGID_2_)" fill="#17503C" d="M217.409,31.846c0,8.87-7.189,16.061-16.054,16.061
					c-8.869,0-16.06-7.19-16.06-16.061c0-8.869,7.19-16.055,16.06-16.055C210.22,15.791,217.409,22.977,217.409,31.846z"/>
				<path clip-path="url(#SVGID_2_)" fill="#17503D" d="M216.74,31.846c0,8.498-6.887,15.389-15.385,15.389
					c-8.503,0-15.39-6.891-15.39-15.389c0-8.491,6.887-15.385,15.39-15.385C209.854,16.461,216.74,23.354,216.74,31.846z"/>
				<path clip-path="url(#SVGID_2_)" fill="#18523E" d="M216.07,31.846c0,8.13-6.589,14.72-14.715,14.72
					c-8.133,0-14.721-6.59-14.721-14.72c0-8.126,6.588-14.718,14.721-14.718C209.481,17.127,216.07,23.72,216.07,31.846z"/>
				<path clip-path="url(#SVGID_2_)" fill="#195340" d="M215.401,31.846c0,7.763-6.288,14.054-14.046,14.054
					c-7.763,0-14.049-6.291-14.049-14.054c0-7.753,6.286-14.049,14.049-14.049C209.113,17.796,215.401,24.093,215.401,31.846z"/>
				<path clip-path="url(#SVGID_2_)" fill="#1A5440" d="M214.736,31.846c0,7.395-5.995,13.38-13.381,13.38
					c-7.395,0-13.384-5.985-13.384-13.38c0-7.386,5.989-13.379,13.384-13.379C208.741,18.467,214.736,24.46,214.736,31.846z"/>
				<path clip-path="url(#SVGID_2_)" fill="#1A5440" d="M214.064,31.846c0,7.02-5.689,12.714-12.709,12.714
					c-7.022,0-12.716-5.694-12.716-12.714c0-7.018,5.693-12.712,12.716-12.712C208.375,19.134,214.064,24.828,214.064,31.846z"/>
				<path clip-path="url(#SVGID_2_)" fill="#1B5642" d="M213.401,31.846c0,6.654-5.395,12.044-12.046,12.044
					c-6.654,0-12.045-5.39-12.045-12.044c0-6.647,5.391-12.039,12.045-12.039C208.007,19.807,213.401,25.198,213.401,31.846z"/>
				<path clip-path="url(#SVGID_2_)" fill="#1B5643" d="M212.726,31.846c0,6.285-5.097,11.373-11.37,11.373
					c-6.282,0-11.375-5.088-11.375-11.373c0-6.28,5.093-11.373,11.375-11.373C207.629,20.473,212.726,25.565,212.726,31.846z"/>
				<path clip-path="url(#SVGID_2_)" fill="#1B5844" d="M212.058,31.846c0,5.911-4.792,10.709-10.702,10.709
					c-5.916,0-10.708-4.798-10.708-10.709c0-5.908,4.792-10.704,10.708-10.704C207.266,21.142,212.058,25.938,212.058,31.846z"/>
				<path clip-path="url(#SVGID_2_)" fill="#1A5944" d="M211.389,31.846c0,5.545-4.496,10.038-10.033,10.038
					c-5.544,0-10.037-4.493-10.037-10.038c0-5.543,4.493-10.032,10.037-10.032C206.893,21.813,211.389,26.303,211.389,31.846z"/>
				<path clip-path="url(#SVGID_2_)" fill="#1B5945" d="M210.718,31.846c0,5.174-4.191,9.367-9.362,9.367
					c-5.176,0-9.366-4.193-9.366-9.367c0-5.17,4.19-9.365,9.366-9.365C206.526,22.48,210.718,26.676,210.718,31.846z"/>
				<path clip-path="url(#SVGID_2_)" fill="#1D5A46" d="M210.056,31.846c0,4.805-3.902,8.7-8.7,8.7c-4.806,0-8.701-3.896-8.701-8.7
					c0-4.803,3.896-8.691,8.701-8.691C206.153,23.154,210.056,27.043,210.056,31.846z"/>
				<path clip-path="url(#SVGID_2_)" fill="#1E5D47" d="M209.383,31.846c0,4.437-3.596,8.033-8.027,8.033
					c-4.439,0-8.031-3.597-8.031-8.033c0-4.433,3.592-8.025,8.031-8.025C205.787,23.82,209.383,27.413,209.383,31.846z"/>
				<path clip-path="url(#SVGID_2_)" fill="#1E5D47" d="M208.715,31.846c0,4.066-3.296,7.361-7.359,7.361
					c-4.065,0-7.364-3.295-7.364-7.361c0-4.059,3.299-7.356,7.364-7.356C205.419,24.489,208.715,27.787,208.715,31.846z"/>
				<path clip-path="url(#SVGID_2_)" fill="#1E5F49" d="M208.042,31.846c0,3.699-2.995,6.691-6.687,6.691
					c-3.699,0-6.694-2.992-6.694-6.691c0-3.695,2.995-6.687,6.694-6.687C205.047,25.159,208.042,28.15,208.042,31.846z"/>
				<path clip-path="url(#SVGID_2_)" fill="#215F49" d="M207.375,31.846c0,3.328-2.699,6.026-6.02,6.026
					c-3.327,0-6.021-2.698-6.021-6.026c0-3.322,2.693-6.019,6.021-6.019C204.676,25.827,207.375,28.523,207.375,31.846z"/>
				<path clip-path="url(#SVGID_2_)" fill="#21614A" d="M206.707,31.846c0,2.959-2.397,5.354-5.352,5.354
					c-2.959,0-5.357-2.395-5.357-5.354c0-2.953,2.398-5.353,5.357-5.353C204.31,26.493,206.707,28.893,206.707,31.846z"/>
				<path clip-path="url(#SVGID_2_)" fill="#22614C" d="M206.036,31.846c0,2.588-2.098,4.687-4.681,4.687
					c-2.589,0-4.686-2.099-4.686-4.687c0-2.582,2.097-4.678,4.686-4.678C203.938,27.168,206.036,29.264,206.036,31.846z"/>
				<path clip-path="url(#SVGID_2_)" fill="#22634D" d="M205.368,31.846c0,2.222-1.802,4.014-4.013,4.014
					c-2.223,0-4.021-1.792-4.021-4.014c0-2.214,1.798-4.012,4.021-4.012C203.566,27.834,205.368,29.632,205.368,31.846z"/>
				<path clip-path="url(#SVGID_2_)" fill="#22644D" d="M204.701,31.846c0,1.852-1.503,3.345-3.346,3.345
					c-1.849,0-3.351-1.493-3.351-3.345c0-1.845,1.502-3.342,3.351-3.342C203.198,28.504,204.701,30.001,204.701,31.846z"/>
				<path clip-path="url(#SVGID_2_)" fill="#22654E" d="M204.031,31.846c0,1.481-1.199,2.681-2.676,2.681
					c-1.481,0-2.678-1.199-2.678-2.681c0-1.477,1.196-2.672,2.678-2.672C202.832,29.174,204.031,30.369,204.031,31.846z"/>
				<path clip-path="url(#SVGID_2_)" fill="#23654E" d="M203.356,31.846c0,1.116-0.896,2.01-2.001,2.01
					c-1.108,0-2.01-0.894-2.01-2.01c0-1.104,0.901-2.006,2.01-2.006C202.461,29.84,203.356,30.741,203.356,31.846z"/>
				<path clip-path="url(#SVGID_2_)" fill="#236750" d="M202.69,31.846c0,0.739-0.598,1.338-1.335,1.338
					c-0.742,0-1.339-0.599-1.339-1.338c0-0.736,0.597-1.334,1.339-1.334C202.093,30.512,202.69,31.109,202.69,31.846z"/>
				<path clip-path="url(#SVGID_2_)" fill="#246851" d="M202.023,31.846c0,0.369-0.302,0.674-0.668,0.674
					c-0.374,0-0.671-0.305-0.671-0.674c0-0.368,0.297-0.667,0.671-0.667C201.722,31.179,202.023,31.478,202.023,31.846z"/>
			</g>
		</g>
		<g>
			<path fill="#FFFFFF" d="M201.355,46.814c-8.255,0-14.967-6.712-14.967-14.969c0-8.248,6.712-14.963,14.967-14.963
				c8.248,0,14.961,6.715,14.961,14.963C216.316,40.103,209.604,46.814,201.355,46.814z M201.355,17.166
				c-8.096,0-14.684,6.589-14.684,14.68c0,8.1,6.588,14.683,14.684,14.683c8.091,0,14.677-6.583,14.677-14.683
				C216.032,23.755,209.446,17.166,201.355,17.166z"/>
		</g>
		<g>
			<g>
				<path fill="#FFFFFF" d="M204.061,35.085l-2.372-4.855h-1.712v4.855h-2.372V22.921h4.766c2.475,0,3.945,1.69,3.945,3.721
					c0,1.707-1.046,2.771-2.226,3.198l2.717,5.245H204.061z M202.213,25.036h-2.236v3.215h2.236c1.045,0,1.729-0.668,1.729-1.609
					C203.941,25.705,203.258,25.036,202.213,25.036z"/>
			</g>
		</g>
		<g>
			<g>
				<path fill="#FFFFFF" d="M198.978,40.919l-0.768-1.536h-0.691v1.536h-0.551v-3.648h1.413c0.692,0,1.134,0.444,1.134,1.065
					c0,0.519-0.318,0.856-0.732,0.971l0.847,1.612H198.978z M198.341,37.77h-0.822v1.14h0.822c0.366,0,0.621-0.21,0.621-0.564
					C198.962,37.98,198.707,37.77,198.341,37.77z"/>
			</g>
			<g>
				<path fill="#FFFFFF" d="M202.417,40.919l-0.25-0.733h-1.438l-0.252,0.733h-0.591l1.338-3.648h0.448l1.331,3.648H202.417z
					 M201.46,38.097l-0.57,1.621h1.122L201.46,38.097z"/>
			</g>
			<g>
				<path fill="#FFFFFF" d="M206.453,40.919h-0.482l-0.745-2.555l-0.733,2.555h-0.484l-0.951-3.648h0.579l0.638,2.608l0.734-2.608
					h0.442l0.734,2.608l0.635-2.608h0.587L206.453,40.919z"/>
			</g>
		</g>
	</g>
	<g>
		<g>
			<g>
				<defs>
					<path id="SVGID_3_" d="M166.714,31.846c0,8.87-7.191,16.061-16.058,16.061s-16.058-7.19-16.058-16.061
						c0-8.869,7.191-16.053,16.058-16.053S166.714,22.977,166.714,31.846z"/>
				</defs>
				<clipPath id="SVGID_4_">
					<use xlink:href="#SVGID_3_"  overflow="visible"/>
				</clipPath>
				<rect x="134.599" y="15.791" clip-path="url(#SVGID_4_)" fill="#17503C" width="32.119" height="32.115"/>
				<path clip-path="url(#SVGID_4_)" fill="#17503C" d="M166.718,31.846c0,8.87-7.195,16.061-16.062,16.061
					s-16.058-7.19-16.058-16.061c0-8.869,7.191-16.055,16.058-16.055S166.718,22.977,166.718,31.846z"/>
				<path clip-path="url(#SVGID_4_)" fill="#17503D" d="M166.048,31.846c0,8.498-6.895,15.389-15.392,15.389
					c-8.498,0-15.389-6.891-15.389-15.389c0-8.491,6.891-15.385,15.389-15.385C159.153,16.461,166.048,23.354,166.048,31.846z"/>
				<path clip-path="url(#SVGID_4_)" fill="#18523E" d="M165.376,31.846c0,8.13-6.589,14.72-14.72,14.72
					c-8.13,0-14.718-6.59-14.718-14.72c0-8.126,6.588-14.718,14.718-14.718C158.787,17.127,165.376,23.72,165.376,31.846z"/>
				<path clip-path="url(#SVGID_4_)" fill="#195340" d="M164.706,31.846c0,7.763-6.291,14.054-14.05,14.054
					s-14.052-6.291-14.052-14.054c0-7.753,6.293-14.049,14.052-14.049S164.706,24.093,164.706,31.846z"/>
				<path clip-path="url(#SVGID_4_)" fill="#1A5440" d="M164.039,31.846c0,7.395-5.994,13.38-13.383,13.38
					s-13.383-5.985-13.383-13.38c0-7.386,5.994-13.379,13.383-13.379S164.039,24.46,164.039,31.846z"/>
				<path clip-path="url(#SVGID_4_)" fill="#1A5440" d="M163.369,31.846c0,7.02-5.69,12.714-12.713,12.714
					c-7.021,0-12.711-5.694-12.711-12.714c0-7.018,5.69-12.712,12.711-12.712C157.679,19.134,163.369,24.828,163.369,31.846z"/>
				<path clip-path="url(#SVGID_4_)" fill="#1B5642" d="M162.7,31.846c0,6.654-5.395,12.044-12.044,12.044
					c-6.651,0-12.047-5.39-12.047-12.044c0-6.647,5.396-12.039,12.047-12.039C157.306,19.807,162.7,25.198,162.7,31.846z"/>
				<path clip-path="url(#SVGID_4_)" fill="#1B5643" d="M162.03,31.846c0,6.285-5.092,11.373-11.374,11.373
					c-6.276,0-11.374-5.088-11.374-11.373c0-6.28,5.098-11.373,11.374-11.373C156.938,20.473,162.03,25.565,162.03,31.846z"/>
				<path clip-path="url(#SVGID_4_)" fill="#1B5844" d="M161.361,31.846c0,5.911-4.793,10.709-10.705,10.709
					s-10.702-4.798-10.702-10.709c0-5.908,4.79-10.704,10.702-10.704S161.361,25.938,161.361,31.846z"/>
				<path clip-path="url(#SVGID_4_)" fill="#1A5944" d="M160.693,31.846c0,5.545-4.493,10.038-10.037,10.038
					s-10.035-4.493-10.035-10.038c0-5.543,4.491-10.032,10.035-10.032S160.693,26.303,160.693,31.846z"/>
				<path clip-path="url(#SVGID_4_)" fill="#1B5945" d="M160.026,31.846c0,5.174-4.194,9.367-9.37,9.367
					c-5.17,0-9.365-4.193-9.365-9.367c0-5.17,4.195-9.365,9.365-9.365C155.832,22.48,160.026,26.676,160.026,31.846z"/>
				<path clip-path="url(#SVGID_4_)" fill="#1D5A46" d="M159.356,31.846c0,4.805-3.897,8.7-8.7,8.7s-8.7-3.896-8.7-8.7
					c0-4.803,3.897-8.691,8.7-8.691S159.356,27.043,159.356,31.846z"/>
				<path clip-path="url(#SVGID_4_)" fill="#1E5D47" d="M158.685,31.846c0,4.437-3.591,8.028-8.028,8.028
					c-4.435,0-8.029-3.592-8.029-8.028c0-4.433,3.595-8.025,8.029-8.025C155.094,23.82,158.685,27.413,158.685,31.846z"/>
				<path clip-path="url(#SVGID_4_)" fill="#1E5D47" d="M158.02,31.846c0,4.066-3.297,7.361-7.363,7.361
					c-4.064,0-7.357-3.295-7.357-7.361c0-4.059,3.293-7.356,7.357-7.356C154.723,24.489,158.02,27.787,158.02,31.846z"/>
				<path clip-path="url(#SVGID_4_)" fill="#1E5F49" d="M157.347,31.846c0,3.699-2.997,6.691-6.69,6.691s-6.688-2.992-6.688-6.691
					c0-3.695,2.995-6.687,6.688-6.687S157.347,28.15,157.347,31.846z"/>
				<path clip-path="url(#SVGID_4_)" fill="#215F49" d="M156.679,31.846c0,3.328-2.697,6.026-6.022,6.026
					c-3.321,0-6.021-2.698-6.021-6.026c0-3.322,2.699-6.019,6.021-6.019C153.981,25.827,156.679,28.523,156.679,31.846z"/>
				<path clip-path="url(#SVGID_4_)" fill="#21614A" d="M156.009,31.846c0,2.959-2.396,5.354-5.353,5.354
					c-2.955,0-5.352-2.395-5.352-5.354c0-2.953,2.396-5.353,5.352-5.353C153.613,26.493,156.009,28.893,156.009,31.846z"/>
				<path clip-path="url(#SVGID_4_)" fill="#22614C" d="M155.338,31.846c0,2.588-2.093,4.687-4.682,4.687
					c-2.584,0-4.682-2.099-4.682-4.687c0-2.582,2.098-4.678,4.682-4.678C153.245,27.168,155.338,29.264,155.338,31.846z"/>
				<path clip-path="url(#SVGID_4_)" fill="#22634D" d="M154.671,31.846c0,2.222-1.797,4.014-4.015,4.014
					c-2.216,0-4.015-1.792-4.015-4.014c0-2.214,1.799-4.012,4.015-4.012C152.874,27.834,154.671,29.632,154.671,31.846z"/>
				<path clip-path="url(#SVGID_4_)" fill="#22644D" d="M154.001,31.846c0,1.852-1.495,3.345-3.345,3.345
					c-1.847,0-3.347-1.493-3.347-3.345c0-1.845,1.5-3.342,3.347-3.342C152.506,28.504,154.001,30.001,154.001,31.846z"/>
				<path clip-path="url(#SVGID_4_)" fill="#22654E" d="M153.333,31.846c0,1.481-1.2,2.681-2.677,2.681
					c-1.479,0-2.675-1.199-2.675-2.681c0-1.477,1.196-2.672,2.675-2.672C152.133,29.174,153.333,30.369,153.333,31.846z"/>
				<path clip-path="url(#SVGID_4_)" fill="#23654E" d="M152.662,31.846c0,1.116-0.897,2.01-2.006,2.01
					c-1.11,0-2.008-0.894-2.008-2.01c0-1.104,0.897-2.006,2.008-2.006C151.765,29.84,152.662,30.741,152.662,31.846z"/>
				<path clip-path="url(#SVGID_4_)" fill="#236750" d="M151.993,31.846c0,0.739-0.595,1.338-1.337,1.338
					c-0.736,0-1.337-0.599-1.337-1.338c0-0.736,0.601-1.334,1.337-1.334C151.398,30.512,151.993,31.109,151.993,31.846z"/>
				<path clip-path="url(#SVGID_4_)" fill="#246851" d="M151.327,31.846c0,0.369-0.301,0.674-0.671,0.674
					c-0.366,0-0.668-0.305-0.668-0.674c0-0.368,0.302-0.667,0.668-0.667C151.026,31.179,151.327,31.478,151.327,31.846z"/>
			</g>
		</g>
		<g>
			<path fill="#FFFFFF" d="M150.656,46.814c-8.249,0-14.964-6.712-14.964-14.969c0-8.248,6.715-14.963,14.964-14.963
				c8.251,0,14.964,6.715,14.964,14.963C165.62,40.103,158.907,46.814,150.656,46.814z M150.656,17.166
				c-8.092,0-14.68,6.589-14.68,14.68c0,8.1,6.588,14.683,14.68,14.683c8.094,0,14.682-6.583,14.682-14.683
				C165.338,23.755,158.75,17.166,150.656,17.166z"/>
		</g>
		<g>
			<g>
				<path fill="#FFFFFF" d="M153.981,35.085l-3.128-5.536l-1.568,1.878v3.658h-2.376V22.921h2.376v5.298l4.283-5.298h2.888
					l-4.029,4.83l4.323,7.334H153.981z"/>
			</g>
		</g>
		<g>
			<g>
				<path fill="#FFFFFF" d="M143.642,40.919l-1.028-1.799l-0.614,0.74v1.059h-0.555v-3.648h0.555v1.836l1.492-1.836h0.674
					l-1.18,1.429l1.308,2.22H143.642z"/>
			</g>
			<g>
				<path fill="#FFFFFF" d="M146.89,40.584c-0.236,0.231-0.546,0.371-0.941,0.371c-0.403,0-0.712-0.14-0.946-0.371
					c-0.358-0.359-0.37-0.724-0.37-1.493c0-0.76,0.012-1.126,0.37-1.479c0.234-0.238,0.543-0.374,0.946-0.374
					c0.396,0,0.705,0.136,0.941,0.374c0.356,0.354,0.37,0.72,0.37,1.479C147.26,39.86,147.246,40.225,146.89,40.584z M146.49,37.958
					c-0.14-0.143-0.326-0.229-0.542-0.229c-0.222,0-0.407,0.086-0.547,0.229c-0.18,0.192-0.217,0.417-0.217,1.133
					c0,0.727,0.037,0.943,0.217,1.138c0.14,0.143,0.325,0.233,0.547,0.233c0.216,0,0.402-0.091,0.542-0.233
					c0.183-0.19,0.214-0.411,0.214-1.138C146.704,38.375,146.673,38.147,146.49,37.958z"/>
			</g>
			<g>
				<path fill="#FFFFFF" d="M149.048,40.955c-0.55,0-0.938-0.127-1.294-0.485l0.36-0.365c0.269,0.267,0.571,0.357,0.941,0.357
					c0.486,0,0.754-0.204,0.754-0.563c0-0.167-0.039-0.292-0.145-0.384c-0.092-0.08-0.214-0.131-0.396-0.149l-0.43-0.065
					c-0.301-0.045-0.531-0.139-0.69-0.293c-0.178-0.159-0.271-0.397-0.271-0.699c0-0.635,0.461-1.07,1.218-1.07
					c0.49,0,0.824,0.126,1.137,0.419l-0.352,0.349c-0.225-0.219-0.491-0.287-0.806-0.287c-0.431,0-0.663,0.24-0.663,0.575
					c0,0.128,0.039,0.255,0.136,0.335c0.094,0.081,0.198,0.133,0.399,0.168l0.436,0.059c0.334,0.055,0.52,0.136,0.681,0.278
					c0.191,0.177,0.297,0.43,0.297,0.746C150.36,40.548,149.813,40.955,149.048,40.955z"/>
			</g>
			<g>
				<path fill="#FFFFFF" d="M153.135,40.919v-1.594h-1.484v1.594h-0.548v-3.648h0.548v1.556h1.484v-1.556h0.556v3.648H153.135z"/>
			</g>
			<g>
				<path fill="#FFFFFF" d="M154.644,40.919v-3.648h2.332v0.499h-1.784v1.067h1.521v0.488h-1.521v1.096h1.784v0.498H154.644z"/>
			</g>
			<g>
				<path fill="#FFFFFF" d="M159.747,40.919l-0.769-1.536h-0.695v1.536h-0.549v-3.648h1.412c0.692,0,1.134,0.444,1.134,1.065
					c0,0.519-0.319,0.856-0.728,0.971l0.842,1.612H159.747z M159.106,37.77h-0.823v1.14h0.823c0.368,0,0.62-0.21,0.62-0.564
					C159.727,37.98,159.475,37.77,159.106,37.77z"/>
			</g>
		</g>
	</g>
	<g>
		<g>
			<g>
				<defs>
					<path id="SVGID_5_" d="M65.319,31.846c0,8.87-7.19,16.061-16.056,16.061c-8.871,0-16.058-7.19-16.058-16.061
						c0-8.869,7.187-16.053,16.058-16.053C58.129,15.793,65.319,22.977,65.319,31.846z"/>
				</defs>
				<clipPath id="SVGID_6_">
					<use xlink:href="#SVGID_5_"  overflow="visible"/>
				</clipPath>
				<rect x="33.206" y="15.791" clip-path="url(#SVGID_6_)" fill="#17503C" width="32.115" height="32.115"/>
				<circle clip-path="url(#SVGID_6_)" fill="#17503C" cx="49.263" cy="31.846" r="16.058"/>
				<path clip-path="url(#SVGID_6_)" fill="#17503D" d="M64.649,31.846c0,8.498-6.89,15.389-15.386,15.389
					c-8.5,0-15.39-6.891-15.39-15.389c0-8.491,6.889-15.385,15.39-15.385C57.76,16.461,64.649,23.354,64.649,31.846z"/>
				<path clip-path="url(#SVGID_6_)" fill="#18523E" d="M63.98,31.846c0,8.13-6.59,14.72-14.717,14.72
					c-8.13,0-14.721-6.59-14.721-14.72c0-8.126,6.59-14.718,14.721-14.718C57.39,17.127,63.98,23.72,63.98,31.846z"/>
				<path clip-path="url(#SVGID_6_)" fill="#195340" d="M63.313,31.846c0,7.763-6.292,14.054-14.05,14.054
					c-7.761,0-14.052-6.291-14.052-14.054c0-7.753,6.291-14.049,14.052-14.049C57.021,17.796,63.313,24.093,63.313,31.846z"/>
				<path clip-path="url(#SVGID_6_)" fill="#1A5440" d="M62.642,31.846c0,7.395-5.989,13.38-13.379,13.38
					c-7.39,0-13.381-5.985-13.381-13.38c0-7.386,5.991-13.379,13.381-13.379C56.653,18.467,62.642,24.46,62.642,31.846z"/>
				<path clip-path="url(#SVGID_6_)" fill="#1A5440" d="M61.974,31.846c0,7.02-5.691,12.714-12.711,12.714
					c-7.021,0-12.714-5.694-12.714-12.714c0-7.018,5.693-12.712,12.714-12.712C56.283,19.134,61.974,24.828,61.974,31.846z"/>
				<path clip-path="url(#SVGID_6_)" fill="#1B5642" d="M61.304,31.846c0,6.654-5.39,12.044-12.041,12.044
					c-6.653,0-12.044-5.39-12.044-12.044c0-6.647,5.391-12.039,12.044-12.039C55.914,19.807,61.304,25.198,61.304,31.846z"/>
				<path clip-path="url(#SVGID_6_)" fill="#1B5643" d="M60.636,31.846c0,6.285-5.092,11.373-11.373,11.373
					c-6.282,0-11.374-5.088-11.374-11.373c0-6.28,5.091-11.373,11.374-11.373C55.544,20.473,60.636,25.565,60.636,31.846z"/>
				<path clip-path="url(#SVGID_6_)" fill="#1B5844" d="M59.967,31.846c0,5.911-4.794,10.709-10.704,10.709
					c-5.913,0-10.707-4.798-10.707-10.709c0-5.908,4.794-10.704,10.707-10.704C55.173,21.142,59.967,25.938,59.967,31.846z"/>
				<circle clip-path="url(#SVGID_6_)" fill="#1A5944" cx="49.262" cy="31.846" r="10.036"/>
				<path clip-path="url(#SVGID_6_)" fill="#1B5945" d="M58.628,31.846c0,5.174-4.192,9.367-9.365,9.367
					c-5.174,0-9.368-4.193-9.368-9.367c0-5.17,4.194-9.365,9.368-9.365C54.436,22.48,58.628,26.676,58.628,31.846z"/>
				<path clip-path="url(#SVGID_6_)" fill="#1D5A46" d="M57.959,31.846c0,4.805-3.894,8.7-8.696,8.7c-4.804,0-8.699-3.896-8.699-8.7
					c0-4.803,3.895-8.691,8.699-8.691C54.065,23.154,57.959,27.043,57.959,31.846z"/>
				<circle clip-path="url(#SVGID_6_)" fill="#1E5D47" cx="49.262" cy="31.846" r="8.028"/>
				<path clip-path="url(#SVGID_6_)" fill="#1E5D47" d="M56.621,31.846c0,4.066-3.293,7.361-7.358,7.361
					c-4.066,0-7.361-3.295-7.361-7.361c0-4.059,3.295-7.356,7.361-7.356C53.328,24.489,56.621,27.787,56.621,31.846z"/>
				<path clip-path="url(#SVGID_6_)" fill="#1E5F49" d="M55.953,31.846c0,3.699-2.996,6.691-6.69,6.691
					c-3.697,0-6.691-2.992-6.691-6.691c0-3.695,2.994-6.687,6.691-6.687C52.958,25.159,55.953,28.15,55.953,31.846z"/>
				<path clip-path="url(#SVGID_6_)" fill="#215F49" d="M55.284,31.846c0,3.328-2.697,6.026-6.021,6.026
					c-3.327,0-6.022-2.698-6.022-6.026c0-3.322,2.695-6.019,6.022-6.019C52.587,25.827,55.284,28.523,55.284,31.846z"/>
				<path clip-path="url(#SVGID_6_)" fill="#21614A" d="M54.615,31.846c0,2.959-2.397,5.354-5.352,5.354
					c-2.957,0-5.354-2.395-5.354-5.354c0-2.953,2.397-5.353,5.354-5.353C52.217,26.493,54.615,28.893,54.615,31.846z"/>
				<path clip-path="url(#SVGID_6_)" fill="#22614C" d="M53.946,31.846c0,2.588-2.098,4.687-4.683,4.687
					c-2.588,0-4.683-2.099-4.683-4.687c0-2.582,2.095-4.678,4.683-4.678C51.848,27.168,53.946,29.264,53.946,31.846z"/>
				<path clip-path="url(#SVGID_6_)" fill="#22634D" d="M53.277,31.846c0,2.222-1.796,4.014-4.014,4.014s-4.015-1.792-4.015-4.014
					c0-2.214,1.798-4.012,4.015-4.012S53.277,29.632,53.277,31.846z"/>
				<path clip-path="url(#SVGID_6_)" fill="#22644D" d="M52.607,31.846c0,1.852-1.498,3.345-3.344,3.345
					c-1.849,0-3.347-1.493-3.347-3.345c0-1.845,1.498-3.342,3.347-3.342C51.109,28.504,52.607,30.001,52.607,31.846z"/>
				<path clip-path="url(#SVGID_6_)" fill="#22654E" d="M51.937,31.846c0,1.481-1.198,2.681-2.674,2.681
					c-1.481,0-2.679-1.199-2.679-2.681c0-1.477,1.198-2.672,2.679-2.672C50.739,29.174,51.937,30.369,51.937,31.846z"/>
				<path clip-path="url(#SVGID_6_)" fill="#23654E" d="M51.27,31.846c0,1.116-0.898,2.01-2.006,2.01
					c-1.11,0-2.007-0.894-2.007-2.01c0-1.104,0.897-2.006,2.007-2.006C50.371,29.84,51.27,30.741,51.27,31.846z"/>
				<circle clip-path="url(#SVGID_6_)" fill="#236750" cx="49.261" cy="31.846" r="1.337"/>
				<path clip-path="url(#SVGID_6_)" fill="#246851" d="M49.93,31.846c0,0.369-0.3,0.674-0.667,0.674c-0.37,0-0.67-0.305-0.67-0.674
					c0-0.368,0.301-0.667,0.67-0.667C49.63,31.179,49.93,31.478,49.93,31.846z"/>
			</g>
		</g>
		<g>
			<path fill="#FFFFFF" d="M49.263,46.814c-8.254,0-14.967-6.712-14.967-14.969c0-8.248,6.713-14.963,14.967-14.963
				c8.25,0,14.965,6.715,14.965,14.963C64.228,40.103,57.514,46.814,49.263,46.814z M49.263,17.166
				c-8.096,0-14.683,6.589-14.683,14.68c0,8.1,6.587,14.683,14.683,14.683c8.094,0,14.68-6.583,14.68-14.683
				C63.943,23.755,57.357,17.166,49.263,17.166z"/>
		</g>
		<g>
			<g>
				<path fill="#FFFFFF" d="M48.147,33.458c-0.941,0.985-1.994,1.291-3.204,1.291c-1.292,0-2.249-0.432-3.03-1.198
					c-1.131-1.132-1.148-2.405-1.148-4.571c0-2.172,0.018-3.445,1.148-4.578c0.781-0.766,1.738-1.195,3.03-1.195
					c2.645,0,3.97,1.722,4.273,3.636h-2.233c-0.255-1.088-0.909-1.661-2.04-1.661c-0.607,0-1.085,0.239-1.42,0.609
					c-0.414,0.477-0.541,1.018-0.541,3.189c0,2.166,0.127,2.725,0.541,3.203c0.335,0.365,0.813,0.588,1.42,0.588
					c0.685,0,1.227-0.239,1.579-0.639c0.366-0.415,0.51-0.924,0.51-1.513v-0.412h-2.088v-1.866h4.289v1.656
					C49.232,31.637,48.977,32.595,48.147,33.458z"/>
			</g>
			<g>
				<path fill="#FFFFFF" d="M53.712,25.278v2.792h4.479v1.973h-4.479v4.61h-2.216V23.299h7.477v1.979H53.712z"/>
			</g>
		</g>
		<g>
			<g>
				<path fill="#FFFFFF" d="M43.542,39.136c-0.226,0.24-0.515,0.35-0.836,0.35c-0.333,0-0.589-0.115-0.786-0.308
					c-0.294-0.303-0.309-0.604-0.309-1.24c0-0.639,0.014-0.941,0.309-1.234c0.197-0.2,0.452-0.313,0.786-0.313
					c0.64,0,1.021,0.427,1.101,0.944h-0.461c-0.075-0.338-0.297-0.532-0.64-0.532c-0.183,0-0.337,0.067-0.453,0.186
					c-0.149,0.164-0.179,0.349-0.179,0.95c0,0.6,0.03,0.785,0.179,0.945c0.116,0.124,0.27,0.192,0.453,0.192
					c0.203,0,0.379-0.076,0.499-0.221c0.112-0.13,0.15-0.28,0.15-0.477v-0.172h-0.649v-0.391h1.11v0.463
					C43.816,38.678,43.745,38.918,43.542,39.136z"/>
			</g>
			<g>
				<path fill="#FFFFFF" d="M44.495,39.456v-3.035h0.463v2.625h1.463v0.41H44.495z"/>
			</g>
			<g>
				<path fill="#FFFFFF" d="M47.818,39.485c-0.619,0-1.09-0.426-1.09-1.051v-2.014h0.46v1.991c0,0.406,0.249,0.655,0.629,0.655
					c0.381,0,0.633-0.249,0.633-0.655v-1.991h0.461v2.014C48.912,39.06,48.437,39.485,47.818,39.485z"/>
			</g>
			<g>
				<path fill="#FFFFFF" d="M50.688,36.83v2.626h-0.462V36.83H49.39v-0.409h2.134v0.409H50.688z"/>
			</g>
			<g>
				<path fill="#FFFFFF" d="M52.05,39.456v-3.035h1.942v0.409h-1.481v0.888h1.265v0.413h-1.265v0.915h1.481v0.41H52.05z"/>
			</g>
			<g>
				<path fill="#FFFFFF" d="M56.491,39.456l-1.406-2.138v2.138h-0.46v-3.035h0.422l1.406,2.133v-2.133h0.46v3.035H56.491z"/>
			</g>
			<g>
				<path fill="#FFFFFF" d="M44.955,41.105v0.92h1.264v0.418h-1.264v1.289h-0.462v-3.044h1.944v0.417H44.955z"/>
			</g>
			<g>
				<path fill="#FFFFFF" d="M48.67,43.732l-0.641-1.285h-0.578v1.285h-0.46v-3.044h1.179c0.577,0,0.945,0.372,0.945,0.888
					c0,0.434-0.267,0.717-0.607,0.808l0.699,1.349H48.67z M48.135,41.105h-0.684v0.949h0.684c0.308,0,0.519-0.174,0.519-0.474
					C48.653,41.279,48.442,41.105,48.135,41.105z"/>
			</g>
			<g>
				<path fill="#FFFFFF" d="M49.789,43.732v-3.044h1.944v0.417h-1.485v0.886h1.267v0.413h-1.267v0.913h1.485v0.415H49.789z"/>
			</g>
			<g>
				<path fill="#FFFFFF" d="M52.364,43.732v-3.044h1.945v0.417h-1.484v0.886h1.265v0.413h-1.265v0.913h1.484v0.415H52.364z"/>
			</g>
		</g>
	</g>
	<g>
		<g>
			<g>
				<g>
					<defs>
						<path id="SVGID_7_" d="M116.017,31.846c0,8.87-7.187,16.061-16.057,16.061c-8.867,0-16.059-7.19-16.059-16.061
							c0-8.869,7.191-16.053,16.059-16.053C108.83,15.793,116.017,22.977,116.017,31.846z"/>
					</defs>
					<clipPath id="SVGID_8_">
						<use xlink:href="#SVGID_7_"  overflow="visible"/>
					</clipPath>
					<rect x="83.901" y="15.791" clip-path="url(#SVGID_8_)" fill="#17503C" width="32.117" height="32.115"/>
					<circle clip-path="url(#SVGID_8_)" fill="#17503C" cx="99.96" cy="31.846" r="16.059"/>
					<path clip-path="url(#SVGID_8_)" fill="#17503D" d="M115.35,31.846c0,8.498-6.892,15.389-15.39,15.389
						c-8.499,0-15.388-6.891-15.388-15.389c0-8.491,6.89-15.385,15.388-15.385C108.458,16.461,115.35,23.354,115.35,31.846z"/>
					<path clip-path="url(#SVGID_8_)" fill="#18523E" d="M114.68,31.846c0,8.13-6.591,14.72-14.72,14.72
						c-8.131,0-14.719-6.59-14.719-14.72c0-8.126,6.587-14.718,14.719-14.718C108.089,17.127,114.68,23.72,114.68,31.846z"/>
					<path clip-path="url(#SVGID_8_)" fill="#195340" d="M114.012,31.846c0,7.763-6.294,14.054-14.052,14.054
						c-7.761,0-14.049-6.291-14.049-14.054c0-7.753,6.288-14.049,14.049-14.049C107.718,17.796,114.012,24.093,114.012,31.846z"/>
					<path clip-path="url(#SVGID_8_)" fill="#1A5440" d="M113.341,31.846c0,7.395-5.987,13.38-13.381,13.38
						c-7.39,0-13.381-5.985-13.381-13.38c0-7.386,5.991-13.379,13.381-13.379C107.354,18.467,113.341,24.46,113.341,31.846z"/>
					<path clip-path="url(#SVGID_8_)" fill="#1A5440" d="M112.673,31.846c0,7.02-5.691,12.714-12.713,12.714
						c-7.021,0-12.711-5.694-12.711-12.714c0-7.018,5.691-12.712,12.711-12.712C106.981,19.134,112.673,24.828,112.673,31.846z"/>
					<path clip-path="url(#SVGID_8_)" fill="#1B5642" d="M112.002,31.846c0,6.654-5.389,12.044-12.042,12.044
						c-6.651,0-12.042-5.39-12.042-12.044c0-6.647,5.39-12.039,12.042-12.039C106.613,19.807,112.002,25.198,112.002,31.846z"/>
					<path clip-path="url(#SVGID_8_)" fill="#1B5643" d="M111.332,31.846c0,6.285-5.089,11.373-11.372,11.373
						c-6.282,0-11.375-5.088-11.375-11.373c0-6.28,5.092-11.373,11.375-11.373C106.243,20.473,111.332,25.565,111.332,31.846z"/>
					<path clip-path="url(#SVGID_8_)" fill="#1B5844" d="M110.667,31.846c0,5.911-4.795,10.709-10.707,10.709
						c-5.912,0-10.706-4.798-10.706-10.709c0-5.908,4.794-10.704,10.706-10.704C105.872,21.142,110.667,25.938,110.667,31.846z"/>
					<path clip-path="url(#SVGID_8_)" fill="#1A5944" d="M109.997,31.846c0,5.545-4.493,10.038-10.037,10.038
						c-5.542,0-10.034-4.493-10.034-10.038c0-5.543,4.492-10.032,10.034-10.032C105.504,21.813,109.997,26.303,109.997,31.846z"/>
					<path clip-path="url(#SVGID_8_)" fill="#1B5945" d="M109.328,31.846c0,5.174-4.192,9.367-9.368,9.367
						c-5.173,0-9.367-4.193-9.367-9.367c0-5.17,4.193-9.365,9.367-9.365C105.136,22.48,109.328,26.676,109.328,31.846z"/>
					<path clip-path="url(#SVGID_8_)" fill="#1D5A46" d="M108.657,31.846c0,4.805-3.895,8.7-8.697,8.7
						c-4.804,0-8.698-3.896-8.698-8.7c0-4.803,3.894-8.691,8.698-8.691C104.763,23.154,108.657,27.043,108.657,31.846z"/>
					<path clip-path="url(#SVGID_8_)" fill="#1E5D47" d="M107.986,31.846c0,4.437-3.592,8.033-8.026,8.033s-8.026-3.597-8.026-8.033
						c0-4.433,3.591-8.025,8.026-8.025S107.986,27.413,107.986,31.846z"/>
					<path clip-path="url(#SVGID_8_)" fill="#1E5D47" d="M107.318,31.846c0,4.066-3.297,7.361-7.358,7.361
						c-4.067,0-7.359-3.295-7.359-7.361c0-4.059,3.292-7.356,7.359-7.356C104.021,24.489,107.318,27.787,107.318,31.846z"/>
					<path clip-path="url(#SVGID_8_)" fill="#1E5F49" d="M106.649,31.846c0,3.699-2.991,6.691-6.689,6.691
						c-3.697,0-6.691-2.992-6.691-6.691c0-3.695,2.994-6.687,6.691-6.687C103.658,25.159,106.649,28.15,106.649,31.846z"/>
					<path clip-path="url(#SVGID_8_)" fill="#215F49" d="M105.983,31.846c0,3.328-2.697,6.026-6.023,6.026
						c-3.327,0-6.023-2.698-6.023-6.026c0-3.322,2.696-6.019,6.023-6.019C103.286,25.827,105.983,28.523,105.983,31.846z"/>
					<path clip-path="url(#SVGID_8_)" fill="#21614A" d="M105.312,31.846c0,2.959-2.396,5.354-5.353,5.354
						c-2.956,0-5.353-2.395-5.353-5.354c0-2.953,2.397-5.353,5.353-5.353C102.916,26.493,105.312,28.893,105.312,31.846z"/>
					<path clip-path="url(#SVGID_8_)" fill="#22614C" d="M104.645,31.846c0,2.588-2.101,4.687-4.685,4.687
						c-2.585,0-4.682-2.099-4.682-4.687c0-2.582,2.097-4.678,4.682-4.678C102.544,27.168,104.645,29.264,104.645,31.846z"/>
					<path clip-path="url(#SVGID_8_)" fill="#22634D" d="M103.974,31.846c0,2.222-1.798,4.014-4.014,4.014s-4.014-1.792-4.014-4.014
						c0-2.214,1.798-4.012,4.014-4.012S103.974,29.632,103.974,31.846z"/>
					<path clip-path="url(#SVGID_8_)" fill="#22644D" d="M103.304,31.846c0,1.852-1.496,3.345-3.344,3.345
						c-1.847,0-3.346-1.493-3.346-3.345c0-1.845,1.5-3.342,3.346-3.342C101.808,28.504,103.304,30.001,103.304,31.846z"/>
					<path clip-path="url(#SVGID_8_)" fill="#22654E" d="M102.634,31.846c0,1.481-1.198,2.681-2.674,2.681
						c-1.476,0-2.676-1.199-2.676-2.681c0-1.477,1.2-2.672,2.676-2.672C101.436,29.174,102.634,30.369,102.634,31.846z"/>
					<path clip-path="url(#SVGID_8_)" fill="#23654E" d="M101.969,31.846c0,1.116-0.899,2.013-2.009,2.013
						c-1.109,0-2.007-0.896-2.007-2.013c0-1.104,0.898-2.006,2.007-2.006C101.069,29.84,101.969,30.741,101.969,31.846z"/>
					<circle clip-path="url(#SVGID_8_)" fill="#236750" cx="99.958" cy="31.846" r="1.339"/>
					<path clip-path="url(#SVGID_8_)" fill="#246851" d="M100.629,31.846c0,0.369-0.298,0.674-0.669,0.674
						c-0.368,0-0.673-0.305-0.673-0.674c0-0.368,0.305-0.667,0.673-0.667C100.331,31.179,100.629,31.478,100.629,31.846z"/>
				</g>
			</g>
			<g>
				<path fill="#FFFFFF" d="M99.96,46.814c-8.25,0-14.966-6.712-14.966-14.969c0-8.248,6.716-14.963,14.966-14.963
					c8.252,0,14.964,6.715,14.964,14.963C114.924,40.103,108.212,46.814,99.96,46.814z M99.96,17.166
					c-8.095,0-14.68,6.589-14.68,14.68c0,8.1,6.585,14.683,14.68,14.683c8.096,0,14.681-6.583,14.681-14.683
					C114.641,23.755,108.056,17.166,99.96,17.166z"/>
			</g>
		</g>
		<g>
			<path fill="#FFFFFF" d="M93.915,35.344c-0.733,0.771-1.553,1.007-2.499,1.007c-1.009,0-1.755-0.335-2.364-0.93
				c-0.884-0.885-0.896-1.88-0.896-3.575c0-1.688,0.012-2.687,0.896-3.567c0.609-0.603,1.355-0.935,2.364-0.935
				c2.064,0,3.098,1.347,3.333,2.837h-1.742c-0.199-0.845-0.709-1.292-1.592-1.292c-0.474,0-0.849,0.185-1.108,0.467
				c-0.323,0.374-0.422,0.803-0.422,2.49c0,1.695,0.099,2.131,0.422,2.507c0.26,0.282,0.634,0.457,1.108,0.457
				c0.532,0,0.958-0.186,1.233-0.496c0.286-0.326,0.394-0.725,0.394-1.184v-0.32h-1.627v-1.459h3.348v1.296
				C94.764,33.931,94.564,34.674,93.915,35.344z"/>
			<path fill="#FFFFFF" d="M97.816,28.965v2.175h3.498v1.54h-3.498v3.599h-1.731v-8.86h5.834v1.547H97.816z"/>
			<path fill="#FFFFFF" d="M105.609,36.351c-1.345,0-2.363-0.286-3.235-1.165l1.119-1.123c0.561,0.562,1.319,0.747,2.126,0.747
				c1.033,0,1.585-0.396,1.585-1.105c0-0.302-0.091-0.551-0.273-0.736c-0.174-0.158-0.354-0.234-0.802-0.297l-1.051-0.161
				c-0.788-0.113-1.32-0.35-1.722-0.735c-0.421-0.416-0.634-0.997-0.634-1.745c0-1.577,1.172-2.686,3.087-2.686
				c1.217,0,2.102,0.302,2.863,1.034l-1.096,1.084c-0.551-0.537-1.235-0.613-1.817-0.613c-0.921,0-1.355,0.507-1.355,1.118
				c0,0.24,0.059,0.461,0.244,0.642c0.177,0.159,0.439,0.283,0.812,0.328l1.06,0.167c0.808,0.11,1.304,0.323,1.689,0.695
				c0.475,0.437,0.685,1.069,0.685,1.867C108.895,35.382,107.477,36.351,105.609,36.351z"/>
			<path fill="#FFFFFF" d="M110.035,36.278v-8.86h1.729v8.86H110.035z"/>
		</g>
	</g>
	<g>
		<path fill="#231F20" d="M-23.83-13.083h4.17l5.92,9.68h0.04v-9.68h3.069V0.846h-4.013l-6.079-9.916h-0.039v9.916h-3.068V-13.083z"
			/>
		<path fill="#231F20" d="M-2.173-0.354h-0.039c-0.329,0.511-0.765,0.877-1.309,1.102C-4.065,0.97-4.639,1.082-5.242,1.082
			c-0.446,0-0.875-0.063-1.288-0.188C-6.943,0.77-7.307,0.581-7.621,0.333C-7.937,0.083-8.186-0.224-8.37-0.59
			c-0.184-0.366-0.275-0.794-0.275-1.28c0-0.549,0.101-1.016,0.305-1.396c0.203-0.382,0.479-0.694,0.826-0.943
			c0.346-0.25,0.744-0.443,1.19-0.582c0.445-0.135,0.907-0.239,1.386-0.305C-4.458-5.162-3.979-5.202-3.5-5.212
			c0.479-0.016,0.92-0.02,1.327-0.02c0-0.525-0.187-0.942-0.561-1.25S-3.55-6.944-4.062-6.944c-0.485,0-0.928,0.103-1.328,0.305
			c-0.4,0.204-0.758,0.481-1.071,0.836l-1.574-1.614c0.55-0.511,1.192-0.895,1.927-1.151c0.734-0.253,1.496-0.384,2.282-0.384
			c0.865,0,1.577,0.108,2.134,0.327c0.558,0.217,1.003,0.535,1.337,0.955c0.334,0.419,0.568,0.935,0.698,1.543
			c0.132,0.61,0.197,1.315,0.197,2.114v4.859h-2.714V-0.354z M-2.9-3.346c-0.224,0-0.502,0.011-0.836,0.031
			C-4.071-3.296-4.393-3.24-4.701-3.147c-0.308,0.09-0.57,0.23-0.787,0.413C-5.704-2.55-5.812-2.295-5.812-1.968
			c0,0.354,0.15,0.615,0.453,0.786c0.301,0.17,0.616,0.256,0.944,0.256c0.289,0,0.567-0.039,0.836-0.115
			c0.269-0.082,0.508-0.191,0.719-0.338c0.209-0.141,0.377-0.328,0.501-0.55s0.187-0.485,0.187-0.786v-0.63H-2.9z"/>
		<path fill="#231F20" d="M8.9-6.354H6.304v3.184c0,0.264,0.013,0.503,0.04,0.718C6.37-2.234,6.429-2.045,6.521-1.889
			c0.091,0.156,0.232,0.28,0.423,0.363c0.19,0.085,0.442,0.13,0.757,0.13c0.158,0,0.363-0.017,0.62-0.052
			C8.576-1.479,8.77-1.556,8.9-1.671v2.458C8.574,0.904,8.232,0.983,7.878,1.022c-0.354,0.038-0.703,0.06-1.042,0.06
			c-0.499,0-0.958-0.054-1.377-0.158C5.039,0.819,4.671,0.652,4.357,0.423C4.042,0.193,3.796-0.104,3.619-0.473
			C3.443-0.839,3.354-1.286,3.354-1.812v-4.542H1.465v-2.36h1.889v-2.833h2.95v2.833H8.9V-6.354z"/>
		<path fill="#231F20" d="M19.602,0.846h-2.833v-1.299H16.73c-0.105,0.182-0.24,0.368-0.403,0.551
			c-0.164,0.183-0.364,0.348-0.601,0.491c-0.235,0.145-0.505,0.264-0.805,0.355c-0.302,0.092-0.63,0.138-0.984,0.138
			c-0.747,0-1.354-0.117-1.819-0.345c-0.466-0.228-0.827-0.547-1.083-0.955c-0.257-0.406-0.426-0.886-0.511-1.434
			c-0.085-0.553-0.128-1.149-0.128-1.791v-5.271h2.951v4.68c0,0.276,0.01,0.562,0.028,0.854c0.021,0.295,0.08,0.569,0.178,0.817
			c0.099,0.251,0.249,0.452,0.452,0.61c0.204,0.157,0.496,0.235,0.875,0.235c0.38,0,0.689-0.067,0.924-0.207
			c0.236-0.137,0.417-0.32,0.542-0.549c0.124-0.23,0.207-0.489,0.245-0.777c0.04-0.287,0.06-0.59,0.06-0.906v-4.758h2.95V0.846z"/>
		<path fill="#231F20" d="M21.687-8.713h2.95v1.532h0.038c0.316-0.591,0.689-1.034,1.123-1.328s0.977-0.444,1.633-0.444
			c0.17,0,0.34,0.008,0.511,0.02c0.169,0.015,0.328,0.042,0.472,0.079v2.696c-0.21-0.063-0.416-0.115-0.62-0.146
			c-0.203-0.033-0.417-0.05-0.639-0.05c-0.564,0-1.01,0.079-1.337,0.235C25.49-5.96,25.236-5.741,25.06-5.459
			c-0.177,0.283-0.291,0.621-0.344,1.014c-0.052,0.393-0.079,0.826-0.079,1.298v3.993h-2.95V-8.713z"/>
		<path fill="#231F20" d="M35.691-0.354h-0.039c-0.329,0.511-0.765,0.877-1.308,1.102C33.8,0.97,33.226,1.082,32.624,1.082
			c-0.447,0-0.876-0.063-1.289-0.188c-0.414-0.124-0.777-0.313-1.092-0.562c-0.315-0.249-0.564-0.557-0.748-0.922
			c-0.184-0.366-0.275-0.794-0.275-1.28c0-0.549,0.102-1.016,0.305-1.396c0.204-0.382,0.478-0.694,0.826-0.943
			c0.348-0.25,0.744-0.443,1.191-0.582c0.445-0.135,0.907-0.239,1.387-0.305c0.478-0.066,0.957-0.105,1.435-0.116
			c0.479-0.016,0.921-0.02,1.328-0.02c0-0.525-0.186-0.942-0.561-1.25c-0.373-0.308-0.815-0.461-1.328-0.461
			c-0.484,0-0.927,0.103-1.327,0.305c-0.4,0.204-0.757,0.481-1.071,0.836L29.83-7.417c0.551-0.511,1.193-0.895,1.928-1.151
			c0.734-0.253,1.495-0.384,2.282-0.384c0.865,0,1.577,0.108,2.134,0.327c0.557,0.217,1.003,0.535,1.338,0.955
			c0.333,0.419,0.568,0.935,0.698,1.543c0.131,0.61,0.197,1.315,0.197,2.114v4.859h-2.715V-0.354z M34.964-3.346
			c-0.223,0-0.501,0.011-0.836,0.031c-0.333,0.019-0.656,0.075-0.963,0.167c-0.31,0.09-0.571,0.23-0.787,0.413
			c-0.217,0.185-0.325,0.439-0.325,0.767c0,0.354,0.15,0.615,0.452,0.786c0.301,0.17,0.616,0.256,0.943,0.256
			c0.289,0,0.568-0.039,0.836-0.115c0.268-0.082,0.507-0.191,0.718-0.338c0.21-0.141,0.376-0.328,0.502-0.55
			c0.124-0.222,0.186-0.485,0.186-0.786v-0.63H34.964z"/>
		<path fill="#231F20" d="M40.294-14.026h2.95V0.846h-2.95V-14.026z"/>
		<path fill="#231F20" d="M51.684-13.083h9.343v2.835h-6.274v2.832h5.803v2.833h-5.803v5.429h-3.068V-13.083z"/>
		<path fill="#231F20" d="M62.502-3.934c0-0.762,0.136-1.449,0.413-2.065c0.275-0.619,0.652-1.146,1.13-1.585
			c0.479-0.439,1.043-0.777,1.692-1.012c0.649-0.235,1.342-0.356,2.075-0.356c0.735,0,1.427,0.121,2.075,0.356
			c0.65,0.235,1.213,0.573,1.692,1.012c0.479,0.439,0.856,0.966,1.132,1.585c0.274,0.616,0.413,1.303,0.413,2.065
			c0,0.759-0.138,1.45-0.413,2.064c-0.276,0.618-0.653,1.145-1.132,1.583c-0.479,0.441-1.042,0.779-1.692,1.016
			c-0.648,0.235-1.34,0.354-2.075,0.354c-0.733,0-1.426-0.119-2.075-0.354c-0.648-0.237-1.213-0.575-1.692-1.016
			c-0.479-0.438-0.855-0.965-1.13-1.583C62.639-2.484,62.502-3.175,62.502-3.934z M65.452-3.934c0,0.72,0.207,1.305,0.62,1.75
			c0.413,0.447,0.993,0.668,1.741,0.668s1.328-0.221,1.741-0.668c0.413-0.445,0.62-1.03,0.62-1.75c0-0.723-0.208-1.306-0.62-1.752
			c-0.413-0.445-0.993-0.667-1.741-0.667s-1.328,0.222-1.741,0.667C65.659-5.24,65.452-4.657,65.452-3.934z"/>
		<path fill="#231F20" d="M74.5-3.934c0-0.762,0.138-1.449,0.413-2.065c0.276-0.619,0.653-1.146,1.131-1.585
			c0.479-0.439,1.043-0.777,1.692-1.012c0.649-0.235,1.341-0.356,2.075-0.356c0.735,0,1.427,0.121,2.075,0.356
			c0.649,0.235,1.213,0.573,1.692,1.012c0.478,0.439,0.856,0.966,1.131,1.585c0.275,0.616,0.413,1.303,0.413,2.065
			c0,0.759-0.137,1.45-0.413,2.064c-0.275,0.618-0.653,1.145-1.131,1.583c-0.479,0.441-1.043,0.779-1.692,1.016
			c-0.648,0.235-1.34,0.354-2.075,0.354c-0.734,0-1.425-0.119-2.075-0.354c-0.649-0.237-1.213-0.575-1.692-1.016
			c-0.478-0.438-0.854-0.965-1.131-1.583C74.638-2.484,74.5-3.175,74.5-3.934z M77.451-3.934c0,0.72,0.206,1.305,0.619,1.75
			c0.414,0.447,0.994,0.668,1.741,0.668c0.748,0,1.329-0.221,1.742-0.668c0.412-0.445,0.62-1.03,0.62-1.75
			c0-0.723-0.208-1.306-0.62-1.752c-0.413-0.445-0.994-0.667-1.742-0.667c-0.747,0-1.327,0.222-1.741,0.667
			C77.657-5.24,77.451-4.657,77.451-3.934z"/>
		<path fill="#231F20" d="M96.885,0.846h-2.713v-1.258h-0.041c-0.118,0.168-0.272,0.344-0.461,0.521
			C93.478,0.284,93.256,0.446,93,0.589c-0.256,0.145-0.537,0.264-0.846,0.355c-0.308,0.092-0.626,0.138-0.954,0.138
			c-0.708,0-1.35-0.122-1.928-0.367c-0.577-0.241-1.072-0.579-1.485-1.02c-0.413-0.439-0.731-0.959-0.955-1.565
			c-0.222-0.601-0.334-1.265-0.334-1.985c0-0.669,0.102-1.31,0.305-1.92c0.204-0.608,0.492-1.15,0.867-1.62
			c0.373-0.474,0.829-0.85,1.366-1.131c0.539-0.283,1.148-0.426,1.83-0.426c0.617,0,1.191,0.097,1.723,0.288
			c0.53,0.188,0.966,0.514,1.307,0.973h0.04v-6.334h2.95V0.846z M94.171-3.934c0-0.723-0.208-1.306-0.621-1.752
			c-0.413-0.445-0.994-0.667-1.741-0.667c-0.748,0-1.328,0.222-1.742,0.667c-0.412,0.446-0.619,1.029-0.619,1.752
			c0,0.72,0.207,1.305,0.619,1.75c0.414,0.447,0.994,0.668,1.742,0.668c0.747,0,1.328-0.221,1.741-0.668
			C93.964-2.629,94.171-3.214,94.171-3.934z"/>
		<path fill="#231F20" d="M105.932-13.083h4.015c0.483,0,0.993,0.06,1.524,0.169c0.529,0.111,1.016,0.305,1.455,0.583
			c0.44,0.274,0.8,0.65,1.082,1.129c0.282,0.478,0.422,1.08,0.422,1.799c0,0.63-0.114,1.175-0.345,1.631
			c-0.228,0.462-0.537,0.838-0.922,1.133c-0.389,0.295-0.834,0.516-1.339,0.66c-0.505,0.142-1.031,0.214-1.583,0.214h-3.01v6.611
			h-1.3V-13.083z M107.231-6.944h2.95c0.367,0,0.727-0.042,1.081-0.126c0.354-0.085,0.671-0.226,0.945-0.415
			c0.274-0.189,0.498-0.443,0.669-0.759c0.171-0.315,0.257-0.701,0.257-1.16c0-0.443-0.09-0.825-0.268-1.139
			c-0.177-0.316-0.407-0.576-0.688-0.778c-0.282-0.204-0.606-0.351-0.974-0.443c-0.369-0.091-0.734-0.137-1.103-0.137h-2.871V-6.944
			z"/>
		<path fill="#231F20" d="M116.889-5.687c0-0.17-0.007-0.376-0.02-0.617c-0.012-0.245-0.021-0.489-0.028-0.739
			c-0.009-0.25-0.019-0.481-0.03-0.697c-0.013-0.217-0.02-0.387-0.02-0.503h1.18c0.014,0.343,0.023,0.669,0.031,0.984
			c0.005,0.315,0.02,0.518,0.047,0.61c0.303-0.537,0.689-0.977,1.161-1.319c0.473-0.338,1.049-0.51,1.731-0.51
			c0.118,0,0.232,0.011,0.342,0.029c0.113,0.02,0.229,0.042,0.347,0.07l-0.137,1.159c-0.159-0.051-0.311-0.078-0.455-0.078
			c-0.51,0-0.954,0.083-1.326,0.245c-0.374,0.165-0.682,0.39-0.925,0.681c-0.243,0.288-0.423,0.624-0.541,1.01
			c-0.117,0.389-0.177,0.806-0.177,1.25v4.958h-1.181V-5.687z"/>
		<path fill="#231F20" d="M123.34-11.843c0-0.248,0.086-0.459,0.256-0.63c0.171-0.168,0.381-0.257,0.629-0.257
			c0.251,0,0.46,0.089,0.631,0.257c0.17,0.171,0.255,0.382,0.255,0.63c0,0.25-0.085,0.46-0.255,0.63
			c-0.171,0.171-0.38,0.257-0.631,0.257c-0.248,0-0.458-0.086-0.629-0.257C123.426-11.383,123.34-11.594,123.34-11.843z
			 M123.636-8.244h1.18v9.089h-1.18V-8.244z"/>
		<path fill="#231F20" d="M126.881-8.244h1.338l3.029,7.809l2.951-7.809h1.2l-3.579,9.089h-1.222L126.881-8.244z"/>
		<path fill="#231F20" d="M144.328-2.972c0,0.448,0.004,0.847,0.011,1.202c0.007,0.355,0.017,0.682,0.027,0.981
			c0.016,0.303,0.03,0.584,0.05,0.848c0.021,0.262,0.052,0.522,0.089,0.787h-1.101c-0.08-0.444-0.119-0.939-0.119-1.475h-0.039
			c-0.341,0.587-0.765,1.023-1.269,1.298c-0.505,0.275-1.144,0.413-1.918,0.413c-0.392,0-0.778-0.047-1.159-0.148
			c-0.382-0.098-0.722-0.257-1.023-0.471c-0.303-0.218-0.548-0.495-0.738-0.839c-0.188-0.338-0.283-0.75-0.283-1.238
			c0-0.695,0.176-1.244,0.529-1.652c0.354-0.407,0.791-0.712,1.308-0.915c0.52-0.204,1.07-0.334,1.652-0.393
			c0.585-0.061,1.1-0.088,1.545-0.088h1.378v-0.55c0-0.787-0.242-1.35-0.729-1.694c-0.485-0.341-1.095-0.51-1.83-0.51
			c-1.05,0-1.974,0.344-2.773,1.025l-0.688-0.809c0.433-0.419,0.971-0.737,1.613-0.952c0.644-0.218,1.258-0.325,1.849-0.325
			c1.102,0,1.98,0.259,2.636,0.777c0.656,0.517,0.983,1.355,0.983,2.508V-2.972z M141.968-3.719c-0.5,0-0.981,0.036-1.444,0.099
			c-0.466,0.065-0.886,0.178-1.26,0.334c-0.374,0.157-0.673,0.369-0.895,0.63c-0.224,0.264-0.335,0.591-0.335,0.985
			c0,0.275,0.062,0.519,0.187,0.737c0.124,0.215,0.286,0.394,0.481,0.529c0.198,0.139,0.419,0.245,0.659,0.314
			c0.244,0.075,0.489,0.111,0.739,0.111c0.629,0,1.146-0.093,1.552-0.276c0.409-0.184,0.732-0.421,0.976-0.718
			s0.407-0.63,0.501-1.004c0.092-0.373,0.139-0.75,0.139-1.131v-0.61H141.968z"/>
		<path fill="#231F20" d="M151.923-7.181h-2.599v5.923c0,0.404,0.113,0.722,0.336,0.944c0.221,0.221,0.53,0.335,0.924,0.335
			c0.223,0,0.448-0.032,0.678-0.089c0.23-0.06,0.452-0.136,0.661-0.226l0.096,1.062c-0.222,0.079-0.479,0.149-0.764,0.216
			c-0.292,0.065-0.546,0.099-0.769,0.099c-0.421,0-0.781-0.063-1.083-0.188c-0.302-0.124-0.544-0.292-0.729-0.5
			c-0.184-0.21-0.317-0.457-0.403-0.737c-0.083-0.284-0.127-0.588-0.127-0.915v-5.923h-1.968v-1.062h1.968v-2.615h1.18v2.615h2.599
			V-7.181z"/>
		<path fill="#231F20" d="M162.051-0.867c-0.457,0.696-1.024,1.194-1.701,1.494c-0.676,0.304-1.419,0.455-2.232,0.455
			c-0.696,0-1.324-0.119-1.889-0.354c-0.565-0.237-1.048-0.569-1.456-0.995c-0.407-0.426-0.717-0.932-0.934-1.512
			c-0.215-0.585-0.323-1.232-0.323-1.941c0-0.68,0.11-1.311,0.333-1.889c0.222-0.577,0.54-1.078,0.944-1.502
			c0.406-0.428,0.886-0.763,1.436-1.003c0.552-0.245,1.162-0.365,1.829-0.365c0.694,0,1.311,0.12,1.84,0.365
			c0.53,0.241,0.977,0.564,1.34,0.961c0.359,0.4,0.632,0.856,0.813,1.367c0.185,0.513,0.277,1.032,0.277,1.557v0.825h-7.633
			c0,0.249,0.048,0.567,0.148,0.952c0.097,0.388,0.277,0.764,0.54,1.133c0.26,0.367,0.612,0.681,1.053,0.942
			c0.438,0.264,1.005,0.397,1.701,0.397c0.602,0,1.187-0.144,1.75-0.433c0.562-0.291,0.998-0.685,1.298-1.182L162.051-0.867z
			 M161.146-4.465c0-0.41-0.081-0.788-0.245-1.143c-0.163-0.353-0.388-0.665-0.668-0.933c-0.282-0.27-0.617-0.481-1.002-0.641
			c-0.39-0.156-0.797-0.236-1.23-0.236c-0.643,0-1.18,0.13-1.604,0.395c-0.425,0.26-0.764,0.565-1.012,0.903
			c-0.251,0.341-0.427,0.671-0.53,0.994c-0.105,0.322-0.158,0.542-0.158,0.66H161.146z"/>
		<path fill="#231F20" d="M170.412-13.083h1.296v12.75h6.492v1.18h-7.788V-13.083z"/>
		<path fill="#231F20" d="M186.972-2.972c0,0.448,0.005,0.847,0.013,1.202c0.005,0.355,0.015,0.682,0.03,0.981
			c0.013,0.303,0.028,0.584,0.048,0.848c0.021,0.262,0.049,0.522,0.088,0.787h-1.101c-0.081-0.444-0.117-0.939-0.117-1.475h-0.041
			c-0.34,0.587-0.765,1.023-1.271,1.298c-0.502,0.275-1.143,0.413-1.916,0.413c-0.392,0-0.779-0.047-1.16-0.148
			c-0.381-0.098-0.723-0.257-1.023-0.471c-0.303-0.218-0.546-0.495-0.738-0.839c-0.189-0.338-0.285-0.75-0.285-1.238
			c0-0.695,0.178-1.244,0.531-1.652c0.356-0.407,0.792-0.712,1.31-0.915c0.519-0.204,1.068-0.334,1.652-0.393
			c0.582-0.061,1.098-0.088,1.543-0.088h1.379v-0.55c0-0.787-0.244-1.35-0.728-1.694c-0.486-0.341-1.097-0.51-1.831-0.51
			c-1.049,0-1.974,0.344-2.772,1.025l-0.688-0.809c0.431-0.419,0.97-0.737,1.609-0.952c0.645-0.218,1.261-0.325,1.851-0.325
			c1.104,0,1.979,0.259,2.636,0.777c0.656,0.517,0.981,1.355,0.981,2.508V-2.972z M184.613-3.719c-0.498,0-0.98,0.036-1.446,0.099
			c-0.466,0.065-0.886,0.178-1.258,0.334c-0.375,0.157-0.674,0.369-0.896,0.63c-0.222,0.264-0.333,0.591-0.333,0.985
			c0,0.275,0.062,0.519,0.187,0.737c0.123,0.215,0.286,0.394,0.481,0.529c0.197,0.139,0.415,0.245,0.658,0.314
			c0.244,0.075,0.49,0.111,0.739,0.111c0.628,0,1.146-0.093,1.553-0.276c0.408-0.184,0.732-0.421,0.974-0.718
			c0.243-0.296,0.412-0.63,0.504-1.004c0.09-0.373,0.138-0.75,0.138-1.131v-0.61H184.613z"/>
		<path fill="#231F20" d="M189.865-14.026h1.179v7.377h0.041c0.183-0.315,0.413-0.585,0.689-0.814
			c0.273-0.23,0.573-0.421,0.896-0.572c0.318-0.151,0.656-0.261,1.011-0.335c0.355-0.072,0.702-0.107,1.044-0.107
			c0.694,0,1.333,0.117,1.917,0.351c0.583,0.238,1.088,0.571,1.514,0.996c0.427,0.427,0.758,0.932,0.994,1.516
			c0.236,0.583,0.355,1.22,0.355,1.917c0,0.696-0.119,1.336-0.355,1.921c-0.236,0.58-0.567,1.086-0.994,1.512
			c-0.426,0.426-0.931,0.758-1.514,0.995c-0.584,0.235-1.223,0.354-1.917,0.354c-0.342,0-0.688-0.04-1.044-0.109
			c-0.354-0.071-0.692-0.184-1.011-0.334c-0.322-0.149-0.622-0.34-0.896-0.57c-0.276-0.229-0.507-0.503-0.689-0.817h-0.041v1.595
			h-1.179V-14.026z M190.928-3.699c0,0.511,0.099,0.994,0.296,1.445c0.195,0.452,0.464,0.848,0.807,1.183
			c0.339,0.332,0.739,0.598,1.199,0.795c0.456,0.197,0.956,0.296,1.495,0.296c0.55,0,1.05-0.099,1.494-0.296
			c0.445-0.197,0.826-0.463,1.142-0.795c0.312-0.335,0.553-0.731,0.716-1.183c0.164-0.452,0.246-0.935,0.246-1.445
			c0-0.51-0.082-0.995-0.246-1.445c-0.163-0.452-0.404-0.845-0.716-1.181c-0.315-0.333-0.696-0.6-1.142-0.798
			c-0.444-0.194-0.944-0.293-1.494-0.293c-0.539,0-1.039,0.099-1.495,0.293c-0.46,0.198-0.86,0.465-1.199,0.798
			c-0.343,0.336-0.611,0.729-0.807,1.181C191.026-4.694,190.928-4.209,190.928-3.699z"/>
		<path fill="#231F20" d="M210.165-0.867c-0.458,0.696-1.024,1.194-1.701,1.494c-0.676,0.304-1.42,0.455-2.232,0.455
			c-0.695,0-1.325-0.119-1.889-0.354c-0.565-0.237-1.049-0.569-1.456-0.995s-0.718-0.932-0.935-1.512
			c-0.216-0.585-0.323-1.232-0.323-1.941c0-0.68,0.11-1.311,0.333-1.889c0.223-0.577,0.539-1.078,0.945-1.502
			c0.406-0.428,0.884-0.763,1.436-1.003c0.55-0.245,1.16-0.365,1.829-0.365c0.693,0,1.309,0.12,1.839,0.365
			c0.531,0.241,0.978,0.564,1.338,0.961c0.36,0.4,0.633,0.856,0.816,1.367c0.184,0.513,0.275,1.032,0.275,1.557v0.825h-7.633
			c0,0.249,0.049,0.567,0.149,0.952c0.097,0.388,0.276,0.764,0.539,1.133c0.262,0.367,0.613,0.681,1.053,0.942
			c0.44,0.264,1.007,0.397,1.702,0.397c0.603,0,1.187-0.144,1.751-0.433c0.562-0.291,0.996-0.685,1.298-1.182L210.165-0.867z
			 M209.26-4.465c0-0.41-0.083-0.788-0.245-1.143c-0.165-0.353-0.388-0.665-0.67-0.933c-0.28-0.27-0.615-0.481-1.003-0.641
			c-0.385-0.156-0.796-0.236-1.228-0.236c-0.645,0-1.18,0.13-1.604,0.395c-0.426,0.26-0.764,0.565-1.014,0.903
			c-0.249,0.341-0.425,0.671-0.53,0.994c-0.104,0.322-0.158,0.542-0.158,0.66H209.26z"/>
		<path fill="#231F20" d="M213.273-14.026h1.179V0.846h-1.179V-14.026z"/>
		<path fill="#231F20" d="M217.816-1.477c0.248,0.485,0.616,0.857,1.102,1.111c0.485,0.257,0.995,0.386,1.535,0.386
			c0.249,0,0.498-0.042,0.746-0.119c0.25-0.08,0.473-0.192,0.669-0.336c0.197-0.143,0.355-0.316,0.481-0.519
			c0.125-0.203,0.188-0.436,0.188-0.698c0-0.422-0.134-0.736-0.404-0.947c-0.27-0.208-0.6-0.374-0.994-0.491
			c-0.392-0.115-0.827-0.218-1.298-0.304s-0.901-0.219-1.298-0.394c-0.394-0.178-0.725-0.422-0.993-0.737
			c-0.27-0.314-0.404-0.762-0.404-1.338c0-0.447,0.093-0.832,0.277-1.159c0.184-0.328,0.425-0.6,0.719-0.819
			c0.294-0.215,0.626-0.376,0.992-0.48c0.367-0.106,0.739-0.157,1.121-0.157c0.748,0,1.394,0.138,1.938,0.413
			c0.543,0.277,0.967,0.708,1.267,1.297l-1.059,0.629c-0.226-0.419-0.505-0.737-0.839-0.951c-0.334-0.218-0.771-0.327-1.308-0.327
			c-0.211,0-0.429,0.032-0.66,0.099c-0.229,0.065-0.435,0.157-0.62,0.275c-0.184,0.118-0.336,0.269-0.461,0.454
			c-0.125,0.182-0.186,0.393-0.186,0.629c0,0.406,0.134,0.708,0.401,0.904c0.269,0.198,0.6,0.351,0.994,0.463
			c0.394,0.11,0.825,0.206,1.298,0.283c0.472,0.082,0.905,0.209,1.299,0.387c0.392,0.175,0.726,0.431,0.992,0.765
			c0.269,0.333,0.403,0.81,0.403,1.425c0,0.475-0.087,0.884-0.263,1.23c-0.181,0.346-0.421,0.64-0.729,0.876
			c-0.309,0.234-0.659,0.413-1.053,0.53c-0.394,0.118-0.806,0.178-1.238,0.178c-0.787,0-1.506-0.151-2.154-0.455
			c-0.652-0.299-1.15-0.766-1.506-1.396L217.816-1.477z"/>
	</g>
	<g>
		<g>
			<g>
				<g>
					<g>
						<defs>
							<path id="SVGID_9_" d="M14.624,31.846c0,8.87-7.189,16.061-16.058,16.061c-8.868,0-16.057-7.19-16.057-16.061
								c0-8.869,7.189-16.053,16.057-16.053C7.434,15.793,14.624,22.977,14.624,31.846z"/>
						</defs>
						<clipPath id="SVGID_10_">
							<use xlink:href="#SVGID_9_"  overflow="visible"/>
						</clipPath>
						<rect x="-17.492" y="15.791" clip-path="url(#SVGID_10_)" fill="#17503C" width="32.115" height="32.115"/>
						<circle clip-path="url(#SVGID_10_)" fill="#17503C" cx="-1.434" cy="31.846" r="16.058"/>
						<path clip-path="url(#SVGID_10_)" fill="#17503D" d="M13.953,31.846c0,8.498-6.888,15.389-15.387,15.389
							c-8.499,0-15.388-6.891-15.388-15.389c0-8.491,6.89-15.385,15.388-15.385C7.065,16.461,13.953,23.354,13.953,31.846z"/>
						<path clip-path="url(#SVGID_10_)" fill="#18523E" d="M13.285,31.846c0,8.13-6.589,14.72-14.719,14.72
							c-8.13,0-14.718-6.59-14.718-14.72c0-8.126,6.588-14.718,14.718-14.718C6.696,17.127,13.285,23.72,13.285,31.846z"/>
						<path clip-path="url(#SVGID_10_)" fill="#195340" d="M12.615,31.846c0,7.763-6.289,14.054-14.049,14.054
							c-7.758,0-14.051-6.291-14.051-14.054c0-7.753,6.293-14.049,14.051-14.049C6.326,17.796,12.615,24.093,12.615,31.846z"/>
						<path clip-path="url(#SVGID_10_)" fill="#1A5440" d="M11.947,31.846c0,7.395-5.991,13.38-13.381,13.38
							s-13.381-5.985-13.381-13.38c0-7.386,5.991-13.379,13.381-13.379S11.947,24.46,11.947,31.846z"/>
						<path clip-path="url(#SVGID_10_)" fill="#1A5440" d="M11.279,31.846c0,7.02-5.694,12.714-12.713,12.714
							c-7.022,0-12.712-5.694-12.712-12.714c0-7.018,5.69-12.712,12.712-12.712C5.585,19.134,11.279,24.828,11.279,31.846z"/>
						<path clip-path="url(#SVGID_10_)" fill="#1B5642" d="M10.608,31.846c0,6.654-5.391,12.044-12.042,12.044
							c-6.652,0-12.043-5.39-12.043-12.044c0-6.647,5.391-12.039,12.043-12.039C5.217,19.807,10.608,25.198,10.608,31.846z"/>
						<path clip-path="url(#SVGID_10_)" fill="#1B5643" d="M9.939,31.846c0,6.285-5.092,11.373-11.374,11.373
							s-11.373-5.088-11.373-11.373c0-6.28,5.091-11.373,11.373-11.373S9.939,25.565,9.939,31.846z"/>
						<path clip-path="url(#SVGID_10_)" fill="#1B5844" d="M9.271,31.846c0,5.911-4.793,10.709-10.706,10.709
							s-10.705-4.798-10.705-10.709c0-5.908,4.792-10.704,10.705-10.704S9.271,25.938,9.271,31.846z"/>
						<path clip-path="url(#SVGID_10_)" fill="#1A5944" d="M8.601,31.846c0,5.547-4.493,10.038-10.035,10.038
							c-5.542,0-10.036-4.491-10.036-10.038c0-5.543,4.494-10.032,10.036-10.032C4.108,21.813,8.601,26.303,8.601,31.846z"/>
						<path clip-path="url(#SVGID_10_)" fill="#1B5945" d="M7.932,31.846c0,5.174-4.193,9.367-9.366,9.367
							c-5.174,0-9.367-4.193-9.367-9.367c0-5.17,4.193-9.365,9.367-9.365C3.739,22.48,7.932,26.676,7.932,31.846z"/>
						<path clip-path="url(#SVGID_10_)" fill="#1D5A46" d="M7.263,31.846c0,4.805-3.895,8.7-8.697,8.7
							c-4.804,0-8.698-3.896-8.698-8.7c0-4.803,3.894-8.691,8.698-8.691C3.368,23.154,7.263,27.043,7.263,31.846z"/>
						<path clip-path="url(#SVGID_10_)" fill="#1E5D47" d="M6.594,31.846c0,4.437-3.594,8.033-8.028,8.033s-8.029-3.597-8.029-8.033
							c0-4.433,3.595-8.025,8.029-8.025S6.594,27.413,6.594,31.846z"/>
						<path clip-path="url(#SVGID_10_)" fill="#1E5D47" d="M5.927,31.846c0,4.066-3.294,7.361-7.361,7.361
							c-4.063,0-7.36-3.295-7.36-7.361c0-4.059,3.297-7.356,7.36-7.356C2.632,24.489,5.927,27.787,5.927,31.846z"/>
						<path clip-path="url(#SVGID_10_)" fill="#1E5F49" d="M5.257,31.846c0,3.699-2.996,6.691-6.691,6.691
							c-3.694,0-6.691-2.992-6.691-6.691c0-3.695,2.997-6.687,6.691-6.687C2.261,25.159,5.257,28.15,5.257,31.846z"/>
						<path clip-path="url(#SVGID_10_)" fill="#215F49" d="M4.588,31.846c0,3.328-2.697,6.026-6.022,6.026
							c-3.325,0-6.022-2.698-6.022-6.026c0-3.322,2.697-6.019,6.022-6.019C1.891,25.827,4.588,28.523,4.588,31.846z"/>
						<path clip-path="url(#SVGID_10_)" fill="#21614A" d="M3.919,31.846c0,2.959-2.397,5.354-5.353,5.354
							c-2.957,0-5.352-2.395-5.352-5.354c0-2.953,2.396-5.353,5.352-5.353C1.521,26.493,3.919,28.893,3.919,31.846z"/>
						<path clip-path="url(#SVGID_10_)" fill="#22614C" d="M3.25,31.846c0,2.588-2.097,4.687-4.684,4.687
							c-2.587,0-4.683-2.099-4.683-4.687c0-2.587,2.096-4.678,4.683-4.678C1.153,27.168,3.25,29.259,3.25,31.846z"/>
						<path clip-path="url(#SVGID_10_)" fill="#22634D" d="M2.58,31.846c0,2.222-1.797,4.014-4.014,4.014
							c-2.216,0-4.017-1.792-4.017-4.014c0-2.214,1.801-4.012,4.017-4.012C0.783,27.834,2.58,29.632,2.58,31.846z"/>
						<path clip-path="url(#SVGID_10_)" fill="#22644D" d="M1.911,31.846c0,1.852-1.498,3.345-3.345,3.345
							c-1.847,0-3.344-1.493-3.344-3.345c0-1.845,1.497-3.342,3.344-3.342C0.413,28.504,1.911,30.001,1.911,31.846z"/>
						<path clip-path="url(#SVGID_10_)" fill="#22654E" d="M1.242,31.846c0,1.481-1.197,2.681-2.676,2.681
							c-1.477,0-2.676-1.199-2.676-2.681c0-1.477,1.199-2.672,2.676-2.672C0.044,29.174,1.242,30.369,1.242,31.846z"/>
						<path clip-path="url(#SVGID_10_)" fill="#23654E" d="M0.572,31.846c0,1.116-0.898,2.01-2.006,2.01
							c-1.11,0-2.009-0.894-2.009-2.01c0-1.104,0.899-2.006,2.009-2.006C-0.326,29.84,0.572,30.741,0.572,31.846z"/>
						<circle clip-path="url(#SVGID_10_)" fill="#236750" cx="-1.434" cy="31.846" r="1.338"/>
						<path clip-path="url(#SVGID_10_)" fill="#246851" d="M-0.765,31.846c0,0.369-0.3,0.674-0.669,0.674s-0.669-0.305-0.669-0.674
							c0-0.368,0.3-0.667,0.669-0.667S-0.765,31.478-0.765,31.846z"/>
					</g>
				</g>
				<g>
					<path fill="#F1F1F2" d="M-1.434,46.814c-8.252,0-14.964-6.712-14.964-14.969c0-8.248,6.711-14.963,14.964-14.963
						c8.251,0,14.965,6.715,14.965,14.963C13.531,40.103,6.817,46.814-1.434,46.814z M-1.434,17.166
						c-8.095,0-14.68,6.589-14.68,14.68c0,8.1,6.585,14.683,14.68,14.683c8.095,0,14.681-6.583,14.681-14.683
						C13.247,23.755,6.661,17.166-1.434,17.166z"/>
				</g>
			</g>
		</g>
		<g>
			<radialGradient id="SVGID_11_" cx="-1.2764" cy="27.3301" r="18.3325" gradientUnits="userSpaceOnUse">
				<stop  offset="0" style="stop-color:#FFFFFF"/>
				<stop  offset="1" style="stop-color:#F1F1F2"/>
			</radialGradient>
			<path fill="url(#SVGID_11_)" d="M-1.434,17.166c8.095,0,14.681,6.589,14.681,14.68h-29.361
				C-16.114,23.755-9.529,17.166-1.434,17.166z"/>
		</g>
		<g>
			<path fill="#1A5440" d="M-9.111,29.814c-1.297,0-2.325-0.876-2.325-2.215v-4.152h1.233v4.106c0,0.729,0.424,1.166,1.091,1.166
				c0.666,0,1.099-0.437,1.099-1.166v-4.106h1.226V27.6C-6.786,28.938-7.816,29.814-9.111,29.814z"/>
			<path fill="#1A5440" d="M-3.957,29.814c-0.958,0-1.688-0.201-2.308-0.833l0.799-0.798c0.399,0.396,0.94,0.536,1.519,0.536
				c0.734,0,1.126-0.284,1.126-0.792c0-0.214-0.063-0.394-0.196-0.525c-0.124-0.114-0.248-0.164-0.568-0.21l-0.754-0.117
				c-0.559-0.078-0.941-0.25-1.225-0.525c-0.301-0.291-0.453-0.709-0.453-1.237c0-1.132,0.835-1.918,2.202-1.918
				c0.869,0,1.5,0.213,2.039,0.734l-0.78,0.769c-0.39-0.377-0.878-0.429-1.296-0.429c-0.657,0-0.968,0.359-0.968,0.802
				c0,0.164,0.046,0.323,0.178,0.449c0.126,0.11,0.311,0.202,0.578,0.24l0.752,0.113c0.577,0.077,0.932,0.229,1.208,0.494
				c0.337,0.315,0.489,0.766,0.489,1.332C-1.613,29.126-2.625,29.814-3.957,29.814z"/>
			<path fill="#1A5440" d="M3.389,28.844c-0.453,0.628-1.047,0.922-1.908,0.922H-0.8v-6.318h2.281c0.861,0,1.455,0.29,1.908,0.921
				c0.391,0.542,0.401,1.188,0.401,2.239C3.79,27.648,3.779,28.303,3.389,28.844z M2.297,24.936
				c-0.205-0.252-0.506-0.387-0.924-0.387h-0.94v4.113h0.94c0.418,0,0.719-0.133,0.924-0.388c0.23-0.275,0.258-0.675,0.258-1.667
				C2.555,25.608,2.527,25.213,2.297,24.936z"/>
			<path fill="#1A5440" d="M8.293,29.766L7.92,28.649H5.676l-0.381,1.116H4.009l2.298-6.318h0.966l2.306,6.318H8.293z M6.82,25.312
				L6.022,27.61h1.57L6.82,25.312z"/>
		</g>
		<g>
			<path fill="#FFFFFF" d="M-9.102,37.271c-0.229,0.229-0.527,0.359-0.917,0.359c-0.386,0-0.686-0.131-0.915-0.359
				c-0.347-0.344-0.356-0.698-0.356-1.444c0-0.737,0.009-1.093,0.356-1.438c0.229-0.229,0.529-0.361,0.915-0.361
				c0.389,0,0.688,0.133,0.917,0.361c0.349,0.345,0.357,0.7,0.357,1.438C-8.744,36.572-8.752,36.927-9.102,37.271z M-9.49,34.723
				c-0.134-0.138-0.313-0.217-0.528-0.217c-0.213,0-0.392,0.079-0.526,0.217c-0.174,0.191-0.208,0.406-0.208,1.104
				c0,0.7,0.034,0.917,0.208,1.105c0.134,0.137,0.313,0.22,0.526,0.22c0.215,0,0.395-0.083,0.528-0.22
				c0.178-0.187,0.209-0.405,0.209-1.105C-9.28,35.129-9.312,34.908-9.49,34.723z"/>
			<path fill="#FFFFFF" d="M-6.117,37.603l-0.746-1.498h-0.672v1.498h-0.537V34.06H-6.7c0.672,0,1.101,0.431,1.101,1.033
				c0,0.511-0.31,0.829-0.707,0.942l0.816,1.567H-6.117z M-6.739,34.542h-0.796v1.106h0.796c0.357,0,0.603-0.205,0.603-0.551
				C-6.137,34.749-6.382,34.542-6.739,34.542z"/>
			<path fill="#FFFFFF" d="M-2.793,37.223c-0.263,0.281-0.602,0.407-0.975,0.407c-0.388,0-0.687-0.131-0.915-0.359
				c-0.346-0.344-0.358-0.698-0.358-1.444c0-0.737,0.012-1.093,0.358-1.438c0.228-0.229,0.527-0.361,0.915-0.361
				c0.747,0,1.187,0.492,1.282,1.094h-0.535c-0.09-0.388-0.349-0.615-0.747-0.615c-0.215,0-0.393,0.079-0.527,0.217
				c-0.174,0.191-0.21,0.406-0.21,1.104c0,0.7,0.036,0.919,0.21,1.109c0.134,0.136,0.312,0.216,0.527,0.216
				c0.232,0,0.44-0.085,0.582-0.254c0.13-0.148,0.175-0.325,0.175-0.555V36.14h-0.756v-0.457h1.292v0.547
				C-2.477,36.688-2.56,36.973-2.793,37.223z"/>
			<path fill="#FFFFFF" d="M0.238,37.603l-0.244-0.718h-1.397l-0.243,0.718H-2.22l1.298-3.543h0.435l1.297,3.543H0.238z
				 M-0.692,34.862l-0.551,1.571h1.087L-0.692,34.862z"/>
			<path fill="#FFFFFF" d="M3.474,37.603l-1.636-2.493v2.493H1.301V34.06h0.494l1.635,2.484V34.06h0.538v3.543H3.474z"/>
			<path fill="#FFFFFF" d="M4.744,37.603V34.06h0.538v3.543H4.744z"/>
			<path fill="#FFFFFF" d="M7.229,37.63c-0.385,0-0.686-0.131-0.914-0.359c-0.345-0.344-0.359-0.698-0.359-1.444
				c0-0.737,0.014-1.093,0.359-1.438c0.228-0.229,0.529-0.361,0.914-0.361c0.651,0,1.14,0.389,1.262,1.088H7.946
				c-0.08-0.361-0.323-0.609-0.716-0.609c-0.213,0-0.393,0.079-0.523,0.217c-0.178,0.191-0.211,0.406-0.211,1.104
				c0,0.7,0.033,0.919,0.211,1.109c0.13,0.136,0.311,0.216,0.523,0.216c0.393,0,0.643-0.241,0.726-0.615h0.536
				C8.37,37.241,7.876,37.63,7.229,37.63z"/>
		</g>
	</g>
</g>
</svg>
