<?xml version="1.0" encoding="utf-8"?>
<!-- Generator: Adobe Illustrator 16.0.0, SVG Export Plug-In . SVG Version: 6.00 Build 0)  -->
<!DOCTYPE svg PUBLIC "-//W3C//DTD SVG 1.1//EN" "http://www.w3.org/Graphics/SVG/1.1/DTD/svg11.dtd">
<svg version="1.1" id="Layer_1" xmlns="http://www.w3.org/2000/svg" xmlns:xlink="http://www.w3.org/1999/xlink" x="0px" y="0px"
	 width="550px" height="40px" viewBox="-299.25 15 550 40" enable-background="new -299.25 15 550 40" xml:space="preserve">
<g>
	<g>
		<path fill="#231F20" d="M-295.615,20.442h9.181l13.033,21.314h0.088V20.442h6.757v30.666h-8.835l-13.384-21.831h-0.086v21.831
			h-6.754V20.442z"/>
		<path fill="#231F20" d="M-247.933,48.469h-0.086c-0.724,1.123-1.685,1.93-2.883,2.424c-1.197,0.49-2.461,0.736-3.789,0.736
			c-0.982,0-1.926-0.139-2.835-0.412c-0.909-0.275-1.71-0.691-2.402-1.236c-0.695-0.553-1.244-1.229-1.648-2.033
			c-0.405-0.805-0.605-1.746-0.605-2.818c0-1.209,0.222-2.236,0.671-3.072c0.446-0.842,1.055-1.527,1.818-2.078
			c0.762-0.549,1.639-0.975,2.62-1.279c0.98-0.297,1.998-0.527,3.052-0.674c1.057-0.145,2.112-0.232,3.167-0.254
			c1.055-0.035,2.024-0.047,2.922-0.047c0-1.154-0.412-2.07-1.235-2.749c-0.823-0.68-1.796-1.02-2.924-1.02
			c-1.067,0-2.043,0.229-2.924,0.672c-0.881,0.449-1.668,1.059-2.357,1.84l-3.466-3.551c1.212-1.128,2.625-1.973,4.243-2.536
			c1.616-0.558,3.293-0.845,5.023-0.845c1.905,0,3.473,0.238,4.7,0.72c1.228,0.478,2.208,1.178,2.943,2.104
			c0.735,0.922,1.25,2.057,1.537,3.395c0.291,1.342,0.433,2.893,0.433,4.652v10.699h-5.974v-2.639H-247.933z M-249.534,41.881
			c-0.494,0-1.105,0.021-1.841,0.068c-0.737,0.041-1.447,0.162-2.125,0.371c-0.677,0.195-1.254,0.506-1.732,0.906
			c-0.477,0.406-0.714,0.967-0.714,1.688c0,0.777,0.33,1.352,0.998,1.729c0.663,0.377,1.356,0.564,2.079,0.564
			c0.636,0,1.248-0.088,1.84-0.252c0.592-0.182,1.119-0.424,1.584-0.744c0.459-0.311,0.83-0.723,1.103-1.213
			c0.273-0.486,0.412-1.066,0.412-1.729v-1.389H-249.534L-249.534,41.881z"/>
		<path fill="#231F20" d="M-223.556,35.256h-5.715v7.011c0,0.58,0.028,1.107,0.088,1.578c0.058,0.48,0.188,0.898,0.389,1.244
			c0.2,0.342,0.51,0.611,0.931,0.799c0.418,0.184,0.974,0.283,1.668,0.283c0.347,0,0.799-0.037,1.365-0.113
			c0.561-0.066,0.988-0.24,1.274-0.492v5.414c-0.717,0.258-1.47,0.43-2.25,0.514c-0.779,0.086-1.548,0.135-2.294,0.135
			c-1.098,0-2.109-0.121-3.031-0.35c-0.925-0.23-1.735-0.598-2.426-1.102c-0.693-0.506-1.235-1.16-1.625-1.973
			c-0.388-0.807-0.583-1.789-0.583-2.951v-9.998h-4.16v-5.194h4.16v-6.238h6.495v6.238h5.715V35.256z"/>
		<path fill="#231F20" d="M-199.993,51.107h-6.237V48.25h-0.086c-0.231,0.398-0.528,0.809-0.887,1.211
			c-0.362,0.406-0.802,0.766-1.324,1.082c-0.517,0.32-1.111,0.582-1.772,0.779c-0.665,0.207-1.387,0.307-2.167,0.307
			c-1.644,0-2.98-0.258-4.004-0.762c-1.027-0.502-1.821-1.203-2.385-2.102c-0.567-0.893-0.938-1.947-1.125-3.156
			c-0.188-1.219-0.282-2.529-0.282-3.945V30.062h6.499v10.301c0,0.609,0.021,1.238,0.061,1.883c0.047,0.648,0.177,1.25,0.393,1.795
			c0.217,0.557,0.547,0.998,0.994,1.346c0.449,0.348,1.092,0.518,1.927,0.518c0.836,0,1.516-0.148,2.034-0.453
			c0.52-0.303,0.918-0.707,1.194-1.211c0.273-0.506,0.455-1.078,0.538-1.711c0.088-0.631,0.133-1.299,0.133-1.994V30.059h6.494
			v21.049H-199.993z"/>
		<path fill="#231F20" d="M-195.403,30.064h6.496v3.37h0.083c0.696-1.301,1.517-2.273,2.472-2.921
			c0.956-0.649,2.151-0.978,3.595-0.978c0.375,0,0.749,0.016,1.125,0.042c0.372,0.033,0.722,0.093,1.04,0.173v5.936
			c-0.462-0.139-0.916-0.252-1.365-0.321c-0.447-0.073-0.917-0.11-1.408-0.11c-1.241,0-2.223,0.173-2.943,0.517
			c-0.722,0.352-1.281,0.832-1.668,1.455c-0.39,0.621-0.641,1.367-0.757,2.229c-0.115,0.869-0.173,1.822-0.173,2.863v8.787h-6.496
			V30.064z"/>
		<path fill="#231F20" d="M-164.571,48.469h-0.086c-0.724,1.123-1.684,1.93-2.88,2.424c-1.198,0.49-2.461,0.736-3.787,0.736
			c-0.984,0-1.929-0.139-2.838-0.412c-0.911-0.275-1.71-0.691-2.404-1.24c-0.693-0.549-1.241-1.225-1.647-2.029
			c-0.404-0.805-0.604-1.746-0.604-2.818c0-1.209,0.224-2.236,0.671-3.072c0.448-0.842,1.052-1.527,1.818-2.078
			c0.768-0.549,1.639-0.975,2.622-1.279c0.979-0.297,1.997-0.527,3.054-0.674c1.053-0.145,2.107-0.23,3.159-0.254
			c1.054-0.035,2.029-0.047,2.925-0.047c0-1.154-0.41-2.07-1.236-2.749c-0.821-0.68-1.794-1.018-2.923-1.018
			c-1.065,0-2.041,0.229-2.921,0.672c-0.88,0.449-1.668,1.059-2.358,1.842l-3.467-3.555c1.212-1.128,2.625-1.973,4.244-2.536
			c1.617-0.558,3.292-0.845,5.025-0.845c1.904,0,3.472,0.238,4.697,0.72c1.226,0.478,2.208,1.178,2.946,2.104
			c0.733,0.922,1.25,2.057,1.536,3.395c0.289,1.342,0.435,2.893,0.435,4.652v10.699h-5.978v-2.639H-164.571z M-166.172,41.881
			c-0.49,0-1.102,0.021-1.84,0.068c-0.733,0.041-1.443,0.162-2.12,0.365c-0.682,0.197-1.258,0.508-1.732,0.912
			c-0.479,0.406-0.716,0.965-0.716,1.688c0,0.777,0.33,1.352,0.994,1.729s1.357,0.564,2.078,0.564c0.635,0,1.25-0.088,1.84-0.252
			c0.589-0.182,1.116-0.424,1.581-0.744c0.462-0.311,0.828-0.723,1.105-1.213c0.272-0.486,0.409-1.066,0.409-1.729v-1.389H-166.172
			L-166.172,41.881z"/>
		<path fill="#231F20" d="M-154.438,18.366h6.496v32.742h-6.496V18.366z"/>
		<path fill="#231F20" d="M-129.36,20.442h20.57v6.241h-13.813v6.236h12.776v6.237h-12.776v11.951h-6.754V20.442H-129.36z"/>
		<path fill="#231F20" d="M-105.543,40.586c0-1.682,0.3-3.189,0.91-4.547c0.605-1.364,1.435-2.526,2.487-3.489
			c1.055-0.969,2.297-1.714,3.725-2.23c1.431-0.516,2.955-0.783,4.57-0.783c1.617,0,3.141,0.268,4.568,0.783
			c1.431,0.516,2.671,1.261,3.725,2.23c1.055,0.963,1.885,2.125,2.492,3.489c0.604,1.357,0.91,2.865,0.91,4.547
			c0,1.67-0.305,3.189-0.91,4.543c-0.607,1.361-1.437,2.521-2.492,3.484c-1.054,0.973-2.294,1.717-3.725,2.238
			c-1.427,0.516-2.951,0.779-4.568,0.779c-1.615,0-3.14-0.264-4.57-0.779c-1.426-0.521-2.67-1.266-3.725-2.238
			c-1.054-0.963-1.882-2.123-2.487-3.484C-105.24,43.775-105.543,42.256-105.543,40.586z M-99.048,40.586
			c0,1.584,0.456,2.873,1.365,3.854c0.909,0.984,2.187,1.471,3.834,1.471c1.646,0,2.924-0.486,3.833-1.471
			c0.908-0.98,1.364-2.27,1.364-3.854c0-1.594-0.458-2.877-1.364-3.859c-0.909-0.977-2.187-1.468-3.833-1.468
			c-1.647,0-2.925,0.492-3.834,1.468C-98.593,37.709-99.048,38.992-99.048,40.586z"/>
		<path fill="#231F20" d="M-79.128,40.586c0-1.682,0.305-3.189,0.91-4.547c0.607-1.364,1.437-2.526,2.489-3.489
			c1.055-0.969,2.296-1.714,3.726-2.23c1.428-0.516,2.953-0.783,4.568-0.783c1.618,0,3.141,0.268,4.567,0.783
			c1.43,0.516,2.671,1.261,3.726,2.23c1.052,0.963,1.885,2.125,2.49,3.489c0.604,1.357,0.91,2.865,0.91,4.547
			c0,1.67-0.303,3.189-0.91,4.543c-0.605,1.361-1.438,2.521-2.49,3.484c-1.055,0.973-2.296,1.717-3.726,2.238
			c-1.426,0.516-2.95,0.779-4.567,0.779c-1.616,0-3.138-0.264-4.568-0.779c-1.429-0.521-2.671-1.266-3.726-2.238
			c-1.052-0.963-1.88-2.123-2.489-3.484C-78.823,43.775-79.128,42.256-79.128,40.586z M-72.63,40.586
			c0,1.584,0.454,2.873,1.362,3.854c0.912,0.984,2.188,1.471,3.834,1.471c1.647,0,2.926-0.486,3.835-1.471
			c0.906-0.98,1.364-2.27,1.364-3.854c0-1.594-0.458-2.877-1.364-3.859c-0.91-0.977-2.188-1.468-3.835-1.468
			c-1.646,0-2.922,0.492-3.834,1.468C-72.176,37.709-72.63,38.992-72.63,40.586z"/>
		<path fill="#231F20" d="M-29.845,51.107h-5.973v-2.77h-0.09c-0.26,0.373-0.599,0.758-1.016,1.15
			c-0.422,0.385-0.911,0.738-1.475,1.055c-0.563,0.32-1.183,0.582-1.863,0.779c-0.678,0.207-1.377,0.307-2.099,0.307
			c-1.56,0-2.973-0.27-4.246-0.811c-1.27-0.527-2.36-1.273-3.269-2.244c-0.91-0.967-1.609-2.109-2.103-3.445
			c-0.49-1.322-0.736-2.785-0.736-4.373c0-1.473,0.225-2.881,0.671-4.227c0.449-1.336,1.083-2.528,1.908-3.566
			c0.822-1.042,1.826-1.869,3.008-2.49c1.188-0.623,2.527-0.937,4.03-0.937c1.357,0,2.622,0.213,3.792,0.633
			c1.168,0.414,2.128,1.131,2.879,2.142h0.087V18.368h6.494v32.74H-29.845z M-35.819,40.586c0-1.594-0.458-2.877-1.368-3.859
			c-0.908-0.977-2.187-1.468-3.833-1.468c-1.646,0-2.923,0.492-3.835,1.468c-0.907,0.982-1.361,2.266-1.361,3.859
			c0,1.584,0.455,2.873,1.361,3.854c0.913,0.984,2.189,1.471,3.835,1.471c1.646,0,2.925-0.486,3.833-1.471
			C-36.275,43.459-35.819,42.17-35.819,40.586z"/>
		<path fill="#231F20" d="M-9.926,20.442h8.841c1.062,0,2.185,0.131,3.354,0.373c1.165,0.242,2.236,0.67,3.203,1.283
			c0.968,0.602,1.763,1.43,2.383,2.485c0.619,1.052,0.928,2.378,0.928,3.96c0,1.388-0.249,2.585-0.761,3.59
			c-0.499,1.018-1.182,1.846-2.029,2.495c-0.856,0.651-1.836,1.137-2.946,1.454c-1.114,0.312-2.271,0.469-3.487,0.469h-6.627v14.557
			h-2.859V20.442L-9.926,20.442z M-7.067,33.957h6.498c0.805,0,1.6-0.092,2.378-0.277s1.479-0.496,2.082-0.912
			c0.602-0.418,1.096-0.978,1.47-1.671c0.379-0.694,0.568-1.544,0.568-2.555c0-0.976-0.198-1.816-0.589-2.507
			c-0.392-0.696-0.899-1.268-1.519-1.713c-0.618-0.45-1.333-0.771-2.141-0.975c-0.813-0.201-1.617-0.302-2.43-0.302h-6.321v10.913
			H-7.067z"/>
		<path fill="#231F20" d="M14.198,36.725c0-0.373-0.017-0.828-0.043-1.358c-0.025-0.541-0.047-1.077-0.063-1.626
			c-0.018-0.55-0.039-1.061-0.065-1.535c-0.03-0.478-0.042-0.852-0.042-1.108h2.597c0.03,0.755,0.051,1.475,0.069,2.168
			c0.009,0.691,0.042,1.14,0.103,1.342c0.667-1.182,1.518-2.15,2.554-2.904c1.045-0.746,2.31-1.123,3.814-1.123
			c0.258,0,0.508,0.025,0.752,0.062c0.25,0.045,0.504,0.094,0.762,0.156l-0.302,2.551c-0.348-0.111-0.683-0.172-1.001-0.172
			c-1.123,0-2.098,0.185-2.92,0.541c-0.822,0.361-1.5,0.858-2.034,1.498c-0.538,0.635-0.933,1.374-1.191,2.225
			c-0.258,0.855-0.391,1.771-0.391,2.752v10.914h-2.597V36.725L14.198,36.725z"/>
		<path fill="#231F20" d="M28.401,23.172c0-0.545,0.189-1.009,0.563-1.387c0.378-0.37,0.838-0.566,1.384-0.566
			c0.555,0,1.015,0.196,1.389,0.566c0.375,0.378,0.564,0.842,0.564,1.387c0,0.55-0.189,1.013-0.564,1.388
			c-0.374,0.376-0.833,0.566-1.389,0.566c-0.546,0-1.006-0.189-1.384-0.566C28.59,24.185,28.401,23.721,28.401,23.172z
			 M29.055,31.096h2.597v20.012h-2.597V31.096z"/>
		<path fill="#231F20" d="M36.197,31.096h2.945l6.669,17.193l6.498-17.193h2.64l-7.878,20.012H44.38L36.197,31.096z"/>
		<path fill="#231F20" d="M74.609,42.701c0,0.99,0.009,1.867,0.021,2.648c0.017,0.781,0.039,1.502,0.06,2.16
			c0.035,0.666,0.069,1.285,0.112,1.865c0.047,0.574,0.111,1.15,0.194,1.732h-2.421c-0.177-0.975-0.263-2.064-0.263-3.248h-0.086
			c-0.752,1.295-1.685,2.256-2.794,2.859c-1.11,0.604-2.521,0.91-4.223,0.91c-0.864,0-1.712-0.102-2.55-0.33
			c-0.842-0.213-1.591-0.562-2.253-1.033c-0.666-0.479-1.208-1.09-1.625-1.848c-0.413-0.744-0.624-1.65-0.624-2.727
			c0-1.527,0.387-2.734,1.166-3.635c0.778-0.898,1.741-1.57,2.88-2.018c1.145-0.447,2.357-0.734,3.638-0.865
			c1.285-0.131,2.42-0.191,3.401-0.191h3.031v-1.211c0-1.732-0.532-2.973-1.604-3.729c-1.066-0.752-2.413-1.123-4.029-1.123
			c-2.313,0-4.347,0.756-6.106,2.254l-1.513-1.779c0.955-0.922,2.137-1.624,3.552-2.096c1.414-0.48,2.769-0.716,4.067-0.716
			c2.43,0,4.36,0.572,5.805,1.712c1.445,1.137,2.164,2.98,2.164,5.52V42.701L74.609,42.701z M69.411,41.059
			c-1.101,0-2.159,0.076-3.178,0.219c-1.023,0.143-1.948,0.393-2.773,0.734c-0.822,0.346-1.484,0.814-1.969,1.385
			c-0.495,0.582-0.74,1.305-0.74,2.17c0,0.605,0.137,1.143,0.413,1.625c0.275,0.471,0.627,0.867,1.058,1.164
			c0.438,0.307,0.925,0.537,1.453,0.689c0.538,0.166,1.075,0.244,1.625,0.244c1.385,0,2.525-0.203,3.419-0.605
			c0.899-0.404,1.608-0.928,2.146-1.584c0.537-0.652,0.898-1.385,1.104-2.209c0.202-0.82,0.305-1.65,0.305-2.488v-1.344H69.411z"/>
		<path fill="#231F20" d="M91.328,33.434h-5.719v13.042c0,0.893,0.25,1.588,0.74,2.076c0.487,0.49,1.165,0.742,2.034,0.742
			c0.49,0,0.985-0.074,1.492-0.199c0.507-0.131,0.993-0.299,1.453-0.498l0.215,2.338c-0.49,0.176-1.058,0.328-1.686,0.479
			c-0.641,0.141-1.2,0.217-1.69,0.217c-0.928,0-1.72-0.141-2.386-0.414c-0.662-0.271-1.196-0.641-1.603-1.102
			c-0.405-0.459-0.697-1.006-0.887-1.623c-0.185-0.625-0.279-1.295-0.279-2.012V33.435h-4.335v-2.336h4.335v-5.757h2.597v5.757
			h5.719V33.434L91.328,33.434z"/>
		<path fill="#231F20" d="M113.628,47.338c-1.006,1.531-2.253,2.627-3.745,3.287c-1.488,0.672-3.122,1.004-4.916,1.004
			c-1.531,0-2.916-0.264-4.158-0.777c-1.243-0.523-2.305-1.256-3.204-2.193c-0.9-0.938-1.578-2.053-2.06-3.328
			c-0.474-1.291-0.709-2.713-0.709-4.275c0-1.498,0.241-2.885,0.735-4.158c0.486-1.271,1.187-2.374,2.077-3.307
			c0.895-0.94,1.953-1.678,3.161-2.208c1.216-0.541,2.558-0.804,4.029-0.804c1.526,0,2.885,0.263,4.051,0.804
			c1.165,0.532,2.149,1.243,2.95,2.116c0.791,0.881,1.389,1.885,1.789,3.008c0.409,1.131,0.611,2.273,0.611,3.432v1.812H97.434
			c0,0.551,0.104,1.252,0.322,2.096c0.215,0.855,0.611,1.686,1.192,2.496c0.572,0.807,1.346,1.498,2.317,2.074
			c0.963,0.58,2.214,0.873,3.745,0.873c1.325,0,2.614-0.316,3.853-0.953c1.239-0.639,2.197-1.508,2.859-2.602L113.628,47.338z
			 M111.637,39.416c0-0.904-0.18-1.734-0.542-2.52c-0.357-0.773-0.851-1.461-1.471-2.051c-0.619-0.596-1.358-1.06-2.206-1.413
			c-0.86-0.343-1.755-0.518-2.709-0.518c-1.416,0-2.597,0.286-3.531,0.868c-0.933,0.573-1.681,1.244-2.227,1.991
			c-0.555,0.748-0.942,1.475-1.166,2.188c-0.232,0.707-0.348,1.193-0.348,1.453h14.199V39.416z"/>
		<path fill="#231F20" d="M132.037,20.442h2.851v28.072h14.293v2.598h-17.144V20.442L132.037,20.442z"/>
		<path fill="#231F20" d="M168.496,42.701c0,0.99,0.009,1.867,0.026,2.648c0.014,0.781,0.036,1.502,0.069,2.16
			c0.026,0.666,0.06,1.285,0.104,1.865c0.047,0.574,0.106,1.15,0.193,1.732h-2.426c-0.176-0.975-0.253-2.064-0.253-3.248h-0.092
			c-0.752,1.295-1.684,2.256-2.798,2.859c-1.105,0.604-2.518,0.91-4.219,0.91c-0.863,0-1.715-0.102-2.555-0.33
			c-0.838-0.213-1.59-0.562-2.253-1.033c-0.667-0.479-1.199-1.09-1.625-1.848c-0.413-0.744-0.628-1.65-0.628-2.727
			c0-1.527,0.391-2.734,1.17-3.635c0.785-0.898,1.746-1.57,2.885-2.018c1.144-0.447,2.353-0.734,3.638-0.865
			c1.282-0.131,2.417-0.191,3.399-0.191h3.034v-1.211c0-1.732-0.537-2.973-1.604-3.729c-1.072-0.752-2.417-1.123-4.03-1.123
			c-2.31,0-4.347,0.756-6.105,2.254l-1.514-1.779c0.949-0.922,2.136-1.624,3.544-2.096c1.417-0.48,2.776-0.716,4.075-0.716
			c2.429,0,4.356,0.572,5.801,1.712c1.445,1.137,2.162,2.98,2.162,5.52V42.701L168.496,42.701z M163.303,41.059
			c-1.096,0-2.159,0.076-3.187,0.219c-1.024,0.143-1.948,0.393-2.771,0.734c-0.824,0.346-1.482,0.814-1.969,1.385
			c-0.489,0.582-0.735,1.305-0.735,2.17c0,0.605,0.139,1.143,0.413,1.625c0.271,0.471,0.629,0.867,1.058,1.164
			c0.435,0.307,0.917,0.537,1.449,0.689c0.538,0.166,1.079,0.244,1.626,0.244c1.385,0,2.522-0.203,3.419-0.605
			c0.899-0.404,1.611-0.928,2.145-1.584c0.538-0.648,0.908-1.385,1.11-2.209c0.197-0.82,0.306-1.65,0.306-2.488v-1.344H163.303z"/>
		<path fill="#231F20" d="M174.865,18.366h2.593v16.241h0.091c0.403-0.692,0.911-1.288,1.519-1.792
			c0.602-0.507,1.265-0.926,1.972-1.259c0.703-0.334,1.446-0.574,2.228-0.738c0.779-0.158,1.544-0.236,2.297-0.236
			c1.527,0,2.938,0.257,4.223,0.774c1.282,0.522,2.396,1.255,3.333,2.192c0.938,0.939,1.668,2.051,2.188,3.336
			s0.778,2.688,0.778,4.221s-0.258,2.941-0.778,4.23c-0.521,1.277-1.251,2.393-2.188,3.33s-2.051,1.668-3.333,2.189
			c-1.284,0.518-2.695,0.779-4.223,0.779c-0.753,0-1.513-0.088-2.297-0.238c-0.781-0.158-1.524-0.406-2.228-0.736
			c-0.707-0.328-1.37-0.75-1.972-1.256c-0.607-0.506-1.115-1.107-1.519-1.799h-0.091v3.51h-2.593V18.366z M177.205,41.102
			c0,1.127,0.219,2.188,0.653,3.184c0.426,0.994,1.019,1.865,1.775,2.604c0.744,0.73,1.626,1.316,2.641,1.75
			c1.001,0.434,2.103,0.65,3.289,0.65c1.212,0,2.313-0.217,3.29-0.65c0.98-0.434,1.819-1.02,2.516-1.75
			c0.684-0.738,1.219-1.609,1.574-2.604c0.361-0.998,0.541-2.061,0.541-3.184s-0.18-2.191-0.541-3.184
			c-0.355-0.994-0.891-1.857-1.574-2.598c-0.696-0.732-1.535-1.318-2.516-1.756c-0.977-0.428-2.078-0.645-3.29-0.645
			c-1.187,0-2.288,0.217-3.289,0.645c-1.015,0.438-1.896,1.023-2.641,1.756c-0.757,0.741-1.346,1.604-1.775,2.598
			C177.42,38.91,177.205,39.979,177.205,41.102z"/>
		<path fill="#231F20" d="M219.556,47.338c-1.006,1.531-2.253,2.627-3.744,3.287c-1.488,0.672-3.127,1.004-4.911,1.004
			c-1.532,0-2.92-0.264-4.163-0.777c-1.241-0.523-2.309-1.256-3.204-2.193c-0.894-0.938-1.581-2.053-2.059-3.328
			c-0.474-1.291-0.708-2.713-0.708-4.275c0-1.498,0.238-2.885,0.729-4.158c0.495-1.271,1.188-2.374,2.083-3.307
			c0.893-0.94,1.948-1.678,3.159-2.208c1.214-0.541,2.554-0.804,4.029-0.804c1.526,0,2.88,0.263,4.05,0.804
			c1.166,0.532,2.151,1.243,2.946,2.116c0.791,0.881,1.394,1.885,1.793,3.008c0.409,1.131,0.605,2.273,0.605,3.432v1.812h-16.805
			c0,0.551,0.109,1.252,0.328,2.096c0.214,0.855,0.61,1.686,1.187,2.496c0.576,0.807,1.35,1.498,2.317,2.074
			c0.973,0.58,2.221,0.873,3.749,0.873c1.33,0,2.616-0.316,3.854-0.953c1.239-0.639,2.192-1.508,2.859-2.602L219.556,47.338z
			 M217.565,39.416c0-0.904-0.185-1.734-0.537-2.52c-0.367-0.773-0.856-1.461-1.475-2.051c-0.62-0.596-1.355-1.06-2.21-1.413
			c-0.848-0.343-1.754-0.518-2.705-0.518c-1.419,0-2.598,0.286-3.532,0.868c-0.938,0.573-1.68,1.244-2.232,1.991
			c-0.549,0.748-0.937,1.475-1.169,2.188c-0.227,0.707-0.344,1.193-0.344,1.453h14.204V39.416z"/>
		<path fill="#231F20" d="M226.401,18.366h2.594v32.742h-2.594V18.366z"/>
		<path fill="#231F20" d="M236.402,45.996c0.547,1.064,1.356,1.885,2.427,2.445c1.066,0.564,2.189,0.848,3.38,0.848
			c0.547,0,1.098-0.09,1.643-0.264c0.55-0.174,1.041-0.422,1.47-0.736c0.437-0.316,0.784-0.695,1.062-1.143
			c0.277-0.449,0.414-0.963,0.414-1.537c0-0.93-0.298-1.621-0.892-2.086c-0.593-0.457-1.319-0.822-2.188-1.08
			c-0.863-0.254-1.818-0.482-2.858-0.672c-1.037-0.189-1.983-0.48-2.857-0.865c-0.866-0.393-1.594-0.93-2.188-1.623
			c-0.592-0.689-0.886-1.678-0.886-2.945c0-0.986,0.202-1.833,0.607-2.552c0.408-0.724,0.937-1.321,1.585-1.802
			c0.646-0.475,1.377-0.828,2.18-1.057c0.809-0.233,1.631-0.346,2.47-0.346c1.646,0,3.07,0.305,4.27,0.909
			c1.196,0.611,2.129,1.559,2.787,2.854l-2.332,1.385c-0.496-0.922-1.108-1.622-1.844-2.092c-0.735-0.48-1.697-0.719-2.881-0.719
			c-0.465,0-0.946,0.069-1.454,0.217c-0.503,0.143-0.959,0.347-1.362,0.606c-0.408,0.261-0.739,0.592-1.015,0.999
			c-0.276,0.4-0.415,0.864-0.415,1.385c0,0.893,0.298,1.559,0.889,1.988c0.588,0.438,1.318,0.773,2.188,1.02
			c0.862,0.244,1.813,0.455,2.853,0.623c1.041,0.182,1.993,0.459,2.861,0.854c0.863,0.387,1.601,0.947,2.185,1.686
			c0.594,0.73,0.885,1.783,0.885,3.137c0,1.045-0.188,1.943-0.576,2.707c-0.4,0.76-0.928,1.41-1.603,1.928
			c-0.685,0.518-1.454,0.91-2.323,1.168c-0.865,0.26-1.771,0.393-2.72,0.393c-1.733,0-3.322-0.336-4.745-1.004
			c-1.436-0.658-2.531-1.686-3.315-3.072L236.402,45.996z"/>
	</g>
</g>
</svg>
